M48
;DRILL file {KiCad 4.0.7} date 02/11/18 16:58:35
;FORMAT={-:-/ absolute / metric / decimal}
FMAT,2
METRIC,TZ
T1C0.800
T2C1.000
T3C1.016
T4C1.100
T5C1.199
T6C1.200
T7C2.100
T8C2.200
%
G90
G05
M71
T1
X91.44Y-77.47
X91.44Y-85.09
X93.25Y-99.06
X93.98Y-77.47
X93.98Y-85.09
X93.98Y-90.17
X93.98Y-93.98
X95.25Y-99.06
X96.52Y-63.5
X96.52Y-73.66
X96.52Y-77.47
X96.52Y-85.09
X99.06Y-77.47
X99.06Y-85.09
X100.33Y-66.12
X100.33Y-71.12
X104.14Y-80.09
X104.14Y-85.09
X104.14Y-90.17
X104.14Y-93.98
X110.49Y-80.01
X110.49Y-82.55
X110.49Y-85.09
X110.49Y-87.63
X118.11Y-80.01
X118.11Y-82.55
X118.11Y-85.09
X118.11Y-87.63
X127.Y-87.63
X127.Y-92.63
X133.35Y-80.01
X143.51Y-80.01
X144.78Y-97.79
X144.78Y-107.95
X152.4Y-87.63
X152.4Y-92.63
T2
X93.98Y-58.42
X96.52Y-58.42
X127.Y-105.41
X127.Y-107.95
X129.54Y-64.77
X129.54Y-67.31
X132.08Y-64.77
X132.08Y-67.31
X134.62Y-64.77
X134.62Y-67.31
X137.16Y-64.77
X137.16Y-67.31
X144.78Y-58.42
X144.78Y-64.77
X144.78Y-67.31
X147.32Y-58.42
X147.32Y-64.77
X147.32Y-67.31
X149.86Y-64.77
X149.86Y-67.31
X152.4Y-64.77
X152.4Y-67.31
T3
X131.191Y-92.71
X132.893Y-87.63
X134.595Y-92.71
X136.296Y-87.63
X137.998Y-92.71
X139.7Y-87.63
X141.402Y-92.71
X143.104Y-87.63
X144.805Y-92.71
X146.507Y-87.63
X148.209Y-92.71
T4
X100.33Y-97.79
X100.33Y-107.95
X132.08Y-97.79
X132.08Y-107.95
X149.86Y-97.79
X149.86Y-107.95
T5
X92.71Y-107.95
X95.25Y-107.95
X137.16Y-107.95
X139.7Y-107.95
T6
X106.68Y-50.8
X114.3Y-62.23
X114.3Y-69.73
X114.3Y-97.79
X114.3Y-105.29
X137.16Y-50.8
T7
X142.24Y-53.34
X152.4Y-53.34
T8
X91.44Y-53.34
X101.6Y-53.34
T0
M30
