%TF.GenerationSoftware,KiCad,Pcbnew,4.0.7*%
%TF.CreationDate,2018-02-11T16:58:38-06:00*%
%TF.ProjectId,Shutter_Driver,536875747465725F4472697665722E6B,1.1*%
%TF.FileFunction,Soldermask,Bot*%
%FSLAX46Y46*%
G04 Gerber Fmt 4.6, Leading zero omitted, Abs format (unit mm)*
G04 Created by KiCad (PCBNEW 4.0.7) date 02/11/18 16:58:38*
%MOMM*%
%LPD*%
G01*
G04 APERTURE LIST*
%ADD10C,0.100000*%
%ADD11C,0.150000*%
%ADD12C,0.300000*%
%ADD13C,0.400000*%
%ADD14O,2.200860X3.900120*%
%ADD15R,2.100000X2.100000*%
%ADD16O,2.100000X2.100000*%
%ADD17O,2.178000X3.448000*%
%ADD18C,3.900120*%
%ADD19O,2.000200X2.899360*%
%ADD20C,2.000000*%
%ADD21R,2.800000X2.800000*%
%ADD22C,2.800000*%
%ADD23R,2.000000X2.000000*%
%ADD24R,2.600000X2.600000*%
%ADD25O,2.600000X2.600000*%
%ADD26O,2.000000X2.000000*%
%ADD27O,2.800000X2.800000*%
%ADD28R,2.000000X2.800000*%
%ADD29O,2.000000X2.800000*%
%ADD30R,2.800000X2.000000*%
%ADD31O,2.800000X2.000000*%
G04 APERTURE END LIST*
D10*
D11*
X159400000Y-171900000D02*
X159400000Y-203900000D01*
X267400000Y-203900000D01*
X267400000Y-171900000D01*
X159400000Y-171900000D01*
D10*
D11*
X10000000Y-10000000D02*
X10000000Y-205900000D01*
X269400000Y-205900000D01*
X269400000Y-10000000D01*
X10000000Y-10000000D01*
D10*
D11*
X12000000Y-12000000D02*
X12000000Y-203900000D01*
X267400000Y-203900000D01*
X267400000Y-12000000D01*
X12000000Y-12000000D01*
D10*
D11*
X60000000Y-12000000D02*
X60000000Y-10000000D01*
D10*
D11*
X110000000Y-12000000D02*
X110000000Y-10000000D01*
D10*
D11*
X160000000Y-12000000D02*
X160000000Y-10000000D01*
D10*
D11*
X210000000Y-12000000D02*
X210000000Y-10000000D01*
D10*
D11*
X260000000Y-12000000D02*
X260000000Y-10000000D01*
D10*
D11*
X35990476Y-11588095D02*
X35247619Y-11588095D01*
X35619048Y-11588095D02*
X35619048Y-10288095D01*
X35495238Y-10473810D01*
X35371429Y-10597619D01*
X35247619Y-10659524D01*
D10*
D11*
X85247619Y-10411905D02*
X85309524Y-10350000D01*
X85433333Y-10288095D01*
X85742857Y-10288095D01*
X85866667Y-10350000D01*
X85928571Y-10411905D01*
X85990476Y-10535714D01*
X85990476Y-10659524D01*
X85928571Y-10845238D01*
X85185714Y-11588095D01*
X85990476Y-11588095D01*
D10*
D11*
X135185714Y-10288095D02*
X135990476Y-10288095D01*
X135557143Y-10783333D01*
X135742857Y-10783333D01*
X135866667Y-10845238D01*
X135928571Y-10907143D01*
X135990476Y-11030952D01*
X135990476Y-11340476D01*
X135928571Y-11464286D01*
X135866667Y-11526190D01*
X135742857Y-11588095D01*
X135371429Y-11588095D01*
X135247619Y-11526190D01*
X135185714Y-11464286D01*
D10*
D11*
X185866667Y-10721429D02*
X185866667Y-11588095D01*
X185557143Y-10226190D02*
X185247619Y-11154762D01*
X186052381Y-11154762D01*
D10*
D11*
X235928571Y-10288095D02*
X235309524Y-10288095D01*
X235247619Y-10907143D01*
X235309524Y-10845238D01*
X235433333Y-10783333D01*
X235742857Y-10783333D01*
X235866667Y-10845238D01*
X235928571Y-10907143D01*
X235990476Y-11030952D01*
X235990476Y-11340476D01*
X235928571Y-11464286D01*
X235866667Y-11526190D01*
X235742857Y-11588095D01*
X235433333Y-11588095D01*
X235309524Y-11526190D01*
X235247619Y-11464286D01*
D10*
D11*
X60000000Y-203900000D02*
X60000000Y-205900000D01*
D10*
D11*
X110000000Y-203900000D02*
X110000000Y-205900000D01*
D10*
D11*
X160000000Y-203900000D02*
X160000000Y-205900000D01*
D10*
D11*
X210000000Y-203900000D02*
X210000000Y-205900000D01*
D10*
D11*
X260000000Y-203900000D02*
X260000000Y-205900000D01*
D10*
D11*
X35990476Y-205488095D02*
X35247619Y-205488095D01*
X35619048Y-205488095D02*
X35619048Y-204188095D01*
X35495238Y-204373810D01*
X35371429Y-204497619D01*
X35247619Y-204559524D01*
D10*
D11*
X85247619Y-204311905D02*
X85309524Y-204250000D01*
X85433333Y-204188095D01*
X85742857Y-204188095D01*
X85866667Y-204250000D01*
X85928571Y-204311905D01*
X85990476Y-204435714D01*
X85990476Y-204559524D01*
X85928571Y-204745238D01*
X85185714Y-205488095D01*
X85990476Y-205488095D01*
D10*
D11*
X135185714Y-204188095D02*
X135990476Y-204188095D01*
X135557143Y-204683333D01*
X135742857Y-204683333D01*
X135866667Y-204745238D01*
X135928571Y-204807143D01*
X135990476Y-204930952D01*
X135990476Y-205240476D01*
X135928571Y-205364286D01*
X135866667Y-205426190D01*
X135742857Y-205488095D01*
X135371429Y-205488095D01*
X135247619Y-205426190D01*
X135185714Y-205364286D01*
D10*
D11*
X185866667Y-204621429D02*
X185866667Y-205488095D01*
X185557143Y-204126190D02*
X185247619Y-205054762D01*
X186052381Y-205054762D01*
D10*
D11*
X235928571Y-204188095D02*
X235309524Y-204188095D01*
X235247619Y-204807143D01*
X235309524Y-204745238D01*
X235433333Y-204683333D01*
X235742857Y-204683333D01*
X235866667Y-204745238D01*
X235928571Y-204807143D01*
X235990476Y-204930952D01*
X235990476Y-205240476D01*
X235928571Y-205364286D01*
X235866667Y-205426190D01*
X235742857Y-205488095D01*
X235433333Y-205488095D01*
X235309524Y-205426190D01*
X235247619Y-205364286D01*
D10*
D11*
X10000000Y-60000000D02*
X12000000Y-60000000D01*
D10*
D11*
X10000000Y-110000000D02*
X12000000Y-110000000D01*
D10*
D11*
X10000000Y-160000000D02*
X12000000Y-160000000D01*
D10*
D11*
X10690476Y-35216667D02*
X11309524Y-35216667D01*
X10566667Y-35588095D02*
X11000000Y-34288095D01*
X11433333Y-35588095D01*
D10*
D11*
X11092857Y-84907143D02*
X11278571Y-84969048D01*
X11340476Y-85030952D01*
X11402381Y-85154762D01*
X11402381Y-85340476D01*
X11340476Y-85464286D01*
X11278571Y-85526190D01*
X11154762Y-85588095D01*
X10659524Y-85588095D01*
X10659524Y-84288095D01*
X11092857Y-84288095D01*
X11216667Y-84350000D01*
X11278571Y-84411905D01*
X11340476Y-84535714D01*
X11340476Y-84659524D01*
X11278571Y-84783333D01*
X11216667Y-84845238D01*
X11092857Y-84907143D01*
X10659524Y-84907143D01*
D10*
D11*
X11402381Y-135464286D02*
X11340476Y-135526190D01*
X11154762Y-135588095D01*
X11030952Y-135588095D01*
X10845238Y-135526190D01*
X10721429Y-135402381D01*
X10659524Y-135278571D01*
X10597619Y-135030952D01*
X10597619Y-134845238D01*
X10659524Y-134597619D01*
X10721429Y-134473810D01*
X10845238Y-134350000D01*
X11030952Y-134288095D01*
X11154762Y-134288095D01*
X11340476Y-134350000D01*
X11402381Y-134411905D01*
D10*
D11*
X10659524Y-185588095D02*
X10659524Y-184288095D01*
X10969048Y-184288095D01*
X11154762Y-184350000D01*
X11278571Y-184473810D01*
X11340476Y-184597619D01*
X11402381Y-184845238D01*
X11402381Y-185030952D01*
X11340476Y-185278571D01*
X11278571Y-185402381D01*
X11154762Y-185526190D01*
X10969048Y-185588095D01*
X10659524Y-185588095D01*
D10*
D11*
X269400000Y-60000000D02*
X267400000Y-60000000D01*
D10*
D11*
X269400000Y-110000000D02*
X267400000Y-110000000D01*
D10*
D11*
X269400000Y-160000000D02*
X267400000Y-160000000D01*
D10*
D11*
X268090476Y-35216667D02*
X268709524Y-35216667D01*
X267966667Y-35588095D02*
X268400000Y-34288095D01*
X268833333Y-35588095D01*
D10*
D11*
X268492857Y-84907143D02*
X268678571Y-84969048D01*
X268740476Y-85030952D01*
X268802381Y-85154762D01*
X268802381Y-85340476D01*
X268740476Y-85464286D01*
X268678571Y-85526190D01*
X268554762Y-85588095D01*
X268059524Y-85588095D01*
X268059524Y-84288095D01*
X268492857Y-84288095D01*
X268616667Y-84350000D01*
X268678571Y-84411905D01*
X268740476Y-84535714D01*
X268740476Y-84659524D01*
X268678571Y-84783333D01*
X268616667Y-84845238D01*
X268492857Y-84907143D01*
X268059524Y-84907143D01*
D10*
D11*
X268802381Y-135464286D02*
X268740476Y-135526190D01*
X268554762Y-135588095D01*
X268430952Y-135588095D01*
X268245238Y-135526190D01*
X268121429Y-135402381D01*
X268059524Y-135278571D01*
X267997619Y-135030952D01*
X267997619Y-134845238D01*
X268059524Y-134597619D01*
X268121429Y-134473810D01*
X268245238Y-134350000D01*
X268430952Y-134288095D01*
X268554762Y-134288095D01*
X268740476Y-134350000D01*
X268802381Y-134411905D01*
D10*
D11*
X268059524Y-185588095D02*
X268059524Y-184288095D01*
X268369048Y-184288095D01*
X268554762Y-184350000D01*
X268678571Y-184473810D01*
X268740476Y-184597619D01*
X268802381Y-184845238D01*
X268802381Y-185030952D01*
X268740476Y-185278571D01*
X268678571Y-185402381D01*
X268554762Y-185526190D01*
X268369048Y-185588095D01*
X268059524Y-185588095D01*
D10*
D11*
X182757143Y-199678571D02*
X182757143Y-198178571D01*
X183114286Y-198178571D01*
X183328571Y-198250000D01*
X183471429Y-198392857D01*
X183542857Y-198535714D01*
X183614286Y-198821429D01*
X183614286Y-199035714D01*
X183542857Y-199321429D01*
X183471429Y-199464286D01*
X183328571Y-199607143D01*
X183114286Y-199678571D01*
X182757143Y-199678571D01*
X184900000Y-199678571D02*
X184900000Y-198892857D01*
X184828571Y-198750000D01*
X184685714Y-198678571D01*
X184400000Y-198678571D01*
X184257143Y-198750000D01*
X184900000Y-199607143D02*
X184757143Y-199678571D01*
X184400000Y-199678571D01*
X184257143Y-199607143D01*
X184185714Y-199464286D01*
X184185714Y-199321429D01*
X184257143Y-199178571D01*
X184400000Y-199107143D01*
X184757143Y-199107143D01*
X184900000Y-199035714D01*
X185400000Y-198678571D02*
X185971429Y-198678571D01*
X185614286Y-198178571D02*
X185614286Y-199464286D01*
X185685714Y-199607143D01*
X185828572Y-199678571D01*
X185971429Y-199678571D01*
X187042857Y-199607143D02*
X186900000Y-199678571D01*
X186614286Y-199678571D01*
X186471429Y-199607143D01*
X186400000Y-199464286D01*
X186400000Y-198892857D01*
X186471429Y-198750000D01*
X186614286Y-198678571D01*
X186900000Y-198678571D01*
X187042857Y-198750000D01*
X187114286Y-198892857D01*
X187114286Y-199035714D01*
X186400000Y-199178571D01*
X187757143Y-199535714D02*
X187828571Y-199607143D01*
X187757143Y-199678571D01*
X187685714Y-199607143D01*
X187757143Y-199535714D01*
X187757143Y-199678571D01*
X187757143Y-198750000D02*
X187828571Y-198821429D01*
X187757143Y-198892857D01*
X187685714Y-198821429D01*
X187757143Y-198750000D01*
X187757143Y-198892857D01*
X189542857Y-198321429D02*
X189614286Y-198250000D01*
X189757143Y-198178571D01*
X190114286Y-198178571D01*
X190257143Y-198250000D01*
X190328572Y-198321429D01*
X190400000Y-198464286D01*
X190400000Y-198607143D01*
X190328572Y-198821429D01*
X189471429Y-199678571D01*
X190400000Y-199678571D01*
X191328571Y-198178571D02*
X191471428Y-198178571D01*
X191614285Y-198250000D01*
X191685714Y-198321429D01*
X191757143Y-198464286D01*
X191828571Y-198750000D01*
X191828571Y-199107143D01*
X191757143Y-199392857D01*
X191685714Y-199535714D01*
X191614285Y-199607143D01*
X191471428Y-199678571D01*
X191328571Y-199678571D01*
X191185714Y-199607143D01*
X191114285Y-199535714D01*
X191042857Y-199392857D01*
X190971428Y-199107143D01*
X190971428Y-198750000D01*
X191042857Y-198464286D01*
X191114285Y-198321429D01*
X191185714Y-198250000D01*
X191328571Y-198178571D01*
X193257142Y-199678571D02*
X192399999Y-199678571D01*
X192828571Y-199678571D02*
X192828571Y-198178571D01*
X192685714Y-198392857D01*
X192542856Y-198535714D01*
X192399999Y-198607143D01*
X193757142Y-198178571D02*
X194757142Y-198178571D01*
X194114285Y-199678571D01*
X195328570Y-199107143D02*
X196471427Y-199107143D01*
X197471427Y-198178571D02*
X197614284Y-198178571D01*
X197757141Y-198250000D01*
X197828570Y-198321429D01*
X197899999Y-198464286D01*
X197971427Y-198750000D01*
X197971427Y-199107143D01*
X197899999Y-199392857D01*
X197828570Y-199535714D01*
X197757141Y-199607143D01*
X197614284Y-199678571D01*
X197471427Y-199678571D01*
X197328570Y-199607143D01*
X197257141Y-199535714D01*
X197185713Y-199392857D01*
X197114284Y-199107143D01*
X197114284Y-198750000D01*
X197185713Y-198464286D01*
X197257141Y-198321429D01*
X197328570Y-198250000D01*
X197471427Y-198178571D01*
X198542855Y-198321429D02*
X198614284Y-198250000D01*
X198757141Y-198178571D01*
X199114284Y-198178571D01*
X199257141Y-198250000D01*
X199328570Y-198321429D01*
X199399998Y-198464286D01*
X199399998Y-198607143D01*
X199328570Y-198821429D01*
X198471427Y-199678571D01*
X199399998Y-199678571D01*
X200042855Y-199107143D02*
X201185712Y-199107143D01*
X201828569Y-198321429D02*
X201899998Y-198250000D01*
X202042855Y-198178571D01*
X202399998Y-198178571D01*
X202542855Y-198250000D01*
X202614284Y-198321429D01*
X202685712Y-198464286D01*
X202685712Y-198607143D01*
X202614284Y-198821429D01*
X201757141Y-199678571D01*
X202685712Y-199678571D01*
X203614283Y-198178571D02*
X203757140Y-198178571D01*
X203899997Y-198250000D01*
X203971426Y-198321429D01*
X204042855Y-198464286D01*
X204114283Y-198750000D01*
X204114283Y-199107143D01*
X204042855Y-199392857D01*
X203971426Y-199535714D01*
X203899997Y-199607143D01*
X203757140Y-199678571D01*
X203614283Y-199678571D01*
X203471426Y-199607143D01*
X203399997Y-199535714D01*
X203328569Y-199392857D01*
X203257140Y-199107143D01*
X203257140Y-198750000D01*
X203328569Y-198464286D01*
X203399997Y-198321429D01*
X203471426Y-198250000D01*
X203614283Y-198178571D01*
D10*
D11*
X159400000Y-200400000D02*
X267400000Y-200400000D01*
D10*
D11*
X160757143Y-202478571D02*
X160757143Y-200978571D01*
X161614286Y-202478571D02*
X160971429Y-201621429D01*
X161614286Y-200978571D02*
X160757143Y-201835714D01*
X162257143Y-202478571D02*
X162257143Y-201478571D01*
X162257143Y-200978571D02*
X162185714Y-201050000D01*
X162257143Y-201121429D01*
X162328571Y-201050000D01*
X162257143Y-200978571D01*
X162257143Y-201121429D01*
X163828572Y-202335714D02*
X163757143Y-202407143D01*
X163542857Y-202478571D01*
X163400000Y-202478571D01*
X163185715Y-202407143D01*
X163042857Y-202264286D01*
X162971429Y-202121429D01*
X162900000Y-201835714D01*
X162900000Y-201621429D01*
X162971429Y-201335714D01*
X163042857Y-201192857D01*
X163185715Y-201050000D01*
X163400000Y-200978571D01*
X163542857Y-200978571D01*
X163757143Y-201050000D01*
X163828572Y-201121429D01*
X165114286Y-202478571D02*
X165114286Y-201692857D01*
X165042857Y-201550000D01*
X164900000Y-201478571D01*
X164614286Y-201478571D01*
X164471429Y-201550000D01*
X165114286Y-202407143D02*
X164971429Y-202478571D01*
X164614286Y-202478571D01*
X164471429Y-202407143D01*
X164400000Y-202264286D01*
X164400000Y-202121429D01*
X164471429Y-201978571D01*
X164614286Y-201907143D01*
X164971429Y-201907143D01*
X165114286Y-201835714D01*
X166471429Y-202478571D02*
X166471429Y-200978571D01*
X166471429Y-202407143D02*
X166328572Y-202478571D01*
X166042858Y-202478571D01*
X165900000Y-202407143D01*
X165828572Y-202335714D01*
X165757143Y-202192857D01*
X165757143Y-201764286D01*
X165828572Y-201621429D01*
X165900000Y-201550000D01*
X166042858Y-201478571D01*
X166328572Y-201478571D01*
X166471429Y-201550000D01*
X168328572Y-201692857D02*
X168828572Y-201692857D01*
X169042858Y-202478571D02*
X168328572Y-202478571D01*
X168328572Y-200978571D01*
X169042858Y-200978571D01*
X169685715Y-202335714D02*
X169757143Y-202407143D01*
X169685715Y-202478571D01*
X169614286Y-202407143D01*
X169685715Y-202335714D01*
X169685715Y-202478571D01*
X170400001Y-202478571D02*
X170400001Y-200978571D01*
X170757144Y-200978571D01*
X170971429Y-201050000D01*
X171114287Y-201192857D01*
X171185715Y-201335714D01*
X171257144Y-201621429D01*
X171257144Y-201835714D01*
X171185715Y-202121429D01*
X171114287Y-202264286D01*
X170971429Y-202407143D01*
X170757144Y-202478571D01*
X170400001Y-202478571D01*
X171900001Y-202335714D02*
X171971429Y-202407143D01*
X171900001Y-202478571D01*
X171828572Y-202407143D01*
X171900001Y-202335714D01*
X171900001Y-202478571D01*
X172542858Y-202050000D02*
X173257144Y-202050000D01*
X172400001Y-202478571D02*
X172900001Y-200978571D01*
X173400001Y-202478571D01*
X173900001Y-202335714D02*
X173971429Y-202407143D01*
X173900001Y-202478571D01*
X173828572Y-202407143D01*
X173900001Y-202335714D01*
X173900001Y-202478571D01*
X176900001Y-202478571D02*
X176900001Y-200978571D01*
X177042858Y-201907143D02*
X177471429Y-202478571D01*
X177471429Y-201478571D02*
X176900001Y-202050000D01*
X178114287Y-202478571D02*
X178114287Y-201478571D01*
X178114287Y-200978571D02*
X178042858Y-201050000D01*
X178114287Y-201121429D01*
X178185715Y-201050000D01*
X178114287Y-200978571D01*
X178114287Y-201121429D01*
X179471430Y-202407143D02*
X179328573Y-202478571D01*
X179042859Y-202478571D01*
X178900001Y-202407143D01*
X178828573Y-202335714D01*
X178757144Y-202192857D01*
X178757144Y-201764286D01*
X178828573Y-201621429D01*
X178900001Y-201550000D01*
X179042859Y-201478571D01*
X179328573Y-201478571D01*
X179471430Y-201550000D01*
X180757144Y-202478571D02*
X180757144Y-201692857D01*
X180685715Y-201550000D01*
X180542858Y-201478571D01*
X180257144Y-201478571D01*
X180114287Y-201550000D01*
X180757144Y-202407143D02*
X180614287Y-202478571D01*
X180257144Y-202478571D01*
X180114287Y-202407143D01*
X180042858Y-202264286D01*
X180042858Y-202121429D01*
X180114287Y-201978571D01*
X180257144Y-201907143D01*
X180614287Y-201907143D01*
X180757144Y-201835714D01*
X182114287Y-202478571D02*
X182114287Y-200978571D01*
X182114287Y-202407143D02*
X181971430Y-202478571D01*
X181685716Y-202478571D01*
X181542858Y-202407143D01*
X181471430Y-202335714D01*
X181400001Y-202192857D01*
X181400001Y-201764286D01*
X181471430Y-201621429D01*
X181542858Y-201550000D01*
X181685716Y-201478571D01*
X181971430Y-201478571D01*
X182114287Y-201550000D01*
X184614287Y-201478571D02*
X184614287Y-202478571D01*
X184257144Y-200907143D02*
X183900001Y-201978571D01*
X184828573Y-201978571D01*
X185400001Y-202335714D02*
X185471429Y-202407143D01*
X185400001Y-202478571D01*
X185328572Y-202407143D01*
X185400001Y-202335714D01*
X185400001Y-202478571D01*
X186400001Y-200978571D02*
X186542858Y-200978571D01*
X186685715Y-201050000D01*
X186757144Y-201121429D01*
X186828573Y-201264286D01*
X186900001Y-201550000D01*
X186900001Y-201907143D01*
X186828573Y-202192857D01*
X186757144Y-202335714D01*
X186685715Y-202407143D01*
X186542858Y-202478571D01*
X186400001Y-202478571D01*
X186257144Y-202407143D01*
X186185715Y-202335714D01*
X186114287Y-202192857D01*
X186042858Y-201907143D01*
X186042858Y-201550000D01*
X186114287Y-201264286D01*
X186185715Y-201121429D01*
X186257144Y-201050000D01*
X186400001Y-200978571D01*
X187542858Y-202335714D02*
X187614286Y-202407143D01*
X187542858Y-202478571D01*
X187471429Y-202407143D01*
X187542858Y-202335714D01*
X187542858Y-202478571D01*
X188114287Y-200978571D02*
X189114287Y-200978571D01*
X188471430Y-202478571D01*
D10*
D11*
X159400000Y-197400000D02*
X267400000Y-197400000D01*
D10*
D12*
X246614286Y-199678571D02*
X246114286Y-198964286D01*
X245757143Y-199678571D02*
X245757143Y-198178571D01*
X246328571Y-198178571D01*
X246471429Y-198250000D01*
X246542857Y-198321429D01*
X246614286Y-198464286D01*
X246614286Y-198678571D01*
X246542857Y-198821429D01*
X246471429Y-198892857D01*
X246328571Y-198964286D01*
X245757143Y-198964286D01*
X247828571Y-199607143D02*
X247685714Y-199678571D01*
X247400000Y-199678571D01*
X247257143Y-199607143D01*
X247185714Y-199464286D01*
X247185714Y-198892857D01*
X247257143Y-198750000D01*
X247400000Y-198678571D01*
X247685714Y-198678571D01*
X247828571Y-198750000D01*
X247900000Y-198892857D01*
X247900000Y-199035714D01*
X247185714Y-199178571D01*
X248400000Y-198678571D02*
X248757143Y-199678571D01*
X249114285Y-198678571D01*
X249685714Y-199535714D02*
X249757142Y-199607143D01*
X249685714Y-199678571D01*
X249614285Y-199607143D01*
X249685714Y-199535714D01*
X249685714Y-199678571D01*
X249685714Y-198750000D02*
X249757142Y-198821429D01*
X249685714Y-198892857D01*
X249614285Y-198821429D01*
X249685714Y-198750000D01*
X249685714Y-198892857D01*
X252328571Y-199678571D02*
X251471428Y-199678571D01*
X251900000Y-199678571D02*
X251900000Y-198178571D01*
X251757143Y-198392857D01*
X251614285Y-198535714D01*
X251471428Y-198607143D01*
X252971428Y-199535714D02*
X253042856Y-199607143D01*
X252971428Y-199678571D01*
X252899999Y-199607143D01*
X252971428Y-199535714D01*
X252971428Y-199678571D01*
X254471428Y-199678571D02*
X253614285Y-199678571D01*
X254042857Y-199678571D02*
X254042857Y-198178571D01*
X253900000Y-198392857D01*
X253757142Y-198535714D01*
X253614285Y-198607143D01*
D10*
D11*
X160685714Y-199607143D02*
X160900000Y-199678571D01*
X161257143Y-199678571D01*
X161400000Y-199607143D01*
X161471429Y-199535714D01*
X161542857Y-199392857D01*
X161542857Y-199250000D01*
X161471429Y-199107143D01*
X161400000Y-199035714D01*
X161257143Y-198964286D01*
X160971429Y-198892857D01*
X160828571Y-198821429D01*
X160757143Y-198750000D01*
X160685714Y-198607143D01*
X160685714Y-198464286D01*
X160757143Y-198321429D01*
X160828571Y-198250000D01*
X160971429Y-198178571D01*
X161328571Y-198178571D01*
X161542857Y-198250000D01*
X162185714Y-199678571D02*
X162185714Y-198678571D01*
X162185714Y-198178571D02*
X162114285Y-198250000D01*
X162185714Y-198321429D01*
X162257142Y-198250000D01*
X162185714Y-198178571D01*
X162185714Y-198321429D01*
X162757143Y-198678571D02*
X163542857Y-198678571D01*
X162757143Y-199678571D01*
X163542857Y-199678571D01*
X164685714Y-199607143D02*
X164542857Y-199678571D01*
X164257143Y-199678571D01*
X164114286Y-199607143D01*
X164042857Y-199464286D01*
X164042857Y-198892857D01*
X164114286Y-198750000D01*
X164257143Y-198678571D01*
X164542857Y-198678571D01*
X164685714Y-198750000D01*
X164757143Y-198892857D01*
X164757143Y-199035714D01*
X164042857Y-199178571D01*
X165400000Y-199535714D02*
X165471428Y-199607143D01*
X165400000Y-199678571D01*
X165328571Y-199607143D01*
X165400000Y-199535714D01*
X165400000Y-199678571D01*
X165400000Y-198750000D02*
X165471428Y-198821429D01*
X165400000Y-198892857D01*
X165328571Y-198821429D01*
X165400000Y-198750000D01*
X165400000Y-198892857D01*
X167185714Y-199250000D02*
X167900000Y-199250000D01*
X167042857Y-199678571D02*
X167542857Y-198178571D01*
X168042857Y-199678571D01*
D10*
D11*
X245757143Y-202478571D02*
X245757143Y-200978571D01*
X247114286Y-202478571D02*
X247114286Y-200978571D01*
X247114286Y-202407143D02*
X246971429Y-202478571D01*
X246685715Y-202478571D01*
X246542857Y-202407143D01*
X246471429Y-202335714D01*
X246400000Y-202192857D01*
X246400000Y-201764286D01*
X246471429Y-201621429D01*
X246542857Y-201550000D01*
X246685715Y-201478571D01*
X246971429Y-201478571D01*
X247114286Y-201550000D01*
X247828572Y-202335714D02*
X247900000Y-202407143D01*
X247828572Y-202478571D01*
X247757143Y-202407143D01*
X247828572Y-202335714D01*
X247828572Y-202478571D01*
X247828572Y-201550000D02*
X247900000Y-201621429D01*
X247828572Y-201692857D01*
X247757143Y-201621429D01*
X247828572Y-201550000D01*
X247828572Y-201692857D01*
X250471429Y-202478571D02*
X249614286Y-202478571D01*
X250042858Y-202478571D02*
X250042858Y-200978571D01*
X249900001Y-201192857D01*
X249757143Y-201335714D01*
X249614286Y-201407143D01*
X252185714Y-200907143D02*
X250900000Y-202835714D01*
X253471429Y-202478571D02*
X252614286Y-202478571D01*
X253042858Y-202478571D02*
X253042858Y-200978571D01*
X252900001Y-201192857D01*
X252757143Y-201335714D01*
X252614286Y-201407143D01*
D10*
D11*
X159400000Y-193400000D02*
X267400000Y-193400000D01*
D10*
D13*
X160852381Y-194104762D02*
X161995238Y-194104762D01*
X161173810Y-196104762D02*
X161423810Y-194104762D01*
X162411905Y-196104762D02*
X162578571Y-194771429D01*
X162661905Y-194104762D02*
X162554762Y-194200000D01*
X162638095Y-194295238D01*
X162745239Y-194200000D01*
X162661905Y-194104762D01*
X162638095Y-194295238D01*
X163245238Y-194771429D02*
X164007143Y-194771429D01*
X163614286Y-194104762D02*
X163400000Y-195819048D01*
X163471430Y-196009524D01*
X163650001Y-196104762D01*
X163840477Y-196104762D01*
X164792858Y-196104762D02*
X164614287Y-196009524D01*
X164542857Y-195819048D01*
X164757143Y-194104762D01*
X166328572Y-196009524D02*
X166126191Y-196104762D01*
X165745239Y-196104762D01*
X165566667Y-196009524D01*
X165495238Y-195819048D01*
X165590476Y-195057143D01*
X165709524Y-194866667D01*
X165911905Y-194771429D01*
X166292857Y-194771429D01*
X166471429Y-194866667D01*
X166542857Y-195057143D01*
X166519048Y-195247619D01*
X165542857Y-195438095D01*
X167292857Y-195914286D02*
X167376192Y-196009524D01*
X167269048Y-196104762D01*
X167185715Y-196009524D01*
X167292857Y-195914286D01*
X167269048Y-196104762D01*
X167423810Y-194866667D02*
X167507144Y-194961905D01*
X167400000Y-195057143D01*
X167316667Y-194961905D01*
X167423810Y-194866667D01*
X167400000Y-195057143D01*
X169661906Y-196009524D02*
X169935716Y-196104762D01*
X170411906Y-196104762D01*
X170614287Y-196009524D01*
X170721429Y-195914286D01*
X170840478Y-195723810D01*
X170864287Y-195533333D01*
X170792858Y-195342857D01*
X170709525Y-195247619D01*
X170530953Y-195152381D01*
X170161906Y-195057143D01*
X169983335Y-194961905D01*
X169900001Y-194866667D01*
X169828572Y-194676190D01*
X169852382Y-194485714D01*
X169971429Y-194295238D01*
X170078573Y-194200000D01*
X170280954Y-194104762D01*
X170757144Y-194104762D01*
X171030954Y-194200000D01*
X171650001Y-196104762D02*
X171900001Y-194104762D01*
X172507144Y-196104762D02*
X172638096Y-195057143D01*
X172566668Y-194866667D01*
X172388096Y-194771429D01*
X172102382Y-194771429D01*
X171900002Y-194866667D01*
X171792858Y-194961905D01*
X174483334Y-194771429D02*
X174316668Y-196104762D01*
X173626191Y-194771429D02*
X173495239Y-195819048D01*
X173566669Y-196009524D01*
X173745240Y-196104762D01*
X174030954Y-196104762D01*
X174233335Y-196009524D01*
X174340477Y-195914286D01*
X175150001Y-194771429D02*
X175911906Y-194771429D01*
X175519049Y-194104762D02*
X175304763Y-195819048D01*
X175376193Y-196009524D01*
X175554764Y-196104762D01*
X175745240Y-196104762D01*
X176292858Y-194771429D02*
X177054763Y-194771429D01*
X176661906Y-194104762D02*
X176447620Y-195819048D01*
X176519050Y-196009524D01*
X176697621Y-196104762D01*
X176888097Y-196104762D01*
X178328573Y-196009524D02*
X178126192Y-196104762D01*
X177745240Y-196104762D01*
X177566668Y-196009524D01*
X177495239Y-195819048D01*
X177590477Y-195057143D01*
X177709525Y-194866667D01*
X177911906Y-194771429D01*
X178292858Y-194771429D01*
X178471430Y-194866667D01*
X178542858Y-195057143D01*
X178519049Y-195247619D01*
X177542858Y-195438095D01*
X179269049Y-196104762D02*
X179435715Y-194771429D01*
X179388096Y-195152381D02*
X179507145Y-194961905D01*
X179614288Y-194866667D01*
X179816668Y-194771429D01*
X180007144Y-194771429D01*
X182030954Y-196104762D02*
X182280954Y-194104762D01*
X182757145Y-194104762D01*
X183030954Y-194200000D01*
X183197621Y-194390476D01*
X183269050Y-194580952D01*
X183316669Y-194961905D01*
X183280955Y-195247619D01*
X183138098Y-195628571D01*
X183019049Y-195819048D01*
X182804764Y-196009524D01*
X182507145Y-196104762D01*
X182030954Y-196104762D01*
X184030954Y-196104762D02*
X184197620Y-194771429D01*
X184150001Y-195152381D02*
X184269050Y-194961905D01*
X184376193Y-194866667D01*
X184578573Y-194771429D01*
X184769049Y-194771429D01*
X185269049Y-196104762D02*
X185435715Y-194771429D01*
X185519049Y-194104762D02*
X185411906Y-194200000D01*
X185495239Y-194295238D01*
X185602383Y-194200000D01*
X185519049Y-194104762D01*
X185495239Y-194295238D01*
X186197620Y-194771429D02*
X186507145Y-196104762D01*
X187150001Y-194771429D01*
X188519050Y-196009524D02*
X188316669Y-196104762D01*
X187935717Y-196104762D01*
X187757145Y-196009524D01*
X187685716Y-195819048D01*
X187780954Y-195057143D01*
X187900002Y-194866667D01*
X188102383Y-194771429D01*
X188483335Y-194771429D01*
X188661907Y-194866667D01*
X188733335Y-195057143D01*
X188709526Y-195247619D01*
X187733335Y-195438095D01*
X189459526Y-196104762D02*
X189626192Y-194771429D01*
X189578573Y-195152381D02*
X189697622Y-194961905D01*
X189804765Y-194866667D01*
X190007145Y-194771429D01*
X190197621Y-194771429D01*
D10*
D11*
X161257143Y-191492857D02*
X160757143Y-191492857D01*
X160757143Y-192278571D02*
X160757143Y-190778571D01*
X161471429Y-190778571D01*
X162042857Y-192278571D02*
X162042857Y-191278571D01*
X162042857Y-190778571D02*
X161971428Y-190850000D01*
X162042857Y-190921429D01*
X162114285Y-190850000D01*
X162042857Y-190778571D01*
X162042857Y-190921429D01*
X162971429Y-192278571D02*
X162828571Y-192207143D01*
X162757143Y-192064286D01*
X162757143Y-190778571D01*
X164114285Y-192207143D02*
X163971428Y-192278571D01*
X163685714Y-192278571D01*
X163542857Y-192207143D01*
X163471428Y-192064286D01*
X163471428Y-191492857D01*
X163542857Y-191350000D01*
X163685714Y-191278571D01*
X163971428Y-191278571D01*
X164114285Y-191350000D01*
X164185714Y-191492857D01*
X164185714Y-191635714D01*
X163471428Y-191778571D01*
X164828571Y-192135714D02*
X164899999Y-192207143D01*
X164828571Y-192278571D01*
X164757142Y-192207143D01*
X164828571Y-192135714D01*
X164828571Y-192278571D01*
X164828571Y-191350000D02*
X164899999Y-191421429D01*
X164828571Y-191492857D01*
X164757142Y-191421429D01*
X164828571Y-191350000D01*
X164828571Y-191492857D01*
X166614285Y-192207143D02*
X166828571Y-192278571D01*
X167185714Y-192278571D01*
X167328571Y-192207143D01*
X167400000Y-192135714D01*
X167471428Y-191992857D01*
X167471428Y-191850000D01*
X167400000Y-191707143D01*
X167328571Y-191635714D01*
X167185714Y-191564286D01*
X166900000Y-191492857D01*
X166757142Y-191421429D01*
X166685714Y-191350000D01*
X166614285Y-191207143D01*
X166614285Y-191064286D01*
X166685714Y-190921429D01*
X166757142Y-190850000D01*
X166900000Y-190778571D01*
X167257142Y-190778571D01*
X167471428Y-190850000D01*
X168114285Y-192278571D02*
X168114285Y-190778571D01*
X168757142Y-192278571D02*
X168757142Y-191492857D01*
X168685713Y-191350000D01*
X168542856Y-191278571D01*
X168328571Y-191278571D01*
X168185713Y-191350000D01*
X168114285Y-191421429D01*
X170114285Y-191278571D02*
X170114285Y-192278571D01*
X169471428Y-191278571D02*
X169471428Y-192064286D01*
X169542856Y-192207143D01*
X169685714Y-192278571D01*
X169899999Y-192278571D01*
X170042856Y-192207143D01*
X170114285Y-192135714D01*
X170614285Y-191278571D02*
X171185714Y-191278571D01*
X170828571Y-190778571D02*
X170828571Y-192064286D01*
X170899999Y-192207143D01*
X171042857Y-192278571D01*
X171185714Y-192278571D01*
X171471428Y-191278571D02*
X172042857Y-191278571D01*
X171685714Y-190778571D02*
X171685714Y-192064286D01*
X171757142Y-192207143D01*
X171900000Y-192278571D01*
X172042857Y-192278571D01*
X173114285Y-192207143D02*
X172971428Y-192278571D01*
X172685714Y-192278571D01*
X172542857Y-192207143D01*
X172471428Y-192064286D01*
X172471428Y-191492857D01*
X172542857Y-191350000D01*
X172685714Y-191278571D01*
X172971428Y-191278571D01*
X173114285Y-191350000D01*
X173185714Y-191492857D01*
X173185714Y-191635714D01*
X172471428Y-191778571D01*
X173828571Y-192278571D02*
X173828571Y-191278571D01*
X173828571Y-191564286D02*
X173899999Y-191421429D01*
X173971428Y-191350000D01*
X174114285Y-191278571D01*
X174257142Y-191278571D01*
X174399999Y-192421429D02*
X175542856Y-192421429D01*
X175899999Y-192278571D02*
X175899999Y-190778571D01*
X176257142Y-190778571D01*
X176471427Y-190850000D01*
X176614285Y-190992857D01*
X176685713Y-191135714D01*
X176757142Y-191421429D01*
X176757142Y-191635714D01*
X176685713Y-191921429D01*
X176614285Y-192064286D01*
X176471427Y-192207143D01*
X176257142Y-192278571D01*
X175899999Y-192278571D01*
X177399999Y-192278571D02*
X177399999Y-191278571D01*
X177399999Y-191564286D02*
X177471427Y-191421429D01*
X177542856Y-191350000D01*
X177685713Y-191278571D01*
X177828570Y-191278571D01*
X178328570Y-192278571D02*
X178328570Y-191278571D01*
X178328570Y-190778571D02*
X178257141Y-190850000D01*
X178328570Y-190921429D01*
X178399998Y-190850000D01*
X178328570Y-190778571D01*
X178328570Y-190921429D01*
X178899999Y-191278571D02*
X179257142Y-192278571D01*
X179614284Y-191278571D01*
X180757141Y-192207143D02*
X180614284Y-192278571D01*
X180328570Y-192278571D01*
X180185713Y-192207143D01*
X180114284Y-192064286D01*
X180114284Y-191492857D01*
X180185713Y-191350000D01*
X180328570Y-191278571D01*
X180614284Y-191278571D01*
X180757141Y-191350000D01*
X180828570Y-191492857D01*
X180828570Y-191635714D01*
X180114284Y-191778571D01*
X181471427Y-192278571D02*
X181471427Y-191278571D01*
X181471427Y-191564286D02*
X181542855Y-191421429D01*
X181614284Y-191350000D01*
X181757141Y-191278571D01*
X181899998Y-191278571D01*
X182399998Y-192135714D02*
X182471426Y-192207143D01*
X182399998Y-192278571D01*
X182328569Y-192207143D01*
X182399998Y-192135714D01*
X182399998Y-192278571D01*
X183114284Y-192278571D02*
X183114284Y-190778571D01*
X183257141Y-191707143D02*
X183685712Y-192278571D01*
X183685712Y-191278571D02*
X183114284Y-191850000D01*
X184328570Y-192278571D02*
X184328570Y-191278571D01*
X184328570Y-190778571D02*
X184257141Y-190850000D01*
X184328570Y-190921429D01*
X184399998Y-190850000D01*
X184328570Y-190778571D01*
X184328570Y-190921429D01*
X185685713Y-192207143D02*
X185542856Y-192278571D01*
X185257142Y-192278571D01*
X185114284Y-192207143D01*
X185042856Y-192135714D01*
X184971427Y-191992857D01*
X184971427Y-191564286D01*
X185042856Y-191421429D01*
X185114284Y-191350000D01*
X185257142Y-191278571D01*
X185542856Y-191278571D01*
X185685713Y-191350000D01*
X186971427Y-192278571D02*
X186971427Y-191492857D01*
X186899998Y-191350000D01*
X186757141Y-191278571D01*
X186471427Y-191278571D01*
X186328570Y-191350000D01*
X186971427Y-192207143D02*
X186828570Y-192278571D01*
X186471427Y-192278571D01*
X186328570Y-192207143D01*
X186257141Y-192064286D01*
X186257141Y-191921429D01*
X186328570Y-191778571D01*
X186471427Y-191707143D01*
X186828570Y-191707143D01*
X186971427Y-191635714D01*
X188328570Y-192278571D02*
X188328570Y-190778571D01*
X188328570Y-192207143D02*
X188185713Y-192278571D01*
X187899999Y-192278571D01*
X187757141Y-192207143D01*
X187685713Y-192135714D01*
X187614284Y-191992857D01*
X187614284Y-191564286D01*
X187685713Y-191421429D01*
X187757141Y-191350000D01*
X187899999Y-191278571D01*
X188185713Y-191278571D01*
X188328570Y-191350000D01*
X188685713Y-192421429D02*
X189828570Y-192421429D01*
X190185713Y-191278571D02*
X190185713Y-192778571D01*
X190185713Y-191350000D02*
X190328570Y-191278571D01*
X190614284Y-191278571D01*
X190757141Y-191350000D01*
X190828570Y-191421429D01*
X190899999Y-191564286D01*
X190899999Y-191992857D01*
X190828570Y-192135714D01*
X190757141Y-192207143D01*
X190614284Y-192278571D01*
X190328570Y-192278571D01*
X190185713Y-192207143D01*
X192185713Y-192207143D02*
X192042856Y-192278571D01*
X191757142Y-192278571D01*
X191614284Y-192207143D01*
X191542856Y-192135714D01*
X191471427Y-191992857D01*
X191471427Y-191564286D01*
X191542856Y-191421429D01*
X191614284Y-191350000D01*
X191757142Y-191278571D01*
X192042856Y-191278571D01*
X192185713Y-191350000D01*
X192828570Y-192278571D02*
X192828570Y-190778571D01*
X192828570Y-191350000D02*
X192971427Y-191278571D01*
X193257141Y-191278571D01*
X193399998Y-191350000D01*
X193471427Y-191421429D01*
X193542856Y-191564286D01*
X193542856Y-191992857D01*
X193471427Y-192135714D01*
X193399998Y-192207143D01*
X193257141Y-192278571D01*
X192971427Y-192278571D01*
X192828570Y-192207143D01*
D10*
D11*
X159400000Y-187400000D02*
X267400000Y-187400000D01*
D10*
D11*
X160685714Y-189507143D02*
X160900000Y-189578571D01*
X161257143Y-189578571D01*
X161400000Y-189507143D01*
X161471429Y-189435714D01*
X161542857Y-189292857D01*
X161542857Y-189150000D01*
X161471429Y-189007143D01*
X161400000Y-188935714D01*
X161257143Y-188864286D01*
X160971429Y-188792857D01*
X160828571Y-188721429D01*
X160757143Y-188650000D01*
X160685714Y-188507143D01*
X160685714Y-188364286D01*
X160757143Y-188221429D01*
X160828571Y-188150000D01*
X160971429Y-188078571D01*
X161328571Y-188078571D01*
X161542857Y-188150000D01*
X162185714Y-189578571D02*
X162185714Y-188078571D01*
X162828571Y-189578571D02*
X162828571Y-188792857D01*
X162757142Y-188650000D01*
X162614285Y-188578571D01*
X162400000Y-188578571D01*
X162257142Y-188650000D01*
X162185714Y-188721429D01*
X164114285Y-189507143D02*
X163971428Y-189578571D01*
X163685714Y-189578571D01*
X163542857Y-189507143D01*
X163471428Y-189364286D01*
X163471428Y-188792857D01*
X163542857Y-188650000D01*
X163685714Y-188578571D01*
X163971428Y-188578571D01*
X164114285Y-188650000D01*
X164185714Y-188792857D01*
X164185714Y-188935714D01*
X163471428Y-189078571D01*
X165399999Y-189507143D02*
X165257142Y-189578571D01*
X164971428Y-189578571D01*
X164828571Y-189507143D01*
X164757142Y-189364286D01*
X164757142Y-188792857D01*
X164828571Y-188650000D01*
X164971428Y-188578571D01*
X165257142Y-188578571D01*
X165399999Y-188650000D01*
X165471428Y-188792857D01*
X165471428Y-188935714D01*
X164757142Y-189078571D01*
X165899999Y-188578571D02*
X166471428Y-188578571D01*
X166114285Y-188078571D02*
X166114285Y-189364286D01*
X166185713Y-189507143D01*
X166328571Y-189578571D01*
X166471428Y-189578571D01*
X166971428Y-189435714D02*
X167042856Y-189507143D01*
X166971428Y-189578571D01*
X166899999Y-189507143D01*
X166971428Y-189435714D01*
X166971428Y-189578571D01*
X166971428Y-188650000D02*
X167042856Y-188721429D01*
X166971428Y-188792857D01*
X166899999Y-188721429D01*
X166971428Y-188650000D01*
X166971428Y-188792857D01*
D10*
D12*
X161614286Y-186578571D02*
X161114286Y-185864286D01*
X160757143Y-186578571D02*
X160757143Y-185078571D01*
X161328571Y-185078571D01*
X161471429Y-185150000D01*
X161542857Y-185221429D01*
X161614286Y-185364286D01*
X161614286Y-185578571D01*
X161542857Y-185721429D01*
X161471429Y-185792857D01*
X161328571Y-185864286D01*
X160757143Y-185864286D01*
X162257143Y-186578571D02*
X162257143Y-185578571D01*
X162257143Y-185078571D02*
X162185714Y-185150000D01*
X162257143Y-185221429D01*
X162328571Y-185150000D01*
X162257143Y-185078571D01*
X162257143Y-185221429D01*
X163614286Y-186507143D02*
X163471429Y-186578571D01*
X163185715Y-186578571D01*
X163042857Y-186507143D01*
X162971429Y-186435714D01*
X162900000Y-186292857D01*
X162900000Y-185864286D01*
X162971429Y-185721429D01*
X163042857Y-185650000D01*
X163185715Y-185578571D01*
X163471429Y-185578571D01*
X163614286Y-185650000D01*
X164828571Y-186507143D02*
X164685714Y-186578571D01*
X164400000Y-186578571D01*
X164257143Y-186507143D01*
X164185714Y-186364286D01*
X164185714Y-185792857D01*
X164257143Y-185650000D01*
X164400000Y-185578571D01*
X164685714Y-185578571D01*
X164828571Y-185650000D01*
X164900000Y-185792857D01*
X164900000Y-185935714D01*
X164185714Y-186078571D01*
X166685714Y-185078571D02*
X166685714Y-186292857D01*
X166757142Y-186435714D01*
X166828571Y-186507143D01*
X166971428Y-186578571D01*
X167257142Y-186578571D01*
X167400000Y-186507143D01*
X167471428Y-186435714D01*
X167542857Y-186292857D01*
X167542857Y-185078571D01*
X168257143Y-185578571D02*
X168257143Y-186578571D01*
X168257143Y-185721429D02*
X168328571Y-185650000D01*
X168471429Y-185578571D01*
X168685714Y-185578571D01*
X168828571Y-185650000D01*
X168900000Y-185792857D01*
X168900000Y-186578571D01*
X169614286Y-186578571D02*
X169614286Y-185578571D01*
X169614286Y-185078571D02*
X169542857Y-185150000D01*
X169614286Y-185221429D01*
X169685714Y-185150000D01*
X169614286Y-185078571D01*
X169614286Y-185221429D01*
X170185715Y-185578571D02*
X170542858Y-186578571D01*
X170900000Y-185578571D01*
X172042857Y-186507143D02*
X171900000Y-186578571D01*
X171614286Y-186578571D01*
X171471429Y-186507143D01*
X171400000Y-186364286D01*
X171400000Y-185792857D01*
X171471429Y-185650000D01*
X171614286Y-185578571D01*
X171900000Y-185578571D01*
X172042857Y-185650000D01*
X172114286Y-185792857D01*
X172114286Y-185935714D01*
X171400000Y-186078571D01*
X172757143Y-186578571D02*
X172757143Y-185578571D01*
X172757143Y-185864286D02*
X172828571Y-185721429D01*
X172900000Y-185650000D01*
X173042857Y-185578571D01*
X173185714Y-185578571D01*
X173614285Y-186507143D02*
X173757142Y-186578571D01*
X174042857Y-186578571D01*
X174185714Y-186507143D01*
X174257142Y-186364286D01*
X174257142Y-186292857D01*
X174185714Y-186150000D01*
X174042857Y-186078571D01*
X173828571Y-186078571D01*
X173685714Y-186007143D01*
X173614285Y-185864286D01*
X173614285Y-185792857D01*
X173685714Y-185650000D01*
X173828571Y-185578571D01*
X174042857Y-185578571D01*
X174185714Y-185650000D01*
X174900000Y-186578571D02*
X174900000Y-185578571D01*
X174900000Y-185078571D02*
X174828571Y-185150000D01*
X174900000Y-185221429D01*
X174971428Y-185150000D01*
X174900000Y-185078571D01*
X174900000Y-185221429D01*
X175400000Y-185578571D02*
X175971429Y-185578571D01*
X175614286Y-185078571D02*
X175614286Y-186364286D01*
X175685714Y-186507143D01*
X175828572Y-186578571D01*
X175971429Y-186578571D01*
X176328572Y-185578571D02*
X176685715Y-186578571D01*
X177042857Y-185578571D02*
X176685715Y-186578571D01*
X176542857Y-186935714D01*
X176471429Y-187007143D01*
X176328572Y-187078571D01*
D10*
D11*
X179400000Y-197400000D02*
X179400000Y-200400000D01*
D10*
D11*
X243400000Y-197400000D02*
X243400000Y-203900000D01*
D14*
X92710000Y-107950000D03*
X95250000Y-107950000D03*
X137160000Y-107950000D03*
X139700000Y-107950000D03*
D15*
X144780000Y-67310000D03*
D16*
X144780000Y-64770000D03*
X147320000Y-67310000D03*
X147320000Y-64770000D03*
X149860000Y-67310000D03*
X149860000Y-64770000D03*
X152400000Y-67310000D03*
X152400000Y-64770000D03*
D15*
X129540000Y-67310000D03*
D16*
X129540000Y-64770000D03*
X132080000Y-67310000D03*
X132080000Y-64770000D03*
X134620000Y-67310000D03*
X134620000Y-64770000D03*
X137160000Y-67310000D03*
X137160000Y-64770000D03*
D17*
X131191000Y-92710000D03*
X132892800Y-87630000D03*
X134594600Y-92710000D03*
X136296400Y-87630000D03*
X137998200Y-92710000D03*
X139700000Y-87630000D03*
X141401800Y-92710000D03*
X143103600Y-87630000D03*
X144805400Y-92710000D03*
X146507200Y-87630000D03*
X148209000Y-92710000D03*
D18*
X91440000Y-53340000D03*
X101600000Y-53340000D03*
D19*
X96520000Y-58420000D03*
X93980000Y-58420000D03*
D18*
X142240000Y-53340000D03*
X152400000Y-53340000D03*
D19*
X147320000Y-58420000D03*
X144780000Y-58420000D03*
D20*
X100330000Y-71120000D03*
X100330000Y-66120000D03*
X104140000Y-85090000D03*
X104140000Y-80090000D03*
X127000000Y-87630000D03*
X127000000Y-92630000D03*
X152400000Y-87630000D03*
X152400000Y-92630000D03*
D21*
X114300000Y-62230000D03*
D22*
X114300000Y-69730000D03*
D23*
X95250000Y-99060000D03*
D20*
X93250000Y-99060000D03*
D21*
X114300000Y-97790000D03*
D22*
X114300000Y-105290000D03*
D24*
X149860000Y-97790000D03*
D25*
X149860000Y-107950000D03*
D24*
X100330000Y-97790000D03*
D25*
X100330000Y-107950000D03*
D24*
X132080000Y-97790000D03*
D25*
X132080000Y-107950000D03*
D15*
X127000000Y-105410000D03*
D16*
X127000000Y-107950000D03*
D20*
X96520000Y-73660000D03*
D26*
X96520000Y-63500000D03*
D20*
X93980000Y-90170000D03*
D26*
X104140000Y-90170000D03*
D22*
X106680000Y-50800000D03*
D27*
X137160000Y-50800000D03*
D20*
X144780000Y-97790000D03*
D26*
X144780000Y-107950000D03*
D20*
X143510000Y-80010000D03*
D26*
X133350000Y-80010000D03*
D28*
X99060000Y-77470000D03*
D29*
X91440000Y-85090000D03*
X96520000Y-77470000D03*
X93980000Y-85090000D03*
X93980000Y-77470000D03*
X96520000Y-85090000D03*
X91440000Y-77470000D03*
X99060000Y-85090000D03*
D30*
X110490000Y-80010000D03*
D31*
X118110000Y-87630000D03*
X110490000Y-82550000D03*
X118110000Y-85090000D03*
X110490000Y-85090000D03*
X118110000Y-82550000D03*
X110490000Y-87630000D03*
X118110000Y-80010000D03*
D20*
X104140000Y-93980000D03*
D26*
X93980000Y-93980000D03*
M02*
