%TF.GenerationSoftware,KiCad,Pcbnew,4.0.7*%
%TF.CreationDate,2018-02-11T16:58:38-06:00*%
%TF.ProjectId,Shutter_Driver,536875747465725F4472697665722E6B,1.1*%
%TF.FileFunction,Copper,L2,Bot,Signal*%
%FSLAX46Y46*%
G04 Gerber Fmt 4.6, Leading zero omitted, Abs format (unit mm)*
G04 Created by KiCad (PCBNEW 4.0.7) date 02/11/18 16:58:38*
%MOMM*%
%LPD*%
G01*
G04 APERTURE LIST*
%ADD10C,0.100000*%
%ADD11C,0.150000*%
%ADD12C,0.300000*%
%ADD13C,0.400000*%
%ADD14O,1.800860X3.500120*%
%ADD15R,1.700000X1.700000*%
%ADD16O,1.700000X1.700000*%
%ADD17O,1.778000X3.048000*%
%ADD18C,3.500120*%
%ADD19O,1.600200X2.499360*%
%ADD20C,1.600000*%
%ADD21R,2.400000X2.400000*%
%ADD22C,2.400000*%
%ADD23R,1.600000X1.600000*%
%ADD24R,2.200000X2.200000*%
%ADD25O,2.200000X2.200000*%
%ADD26O,1.600000X1.600000*%
%ADD27O,2.400000X2.400000*%
%ADD28R,1.600000X2.400000*%
%ADD29O,1.600000X2.400000*%
%ADD30R,2.400000X1.600000*%
%ADD31O,2.400000X1.600000*%
%ADD32C,1.500000*%
%ADD33C,1.000000*%
%ADD34C,0.254000*%
G04 APERTURE END LIST*
D10*
D11*
X159400000Y-171900000D02*
X159400000Y-203900000D01*
X267400000Y-203900000D01*
X267400000Y-171900000D01*
X159400000Y-171900000D01*
D10*
D11*
X10000000Y-10000000D02*
X10000000Y-205900000D01*
X269400000Y-205900000D01*
X269400000Y-10000000D01*
X10000000Y-10000000D01*
D10*
D11*
X12000000Y-12000000D02*
X12000000Y-203900000D01*
X267400000Y-203900000D01*
X267400000Y-12000000D01*
X12000000Y-12000000D01*
D10*
D11*
X60000000Y-12000000D02*
X60000000Y-10000000D01*
D10*
D11*
X110000000Y-12000000D02*
X110000000Y-10000000D01*
D10*
D11*
X160000000Y-12000000D02*
X160000000Y-10000000D01*
D10*
D11*
X210000000Y-12000000D02*
X210000000Y-10000000D01*
D10*
D11*
X260000000Y-12000000D02*
X260000000Y-10000000D01*
D10*
D11*
X35990476Y-11588095D02*
X35247619Y-11588095D01*
X35619048Y-11588095D02*
X35619048Y-10288095D01*
X35495238Y-10473810D01*
X35371429Y-10597619D01*
X35247619Y-10659524D01*
D10*
D11*
X85247619Y-10411905D02*
X85309524Y-10350000D01*
X85433333Y-10288095D01*
X85742857Y-10288095D01*
X85866667Y-10350000D01*
X85928571Y-10411905D01*
X85990476Y-10535714D01*
X85990476Y-10659524D01*
X85928571Y-10845238D01*
X85185714Y-11588095D01*
X85990476Y-11588095D01*
D10*
D11*
X135185714Y-10288095D02*
X135990476Y-10288095D01*
X135557143Y-10783333D01*
X135742857Y-10783333D01*
X135866667Y-10845238D01*
X135928571Y-10907143D01*
X135990476Y-11030952D01*
X135990476Y-11340476D01*
X135928571Y-11464286D01*
X135866667Y-11526190D01*
X135742857Y-11588095D01*
X135371429Y-11588095D01*
X135247619Y-11526190D01*
X135185714Y-11464286D01*
D10*
D11*
X185866667Y-10721429D02*
X185866667Y-11588095D01*
X185557143Y-10226190D02*
X185247619Y-11154762D01*
X186052381Y-11154762D01*
D10*
D11*
X235928571Y-10288095D02*
X235309524Y-10288095D01*
X235247619Y-10907143D01*
X235309524Y-10845238D01*
X235433333Y-10783333D01*
X235742857Y-10783333D01*
X235866667Y-10845238D01*
X235928571Y-10907143D01*
X235990476Y-11030952D01*
X235990476Y-11340476D01*
X235928571Y-11464286D01*
X235866667Y-11526190D01*
X235742857Y-11588095D01*
X235433333Y-11588095D01*
X235309524Y-11526190D01*
X235247619Y-11464286D01*
D10*
D11*
X60000000Y-203900000D02*
X60000000Y-205900000D01*
D10*
D11*
X110000000Y-203900000D02*
X110000000Y-205900000D01*
D10*
D11*
X160000000Y-203900000D02*
X160000000Y-205900000D01*
D10*
D11*
X210000000Y-203900000D02*
X210000000Y-205900000D01*
D10*
D11*
X260000000Y-203900000D02*
X260000000Y-205900000D01*
D10*
D11*
X35990476Y-205488095D02*
X35247619Y-205488095D01*
X35619048Y-205488095D02*
X35619048Y-204188095D01*
X35495238Y-204373810D01*
X35371429Y-204497619D01*
X35247619Y-204559524D01*
D10*
D11*
X85247619Y-204311905D02*
X85309524Y-204250000D01*
X85433333Y-204188095D01*
X85742857Y-204188095D01*
X85866667Y-204250000D01*
X85928571Y-204311905D01*
X85990476Y-204435714D01*
X85990476Y-204559524D01*
X85928571Y-204745238D01*
X85185714Y-205488095D01*
X85990476Y-205488095D01*
D10*
D11*
X135185714Y-204188095D02*
X135990476Y-204188095D01*
X135557143Y-204683333D01*
X135742857Y-204683333D01*
X135866667Y-204745238D01*
X135928571Y-204807143D01*
X135990476Y-204930952D01*
X135990476Y-205240476D01*
X135928571Y-205364286D01*
X135866667Y-205426190D01*
X135742857Y-205488095D01*
X135371429Y-205488095D01*
X135247619Y-205426190D01*
X135185714Y-205364286D01*
D10*
D11*
X185866667Y-204621429D02*
X185866667Y-205488095D01*
X185557143Y-204126190D02*
X185247619Y-205054762D01*
X186052381Y-205054762D01*
D10*
D11*
X235928571Y-204188095D02*
X235309524Y-204188095D01*
X235247619Y-204807143D01*
X235309524Y-204745238D01*
X235433333Y-204683333D01*
X235742857Y-204683333D01*
X235866667Y-204745238D01*
X235928571Y-204807143D01*
X235990476Y-204930952D01*
X235990476Y-205240476D01*
X235928571Y-205364286D01*
X235866667Y-205426190D01*
X235742857Y-205488095D01*
X235433333Y-205488095D01*
X235309524Y-205426190D01*
X235247619Y-205364286D01*
D10*
D11*
X10000000Y-60000000D02*
X12000000Y-60000000D01*
D10*
D11*
X10000000Y-110000000D02*
X12000000Y-110000000D01*
D10*
D11*
X10000000Y-160000000D02*
X12000000Y-160000000D01*
D10*
D11*
X10690476Y-35216667D02*
X11309524Y-35216667D01*
X10566667Y-35588095D02*
X11000000Y-34288095D01*
X11433333Y-35588095D01*
D10*
D11*
X11092857Y-84907143D02*
X11278571Y-84969048D01*
X11340476Y-85030952D01*
X11402381Y-85154762D01*
X11402381Y-85340476D01*
X11340476Y-85464286D01*
X11278571Y-85526190D01*
X11154762Y-85588095D01*
X10659524Y-85588095D01*
X10659524Y-84288095D01*
X11092857Y-84288095D01*
X11216667Y-84350000D01*
X11278571Y-84411905D01*
X11340476Y-84535714D01*
X11340476Y-84659524D01*
X11278571Y-84783333D01*
X11216667Y-84845238D01*
X11092857Y-84907143D01*
X10659524Y-84907143D01*
D10*
D11*
X11402381Y-135464286D02*
X11340476Y-135526190D01*
X11154762Y-135588095D01*
X11030952Y-135588095D01*
X10845238Y-135526190D01*
X10721429Y-135402381D01*
X10659524Y-135278571D01*
X10597619Y-135030952D01*
X10597619Y-134845238D01*
X10659524Y-134597619D01*
X10721429Y-134473810D01*
X10845238Y-134350000D01*
X11030952Y-134288095D01*
X11154762Y-134288095D01*
X11340476Y-134350000D01*
X11402381Y-134411905D01*
D10*
D11*
X10659524Y-185588095D02*
X10659524Y-184288095D01*
X10969048Y-184288095D01*
X11154762Y-184350000D01*
X11278571Y-184473810D01*
X11340476Y-184597619D01*
X11402381Y-184845238D01*
X11402381Y-185030952D01*
X11340476Y-185278571D01*
X11278571Y-185402381D01*
X11154762Y-185526190D01*
X10969048Y-185588095D01*
X10659524Y-185588095D01*
D10*
D11*
X269400000Y-60000000D02*
X267400000Y-60000000D01*
D10*
D11*
X269400000Y-110000000D02*
X267400000Y-110000000D01*
D10*
D11*
X269400000Y-160000000D02*
X267400000Y-160000000D01*
D10*
D11*
X268090476Y-35216667D02*
X268709524Y-35216667D01*
X267966667Y-35588095D02*
X268400000Y-34288095D01*
X268833333Y-35588095D01*
D10*
D11*
X268492857Y-84907143D02*
X268678571Y-84969048D01*
X268740476Y-85030952D01*
X268802381Y-85154762D01*
X268802381Y-85340476D01*
X268740476Y-85464286D01*
X268678571Y-85526190D01*
X268554762Y-85588095D01*
X268059524Y-85588095D01*
X268059524Y-84288095D01*
X268492857Y-84288095D01*
X268616667Y-84350000D01*
X268678571Y-84411905D01*
X268740476Y-84535714D01*
X268740476Y-84659524D01*
X268678571Y-84783333D01*
X268616667Y-84845238D01*
X268492857Y-84907143D01*
X268059524Y-84907143D01*
D10*
D11*
X268802381Y-135464286D02*
X268740476Y-135526190D01*
X268554762Y-135588095D01*
X268430952Y-135588095D01*
X268245238Y-135526190D01*
X268121429Y-135402381D01*
X268059524Y-135278571D01*
X267997619Y-135030952D01*
X267997619Y-134845238D01*
X268059524Y-134597619D01*
X268121429Y-134473810D01*
X268245238Y-134350000D01*
X268430952Y-134288095D01*
X268554762Y-134288095D01*
X268740476Y-134350000D01*
X268802381Y-134411905D01*
D10*
D11*
X268059524Y-185588095D02*
X268059524Y-184288095D01*
X268369048Y-184288095D01*
X268554762Y-184350000D01*
X268678571Y-184473810D01*
X268740476Y-184597619D01*
X268802381Y-184845238D01*
X268802381Y-185030952D01*
X268740476Y-185278571D01*
X268678571Y-185402381D01*
X268554762Y-185526190D01*
X268369048Y-185588095D01*
X268059524Y-185588095D01*
D10*
D11*
X182757143Y-199678571D02*
X182757143Y-198178571D01*
X183114286Y-198178571D01*
X183328571Y-198250000D01*
X183471429Y-198392857D01*
X183542857Y-198535714D01*
X183614286Y-198821429D01*
X183614286Y-199035714D01*
X183542857Y-199321429D01*
X183471429Y-199464286D01*
X183328571Y-199607143D01*
X183114286Y-199678571D01*
X182757143Y-199678571D01*
X184900000Y-199678571D02*
X184900000Y-198892857D01*
X184828571Y-198750000D01*
X184685714Y-198678571D01*
X184400000Y-198678571D01*
X184257143Y-198750000D01*
X184900000Y-199607143D02*
X184757143Y-199678571D01*
X184400000Y-199678571D01*
X184257143Y-199607143D01*
X184185714Y-199464286D01*
X184185714Y-199321429D01*
X184257143Y-199178571D01*
X184400000Y-199107143D01*
X184757143Y-199107143D01*
X184900000Y-199035714D01*
X185400000Y-198678571D02*
X185971429Y-198678571D01*
X185614286Y-198178571D02*
X185614286Y-199464286D01*
X185685714Y-199607143D01*
X185828572Y-199678571D01*
X185971429Y-199678571D01*
X187042857Y-199607143D02*
X186900000Y-199678571D01*
X186614286Y-199678571D01*
X186471429Y-199607143D01*
X186400000Y-199464286D01*
X186400000Y-198892857D01*
X186471429Y-198750000D01*
X186614286Y-198678571D01*
X186900000Y-198678571D01*
X187042857Y-198750000D01*
X187114286Y-198892857D01*
X187114286Y-199035714D01*
X186400000Y-199178571D01*
X187757143Y-199535714D02*
X187828571Y-199607143D01*
X187757143Y-199678571D01*
X187685714Y-199607143D01*
X187757143Y-199535714D01*
X187757143Y-199678571D01*
X187757143Y-198750000D02*
X187828571Y-198821429D01*
X187757143Y-198892857D01*
X187685714Y-198821429D01*
X187757143Y-198750000D01*
X187757143Y-198892857D01*
X189542857Y-198321429D02*
X189614286Y-198250000D01*
X189757143Y-198178571D01*
X190114286Y-198178571D01*
X190257143Y-198250000D01*
X190328572Y-198321429D01*
X190400000Y-198464286D01*
X190400000Y-198607143D01*
X190328572Y-198821429D01*
X189471429Y-199678571D01*
X190400000Y-199678571D01*
X191328571Y-198178571D02*
X191471428Y-198178571D01*
X191614285Y-198250000D01*
X191685714Y-198321429D01*
X191757143Y-198464286D01*
X191828571Y-198750000D01*
X191828571Y-199107143D01*
X191757143Y-199392857D01*
X191685714Y-199535714D01*
X191614285Y-199607143D01*
X191471428Y-199678571D01*
X191328571Y-199678571D01*
X191185714Y-199607143D01*
X191114285Y-199535714D01*
X191042857Y-199392857D01*
X190971428Y-199107143D01*
X190971428Y-198750000D01*
X191042857Y-198464286D01*
X191114285Y-198321429D01*
X191185714Y-198250000D01*
X191328571Y-198178571D01*
X193257142Y-199678571D02*
X192399999Y-199678571D01*
X192828571Y-199678571D02*
X192828571Y-198178571D01*
X192685714Y-198392857D01*
X192542856Y-198535714D01*
X192399999Y-198607143D01*
X193757142Y-198178571D02*
X194757142Y-198178571D01*
X194114285Y-199678571D01*
X195328570Y-199107143D02*
X196471427Y-199107143D01*
X197471427Y-198178571D02*
X197614284Y-198178571D01*
X197757141Y-198250000D01*
X197828570Y-198321429D01*
X197899999Y-198464286D01*
X197971427Y-198750000D01*
X197971427Y-199107143D01*
X197899999Y-199392857D01*
X197828570Y-199535714D01*
X197757141Y-199607143D01*
X197614284Y-199678571D01*
X197471427Y-199678571D01*
X197328570Y-199607143D01*
X197257141Y-199535714D01*
X197185713Y-199392857D01*
X197114284Y-199107143D01*
X197114284Y-198750000D01*
X197185713Y-198464286D01*
X197257141Y-198321429D01*
X197328570Y-198250000D01*
X197471427Y-198178571D01*
X198542855Y-198321429D02*
X198614284Y-198250000D01*
X198757141Y-198178571D01*
X199114284Y-198178571D01*
X199257141Y-198250000D01*
X199328570Y-198321429D01*
X199399998Y-198464286D01*
X199399998Y-198607143D01*
X199328570Y-198821429D01*
X198471427Y-199678571D01*
X199399998Y-199678571D01*
X200042855Y-199107143D02*
X201185712Y-199107143D01*
X201828569Y-198321429D02*
X201899998Y-198250000D01*
X202042855Y-198178571D01*
X202399998Y-198178571D01*
X202542855Y-198250000D01*
X202614284Y-198321429D01*
X202685712Y-198464286D01*
X202685712Y-198607143D01*
X202614284Y-198821429D01*
X201757141Y-199678571D01*
X202685712Y-199678571D01*
X203614283Y-198178571D02*
X203757140Y-198178571D01*
X203899997Y-198250000D01*
X203971426Y-198321429D01*
X204042855Y-198464286D01*
X204114283Y-198750000D01*
X204114283Y-199107143D01*
X204042855Y-199392857D01*
X203971426Y-199535714D01*
X203899997Y-199607143D01*
X203757140Y-199678571D01*
X203614283Y-199678571D01*
X203471426Y-199607143D01*
X203399997Y-199535714D01*
X203328569Y-199392857D01*
X203257140Y-199107143D01*
X203257140Y-198750000D01*
X203328569Y-198464286D01*
X203399997Y-198321429D01*
X203471426Y-198250000D01*
X203614283Y-198178571D01*
D10*
D11*
X159400000Y-200400000D02*
X267400000Y-200400000D01*
D10*
D11*
X160757143Y-202478571D02*
X160757143Y-200978571D01*
X161614286Y-202478571D02*
X160971429Y-201621429D01*
X161614286Y-200978571D02*
X160757143Y-201835714D01*
X162257143Y-202478571D02*
X162257143Y-201478571D01*
X162257143Y-200978571D02*
X162185714Y-201050000D01*
X162257143Y-201121429D01*
X162328571Y-201050000D01*
X162257143Y-200978571D01*
X162257143Y-201121429D01*
X163828572Y-202335714D02*
X163757143Y-202407143D01*
X163542857Y-202478571D01*
X163400000Y-202478571D01*
X163185715Y-202407143D01*
X163042857Y-202264286D01*
X162971429Y-202121429D01*
X162900000Y-201835714D01*
X162900000Y-201621429D01*
X162971429Y-201335714D01*
X163042857Y-201192857D01*
X163185715Y-201050000D01*
X163400000Y-200978571D01*
X163542857Y-200978571D01*
X163757143Y-201050000D01*
X163828572Y-201121429D01*
X165114286Y-202478571D02*
X165114286Y-201692857D01*
X165042857Y-201550000D01*
X164900000Y-201478571D01*
X164614286Y-201478571D01*
X164471429Y-201550000D01*
X165114286Y-202407143D02*
X164971429Y-202478571D01*
X164614286Y-202478571D01*
X164471429Y-202407143D01*
X164400000Y-202264286D01*
X164400000Y-202121429D01*
X164471429Y-201978571D01*
X164614286Y-201907143D01*
X164971429Y-201907143D01*
X165114286Y-201835714D01*
X166471429Y-202478571D02*
X166471429Y-200978571D01*
X166471429Y-202407143D02*
X166328572Y-202478571D01*
X166042858Y-202478571D01*
X165900000Y-202407143D01*
X165828572Y-202335714D01*
X165757143Y-202192857D01*
X165757143Y-201764286D01*
X165828572Y-201621429D01*
X165900000Y-201550000D01*
X166042858Y-201478571D01*
X166328572Y-201478571D01*
X166471429Y-201550000D01*
X168328572Y-201692857D02*
X168828572Y-201692857D01*
X169042858Y-202478571D02*
X168328572Y-202478571D01*
X168328572Y-200978571D01*
X169042858Y-200978571D01*
X169685715Y-202335714D02*
X169757143Y-202407143D01*
X169685715Y-202478571D01*
X169614286Y-202407143D01*
X169685715Y-202335714D01*
X169685715Y-202478571D01*
X170400001Y-202478571D02*
X170400001Y-200978571D01*
X170757144Y-200978571D01*
X170971429Y-201050000D01*
X171114287Y-201192857D01*
X171185715Y-201335714D01*
X171257144Y-201621429D01*
X171257144Y-201835714D01*
X171185715Y-202121429D01*
X171114287Y-202264286D01*
X170971429Y-202407143D01*
X170757144Y-202478571D01*
X170400001Y-202478571D01*
X171900001Y-202335714D02*
X171971429Y-202407143D01*
X171900001Y-202478571D01*
X171828572Y-202407143D01*
X171900001Y-202335714D01*
X171900001Y-202478571D01*
X172542858Y-202050000D02*
X173257144Y-202050000D01*
X172400001Y-202478571D02*
X172900001Y-200978571D01*
X173400001Y-202478571D01*
X173900001Y-202335714D02*
X173971429Y-202407143D01*
X173900001Y-202478571D01*
X173828572Y-202407143D01*
X173900001Y-202335714D01*
X173900001Y-202478571D01*
X176900001Y-202478571D02*
X176900001Y-200978571D01*
X177042858Y-201907143D02*
X177471429Y-202478571D01*
X177471429Y-201478571D02*
X176900001Y-202050000D01*
X178114287Y-202478571D02*
X178114287Y-201478571D01*
X178114287Y-200978571D02*
X178042858Y-201050000D01*
X178114287Y-201121429D01*
X178185715Y-201050000D01*
X178114287Y-200978571D01*
X178114287Y-201121429D01*
X179471430Y-202407143D02*
X179328573Y-202478571D01*
X179042859Y-202478571D01*
X178900001Y-202407143D01*
X178828573Y-202335714D01*
X178757144Y-202192857D01*
X178757144Y-201764286D01*
X178828573Y-201621429D01*
X178900001Y-201550000D01*
X179042859Y-201478571D01*
X179328573Y-201478571D01*
X179471430Y-201550000D01*
X180757144Y-202478571D02*
X180757144Y-201692857D01*
X180685715Y-201550000D01*
X180542858Y-201478571D01*
X180257144Y-201478571D01*
X180114287Y-201550000D01*
X180757144Y-202407143D02*
X180614287Y-202478571D01*
X180257144Y-202478571D01*
X180114287Y-202407143D01*
X180042858Y-202264286D01*
X180042858Y-202121429D01*
X180114287Y-201978571D01*
X180257144Y-201907143D01*
X180614287Y-201907143D01*
X180757144Y-201835714D01*
X182114287Y-202478571D02*
X182114287Y-200978571D01*
X182114287Y-202407143D02*
X181971430Y-202478571D01*
X181685716Y-202478571D01*
X181542858Y-202407143D01*
X181471430Y-202335714D01*
X181400001Y-202192857D01*
X181400001Y-201764286D01*
X181471430Y-201621429D01*
X181542858Y-201550000D01*
X181685716Y-201478571D01*
X181971430Y-201478571D01*
X182114287Y-201550000D01*
X184614287Y-201478571D02*
X184614287Y-202478571D01*
X184257144Y-200907143D02*
X183900001Y-201978571D01*
X184828573Y-201978571D01*
X185400001Y-202335714D02*
X185471429Y-202407143D01*
X185400001Y-202478571D01*
X185328572Y-202407143D01*
X185400001Y-202335714D01*
X185400001Y-202478571D01*
X186400001Y-200978571D02*
X186542858Y-200978571D01*
X186685715Y-201050000D01*
X186757144Y-201121429D01*
X186828573Y-201264286D01*
X186900001Y-201550000D01*
X186900001Y-201907143D01*
X186828573Y-202192857D01*
X186757144Y-202335714D01*
X186685715Y-202407143D01*
X186542858Y-202478571D01*
X186400001Y-202478571D01*
X186257144Y-202407143D01*
X186185715Y-202335714D01*
X186114287Y-202192857D01*
X186042858Y-201907143D01*
X186042858Y-201550000D01*
X186114287Y-201264286D01*
X186185715Y-201121429D01*
X186257144Y-201050000D01*
X186400001Y-200978571D01*
X187542858Y-202335714D02*
X187614286Y-202407143D01*
X187542858Y-202478571D01*
X187471429Y-202407143D01*
X187542858Y-202335714D01*
X187542858Y-202478571D01*
X188114287Y-200978571D02*
X189114287Y-200978571D01*
X188471430Y-202478571D01*
D10*
D11*
X159400000Y-197400000D02*
X267400000Y-197400000D01*
D10*
D12*
X246614286Y-199678571D02*
X246114286Y-198964286D01*
X245757143Y-199678571D02*
X245757143Y-198178571D01*
X246328571Y-198178571D01*
X246471429Y-198250000D01*
X246542857Y-198321429D01*
X246614286Y-198464286D01*
X246614286Y-198678571D01*
X246542857Y-198821429D01*
X246471429Y-198892857D01*
X246328571Y-198964286D01*
X245757143Y-198964286D01*
X247828571Y-199607143D02*
X247685714Y-199678571D01*
X247400000Y-199678571D01*
X247257143Y-199607143D01*
X247185714Y-199464286D01*
X247185714Y-198892857D01*
X247257143Y-198750000D01*
X247400000Y-198678571D01*
X247685714Y-198678571D01*
X247828571Y-198750000D01*
X247900000Y-198892857D01*
X247900000Y-199035714D01*
X247185714Y-199178571D01*
X248400000Y-198678571D02*
X248757143Y-199678571D01*
X249114285Y-198678571D01*
X249685714Y-199535714D02*
X249757142Y-199607143D01*
X249685714Y-199678571D01*
X249614285Y-199607143D01*
X249685714Y-199535714D01*
X249685714Y-199678571D01*
X249685714Y-198750000D02*
X249757142Y-198821429D01*
X249685714Y-198892857D01*
X249614285Y-198821429D01*
X249685714Y-198750000D01*
X249685714Y-198892857D01*
X252328571Y-199678571D02*
X251471428Y-199678571D01*
X251900000Y-199678571D02*
X251900000Y-198178571D01*
X251757143Y-198392857D01*
X251614285Y-198535714D01*
X251471428Y-198607143D01*
X252971428Y-199535714D02*
X253042856Y-199607143D01*
X252971428Y-199678571D01*
X252899999Y-199607143D01*
X252971428Y-199535714D01*
X252971428Y-199678571D01*
X254471428Y-199678571D02*
X253614285Y-199678571D01*
X254042857Y-199678571D02*
X254042857Y-198178571D01*
X253900000Y-198392857D01*
X253757142Y-198535714D01*
X253614285Y-198607143D01*
D10*
D11*
X160685714Y-199607143D02*
X160900000Y-199678571D01*
X161257143Y-199678571D01*
X161400000Y-199607143D01*
X161471429Y-199535714D01*
X161542857Y-199392857D01*
X161542857Y-199250000D01*
X161471429Y-199107143D01*
X161400000Y-199035714D01*
X161257143Y-198964286D01*
X160971429Y-198892857D01*
X160828571Y-198821429D01*
X160757143Y-198750000D01*
X160685714Y-198607143D01*
X160685714Y-198464286D01*
X160757143Y-198321429D01*
X160828571Y-198250000D01*
X160971429Y-198178571D01*
X161328571Y-198178571D01*
X161542857Y-198250000D01*
X162185714Y-199678571D02*
X162185714Y-198678571D01*
X162185714Y-198178571D02*
X162114285Y-198250000D01*
X162185714Y-198321429D01*
X162257142Y-198250000D01*
X162185714Y-198178571D01*
X162185714Y-198321429D01*
X162757143Y-198678571D02*
X163542857Y-198678571D01*
X162757143Y-199678571D01*
X163542857Y-199678571D01*
X164685714Y-199607143D02*
X164542857Y-199678571D01*
X164257143Y-199678571D01*
X164114286Y-199607143D01*
X164042857Y-199464286D01*
X164042857Y-198892857D01*
X164114286Y-198750000D01*
X164257143Y-198678571D01*
X164542857Y-198678571D01*
X164685714Y-198750000D01*
X164757143Y-198892857D01*
X164757143Y-199035714D01*
X164042857Y-199178571D01*
X165400000Y-199535714D02*
X165471428Y-199607143D01*
X165400000Y-199678571D01*
X165328571Y-199607143D01*
X165400000Y-199535714D01*
X165400000Y-199678571D01*
X165400000Y-198750000D02*
X165471428Y-198821429D01*
X165400000Y-198892857D01*
X165328571Y-198821429D01*
X165400000Y-198750000D01*
X165400000Y-198892857D01*
X167185714Y-199250000D02*
X167900000Y-199250000D01*
X167042857Y-199678571D02*
X167542857Y-198178571D01*
X168042857Y-199678571D01*
D10*
D11*
X245757143Y-202478571D02*
X245757143Y-200978571D01*
X247114286Y-202478571D02*
X247114286Y-200978571D01*
X247114286Y-202407143D02*
X246971429Y-202478571D01*
X246685715Y-202478571D01*
X246542857Y-202407143D01*
X246471429Y-202335714D01*
X246400000Y-202192857D01*
X246400000Y-201764286D01*
X246471429Y-201621429D01*
X246542857Y-201550000D01*
X246685715Y-201478571D01*
X246971429Y-201478571D01*
X247114286Y-201550000D01*
X247828572Y-202335714D02*
X247900000Y-202407143D01*
X247828572Y-202478571D01*
X247757143Y-202407143D01*
X247828572Y-202335714D01*
X247828572Y-202478571D01*
X247828572Y-201550000D02*
X247900000Y-201621429D01*
X247828572Y-201692857D01*
X247757143Y-201621429D01*
X247828572Y-201550000D01*
X247828572Y-201692857D01*
X250471429Y-202478571D02*
X249614286Y-202478571D01*
X250042858Y-202478571D02*
X250042858Y-200978571D01*
X249900001Y-201192857D01*
X249757143Y-201335714D01*
X249614286Y-201407143D01*
X252185714Y-200907143D02*
X250900000Y-202835714D01*
X253471429Y-202478571D02*
X252614286Y-202478571D01*
X253042858Y-202478571D02*
X253042858Y-200978571D01*
X252900001Y-201192857D01*
X252757143Y-201335714D01*
X252614286Y-201407143D01*
D10*
D11*
X159400000Y-193400000D02*
X267400000Y-193400000D01*
D10*
D13*
X160852381Y-194104762D02*
X161995238Y-194104762D01*
X161173810Y-196104762D02*
X161423810Y-194104762D01*
X162411905Y-196104762D02*
X162578571Y-194771429D01*
X162661905Y-194104762D02*
X162554762Y-194200000D01*
X162638095Y-194295238D01*
X162745239Y-194200000D01*
X162661905Y-194104762D01*
X162638095Y-194295238D01*
X163245238Y-194771429D02*
X164007143Y-194771429D01*
X163614286Y-194104762D02*
X163400000Y-195819048D01*
X163471430Y-196009524D01*
X163650001Y-196104762D01*
X163840477Y-196104762D01*
X164792858Y-196104762D02*
X164614287Y-196009524D01*
X164542857Y-195819048D01*
X164757143Y-194104762D01*
X166328572Y-196009524D02*
X166126191Y-196104762D01*
X165745239Y-196104762D01*
X165566667Y-196009524D01*
X165495238Y-195819048D01*
X165590476Y-195057143D01*
X165709524Y-194866667D01*
X165911905Y-194771429D01*
X166292857Y-194771429D01*
X166471429Y-194866667D01*
X166542857Y-195057143D01*
X166519048Y-195247619D01*
X165542857Y-195438095D01*
X167292857Y-195914286D02*
X167376192Y-196009524D01*
X167269048Y-196104762D01*
X167185715Y-196009524D01*
X167292857Y-195914286D01*
X167269048Y-196104762D01*
X167423810Y-194866667D02*
X167507144Y-194961905D01*
X167400000Y-195057143D01*
X167316667Y-194961905D01*
X167423810Y-194866667D01*
X167400000Y-195057143D01*
X169661906Y-196009524D02*
X169935716Y-196104762D01*
X170411906Y-196104762D01*
X170614287Y-196009524D01*
X170721429Y-195914286D01*
X170840478Y-195723810D01*
X170864287Y-195533333D01*
X170792858Y-195342857D01*
X170709525Y-195247619D01*
X170530953Y-195152381D01*
X170161906Y-195057143D01*
X169983335Y-194961905D01*
X169900001Y-194866667D01*
X169828572Y-194676190D01*
X169852382Y-194485714D01*
X169971429Y-194295238D01*
X170078573Y-194200000D01*
X170280954Y-194104762D01*
X170757144Y-194104762D01*
X171030954Y-194200000D01*
X171650001Y-196104762D02*
X171900001Y-194104762D01*
X172507144Y-196104762D02*
X172638096Y-195057143D01*
X172566668Y-194866667D01*
X172388096Y-194771429D01*
X172102382Y-194771429D01*
X171900002Y-194866667D01*
X171792858Y-194961905D01*
X174483334Y-194771429D02*
X174316668Y-196104762D01*
X173626191Y-194771429D02*
X173495239Y-195819048D01*
X173566669Y-196009524D01*
X173745240Y-196104762D01*
X174030954Y-196104762D01*
X174233335Y-196009524D01*
X174340477Y-195914286D01*
X175150001Y-194771429D02*
X175911906Y-194771429D01*
X175519049Y-194104762D02*
X175304763Y-195819048D01*
X175376193Y-196009524D01*
X175554764Y-196104762D01*
X175745240Y-196104762D01*
X176292858Y-194771429D02*
X177054763Y-194771429D01*
X176661906Y-194104762D02*
X176447620Y-195819048D01*
X176519050Y-196009524D01*
X176697621Y-196104762D01*
X176888097Y-196104762D01*
X178328573Y-196009524D02*
X178126192Y-196104762D01*
X177745240Y-196104762D01*
X177566668Y-196009524D01*
X177495239Y-195819048D01*
X177590477Y-195057143D01*
X177709525Y-194866667D01*
X177911906Y-194771429D01*
X178292858Y-194771429D01*
X178471430Y-194866667D01*
X178542858Y-195057143D01*
X178519049Y-195247619D01*
X177542858Y-195438095D01*
X179269049Y-196104762D02*
X179435715Y-194771429D01*
X179388096Y-195152381D02*
X179507145Y-194961905D01*
X179614288Y-194866667D01*
X179816668Y-194771429D01*
X180007144Y-194771429D01*
X182030954Y-196104762D02*
X182280954Y-194104762D01*
X182757145Y-194104762D01*
X183030954Y-194200000D01*
X183197621Y-194390476D01*
X183269050Y-194580952D01*
X183316669Y-194961905D01*
X183280955Y-195247619D01*
X183138098Y-195628571D01*
X183019049Y-195819048D01*
X182804764Y-196009524D01*
X182507145Y-196104762D01*
X182030954Y-196104762D01*
X184030954Y-196104762D02*
X184197620Y-194771429D01*
X184150001Y-195152381D02*
X184269050Y-194961905D01*
X184376193Y-194866667D01*
X184578573Y-194771429D01*
X184769049Y-194771429D01*
X185269049Y-196104762D02*
X185435715Y-194771429D01*
X185519049Y-194104762D02*
X185411906Y-194200000D01*
X185495239Y-194295238D01*
X185602383Y-194200000D01*
X185519049Y-194104762D01*
X185495239Y-194295238D01*
X186197620Y-194771429D02*
X186507145Y-196104762D01*
X187150001Y-194771429D01*
X188519050Y-196009524D02*
X188316669Y-196104762D01*
X187935717Y-196104762D01*
X187757145Y-196009524D01*
X187685716Y-195819048D01*
X187780954Y-195057143D01*
X187900002Y-194866667D01*
X188102383Y-194771429D01*
X188483335Y-194771429D01*
X188661907Y-194866667D01*
X188733335Y-195057143D01*
X188709526Y-195247619D01*
X187733335Y-195438095D01*
X189459526Y-196104762D02*
X189626192Y-194771429D01*
X189578573Y-195152381D02*
X189697622Y-194961905D01*
X189804765Y-194866667D01*
X190007145Y-194771429D01*
X190197621Y-194771429D01*
D10*
D11*
X161257143Y-191492857D02*
X160757143Y-191492857D01*
X160757143Y-192278571D02*
X160757143Y-190778571D01*
X161471429Y-190778571D01*
X162042857Y-192278571D02*
X162042857Y-191278571D01*
X162042857Y-190778571D02*
X161971428Y-190850000D01*
X162042857Y-190921429D01*
X162114285Y-190850000D01*
X162042857Y-190778571D01*
X162042857Y-190921429D01*
X162971429Y-192278571D02*
X162828571Y-192207143D01*
X162757143Y-192064286D01*
X162757143Y-190778571D01*
X164114285Y-192207143D02*
X163971428Y-192278571D01*
X163685714Y-192278571D01*
X163542857Y-192207143D01*
X163471428Y-192064286D01*
X163471428Y-191492857D01*
X163542857Y-191350000D01*
X163685714Y-191278571D01*
X163971428Y-191278571D01*
X164114285Y-191350000D01*
X164185714Y-191492857D01*
X164185714Y-191635714D01*
X163471428Y-191778571D01*
X164828571Y-192135714D02*
X164899999Y-192207143D01*
X164828571Y-192278571D01*
X164757142Y-192207143D01*
X164828571Y-192135714D01*
X164828571Y-192278571D01*
X164828571Y-191350000D02*
X164899999Y-191421429D01*
X164828571Y-191492857D01*
X164757142Y-191421429D01*
X164828571Y-191350000D01*
X164828571Y-191492857D01*
X166614285Y-192207143D02*
X166828571Y-192278571D01*
X167185714Y-192278571D01*
X167328571Y-192207143D01*
X167400000Y-192135714D01*
X167471428Y-191992857D01*
X167471428Y-191850000D01*
X167400000Y-191707143D01*
X167328571Y-191635714D01*
X167185714Y-191564286D01*
X166900000Y-191492857D01*
X166757142Y-191421429D01*
X166685714Y-191350000D01*
X166614285Y-191207143D01*
X166614285Y-191064286D01*
X166685714Y-190921429D01*
X166757142Y-190850000D01*
X166900000Y-190778571D01*
X167257142Y-190778571D01*
X167471428Y-190850000D01*
X168114285Y-192278571D02*
X168114285Y-190778571D01*
X168757142Y-192278571D02*
X168757142Y-191492857D01*
X168685713Y-191350000D01*
X168542856Y-191278571D01*
X168328571Y-191278571D01*
X168185713Y-191350000D01*
X168114285Y-191421429D01*
X170114285Y-191278571D02*
X170114285Y-192278571D01*
X169471428Y-191278571D02*
X169471428Y-192064286D01*
X169542856Y-192207143D01*
X169685714Y-192278571D01*
X169899999Y-192278571D01*
X170042856Y-192207143D01*
X170114285Y-192135714D01*
X170614285Y-191278571D02*
X171185714Y-191278571D01*
X170828571Y-190778571D02*
X170828571Y-192064286D01*
X170899999Y-192207143D01*
X171042857Y-192278571D01*
X171185714Y-192278571D01*
X171471428Y-191278571D02*
X172042857Y-191278571D01*
X171685714Y-190778571D02*
X171685714Y-192064286D01*
X171757142Y-192207143D01*
X171900000Y-192278571D01*
X172042857Y-192278571D01*
X173114285Y-192207143D02*
X172971428Y-192278571D01*
X172685714Y-192278571D01*
X172542857Y-192207143D01*
X172471428Y-192064286D01*
X172471428Y-191492857D01*
X172542857Y-191350000D01*
X172685714Y-191278571D01*
X172971428Y-191278571D01*
X173114285Y-191350000D01*
X173185714Y-191492857D01*
X173185714Y-191635714D01*
X172471428Y-191778571D01*
X173828571Y-192278571D02*
X173828571Y-191278571D01*
X173828571Y-191564286D02*
X173899999Y-191421429D01*
X173971428Y-191350000D01*
X174114285Y-191278571D01*
X174257142Y-191278571D01*
X174399999Y-192421429D02*
X175542856Y-192421429D01*
X175899999Y-192278571D02*
X175899999Y-190778571D01*
X176257142Y-190778571D01*
X176471427Y-190850000D01*
X176614285Y-190992857D01*
X176685713Y-191135714D01*
X176757142Y-191421429D01*
X176757142Y-191635714D01*
X176685713Y-191921429D01*
X176614285Y-192064286D01*
X176471427Y-192207143D01*
X176257142Y-192278571D01*
X175899999Y-192278571D01*
X177399999Y-192278571D02*
X177399999Y-191278571D01*
X177399999Y-191564286D02*
X177471427Y-191421429D01*
X177542856Y-191350000D01*
X177685713Y-191278571D01*
X177828570Y-191278571D01*
X178328570Y-192278571D02*
X178328570Y-191278571D01*
X178328570Y-190778571D02*
X178257141Y-190850000D01*
X178328570Y-190921429D01*
X178399998Y-190850000D01*
X178328570Y-190778571D01*
X178328570Y-190921429D01*
X178899999Y-191278571D02*
X179257142Y-192278571D01*
X179614284Y-191278571D01*
X180757141Y-192207143D02*
X180614284Y-192278571D01*
X180328570Y-192278571D01*
X180185713Y-192207143D01*
X180114284Y-192064286D01*
X180114284Y-191492857D01*
X180185713Y-191350000D01*
X180328570Y-191278571D01*
X180614284Y-191278571D01*
X180757141Y-191350000D01*
X180828570Y-191492857D01*
X180828570Y-191635714D01*
X180114284Y-191778571D01*
X181471427Y-192278571D02*
X181471427Y-191278571D01*
X181471427Y-191564286D02*
X181542855Y-191421429D01*
X181614284Y-191350000D01*
X181757141Y-191278571D01*
X181899998Y-191278571D01*
X182399998Y-192135714D02*
X182471426Y-192207143D01*
X182399998Y-192278571D01*
X182328569Y-192207143D01*
X182399998Y-192135714D01*
X182399998Y-192278571D01*
X183114284Y-192278571D02*
X183114284Y-190778571D01*
X183257141Y-191707143D02*
X183685712Y-192278571D01*
X183685712Y-191278571D02*
X183114284Y-191850000D01*
X184328570Y-192278571D02*
X184328570Y-191278571D01*
X184328570Y-190778571D02*
X184257141Y-190850000D01*
X184328570Y-190921429D01*
X184399998Y-190850000D01*
X184328570Y-190778571D01*
X184328570Y-190921429D01*
X185685713Y-192207143D02*
X185542856Y-192278571D01*
X185257142Y-192278571D01*
X185114284Y-192207143D01*
X185042856Y-192135714D01*
X184971427Y-191992857D01*
X184971427Y-191564286D01*
X185042856Y-191421429D01*
X185114284Y-191350000D01*
X185257142Y-191278571D01*
X185542856Y-191278571D01*
X185685713Y-191350000D01*
X186971427Y-192278571D02*
X186971427Y-191492857D01*
X186899998Y-191350000D01*
X186757141Y-191278571D01*
X186471427Y-191278571D01*
X186328570Y-191350000D01*
X186971427Y-192207143D02*
X186828570Y-192278571D01*
X186471427Y-192278571D01*
X186328570Y-192207143D01*
X186257141Y-192064286D01*
X186257141Y-191921429D01*
X186328570Y-191778571D01*
X186471427Y-191707143D01*
X186828570Y-191707143D01*
X186971427Y-191635714D01*
X188328570Y-192278571D02*
X188328570Y-190778571D01*
X188328570Y-192207143D02*
X188185713Y-192278571D01*
X187899999Y-192278571D01*
X187757141Y-192207143D01*
X187685713Y-192135714D01*
X187614284Y-191992857D01*
X187614284Y-191564286D01*
X187685713Y-191421429D01*
X187757141Y-191350000D01*
X187899999Y-191278571D01*
X188185713Y-191278571D01*
X188328570Y-191350000D01*
X188685713Y-192421429D02*
X189828570Y-192421429D01*
X190185713Y-191278571D02*
X190185713Y-192778571D01*
X190185713Y-191350000D02*
X190328570Y-191278571D01*
X190614284Y-191278571D01*
X190757141Y-191350000D01*
X190828570Y-191421429D01*
X190899999Y-191564286D01*
X190899999Y-191992857D01*
X190828570Y-192135714D01*
X190757141Y-192207143D01*
X190614284Y-192278571D01*
X190328570Y-192278571D01*
X190185713Y-192207143D01*
X192185713Y-192207143D02*
X192042856Y-192278571D01*
X191757142Y-192278571D01*
X191614284Y-192207143D01*
X191542856Y-192135714D01*
X191471427Y-191992857D01*
X191471427Y-191564286D01*
X191542856Y-191421429D01*
X191614284Y-191350000D01*
X191757142Y-191278571D01*
X192042856Y-191278571D01*
X192185713Y-191350000D01*
X192828570Y-192278571D02*
X192828570Y-190778571D01*
X192828570Y-191350000D02*
X192971427Y-191278571D01*
X193257141Y-191278571D01*
X193399998Y-191350000D01*
X193471427Y-191421429D01*
X193542856Y-191564286D01*
X193542856Y-191992857D01*
X193471427Y-192135714D01*
X193399998Y-192207143D01*
X193257141Y-192278571D01*
X192971427Y-192278571D01*
X192828570Y-192207143D01*
D10*
D11*
X159400000Y-187400000D02*
X267400000Y-187400000D01*
D10*
D11*
X160685714Y-189507143D02*
X160900000Y-189578571D01*
X161257143Y-189578571D01*
X161400000Y-189507143D01*
X161471429Y-189435714D01*
X161542857Y-189292857D01*
X161542857Y-189150000D01*
X161471429Y-189007143D01*
X161400000Y-188935714D01*
X161257143Y-188864286D01*
X160971429Y-188792857D01*
X160828571Y-188721429D01*
X160757143Y-188650000D01*
X160685714Y-188507143D01*
X160685714Y-188364286D01*
X160757143Y-188221429D01*
X160828571Y-188150000D01*
X160971429Y-188078571D01*
X161328571Y-188078571D01*
X161542857Y-188150000D01*
X162185714Y-189578571D02*
X162185714Y-188078571D01*
X162828571Y-189578571D02*
X162828571Y-188792857D01*
X162757142Y-188650000D01*
X162614285Y-188578571D01*
X162400000Y-188578571D01*
X162257142Y-188650000D01*
X162185714Y-188721429D01*
X164114285Y-189507143D02*
X163971428Y-189578571D01*
X163685714Y-189578571D01*
X163542857Y-189507143D01*
X163471428Y-189364286D01*
X163471428Y-188792857D01*
X163542857Y-188650000D01*
X163685714Y-188578571D01*
X163971428Y-188578571D01*
X164114285Y-188650000D01*
X164185714Y-188792857D01*
X164185714Y-188935714D01*
X163471428Y-189078571D01*
X165399999Y-189507143D02*
X165257142Y-189578571D01*
X164971428Y-189578571D01*
X164828571Y-189507143D01*
X164757142Y-189364286D01*
X164757142Y-188792857D01*
X164828571Y-188650000D01*
X164971428Y-188578571D01*
X165257142Y-188578571D01*
X165399999Y-188650000D01*
X165471428Y-188792857D01*
X165471428Y-188935714D01*
X164757142Y-189078571D01*
X165899999Y-188578571D02*
X166471428Y-188578571D01*
X166114285Y-188078571D02*
X166114285Y-189364286D01*
X166185713Y-189507143D01*
X166328571Y-189578571D01*
X166471428Y-189578571D01*
X166971428Y-189435714D02*
X167042856Y-189507143D01*
X166971428Y-189578571D01*
X166899999Y-189507143D01*
X166971428Y-189435714D01*
X166971428Y-189578571D01*
X166971428Y-188650000D02*
X167042856Y-188721429D01*
X166971428Y-188792857D01*
X166899999Y-188721429D01*
X166971428Y-188650000D01*
X166971428Y-188792857D01*
D10*
D12*
X161614286Y-186578571D02*
X161114286Y-185864286D01*
X160757143Y-186578571D02*
X160757143Y-185078571D01*
X161328571Y-185078571D01*
X161471429Y-185150000D01*
X161542857Y-185221429D01*
X161614286Y-185364286D01*
X161614286Y-185578571D01*
X161542857Y-185721429D01*
X161471429Y-185792857D01*
X161328571Y-185864286D01*
X160757143Y-185864286D01*
X162257143Y-186578571D02*
X162257143Y-185578571D01*
X162257143Y-185078571D02*
X162185714Y-185150000D01*
X162257143Y-185221429D01*
X162328571Y-185150000D01*
X162257143Y-185078571D01*
X162257143Y-185221429D01*
X163614286Y-186507143D02*
X163471429Y-186578571D01*
X163185715Y-186578571D01*
X163042857Y-186507143D01*
X162971429Y-186435714D01*
X162900000Y-186292857D01*
X162900000Y-185864286D01*
X162971429Y-185721429D01*
X163042857Y-185650000D01*
X163185715Y-185578571D01*
X163471429Y-185578571D01*
X163614286Y-185650000D01*
X164828571Y-186507143D02*
X164685714Y-186578571D01*
X164400000Y-186578571D01*
X164257143Y-186507143D01*
X164185714Y-186364286D01*
X164185714Y-185792857D01*
X164257143Y-185650000D01*
X164400000Y-185578571D01*
X164685714Y-185578571D01*
X164828571Y-185650000D01*
X164900000Y-185792857D01*
X164900000Y-185935714D01*
X164185714Y-186078571D01*
X166685714Y-185078571D02*
X166685714Y-186292857D01*
X166757142Y-186435714D01*
X166828571Y-186507143D01*
X166971428Y-186578571D01*
X167257142Y-186578571D01*
X167400000Y-186507143D01*
X167471428Y-186435714D01*
X167542857Y-186292857D01*
X167542857Y-185078571D01*
X168257143Y-185578571D02*
X168257143Y-186578571D01*
X168257143Y-185721429D02*
X168328571Y-185650000D01*
X168471429Y-185578571D01*
X168685714Y-185578571D01*
X168828571Y-185650000D01*
X168900000Y-185792857D01*
X168900000Y-186578571D01*
X169614286Y-186578571D02*
X169614286Y-185578571D01*
X169614286Y-185078571D02*
X169542857Y-185150000D01*
X169614286Y-185221429D01*
X169685714Y-185150000D01*
X169614286Y-185078571D01*
X169614286Y-185221429D01*
X170185715Y-185578571D02*
X170542858Y-186578571D01*
X170900000Y-185578571D01*
X172042857Y-186507143D02*
X171900000Y-186578571D01*
X171614286Y-186578571D01*
X171471429Y-186507143D01*
X171400000Y-186364286D01*
X171400000Y-185792857D01*
X171471429Y-185650000D01*
X171614286Y-185578571D01*
X171900000Y-185578571D01*
X172042857Y-185650000D01*
X172114286Y-185792857D01*
X172114286Y-185935714D01*
X171400000Y-186078571D01*
X172757143Y-186578571D02*
X172757143Y-185578571D01*
X172757143Y-185864286D02*
X172828571Y-185721429D01*
X172900000Y-185650000D01*
X173042857Y-185578571D01*
X173185714Y-185578571D01*
X173614285Y-186507143D02*
X173757142Y-186578571D01*
X174042857Y-186578571D01*
X174185714Y-186507143D01*
X174257142Y-186364286D01*
X174257142Y-186292857D01*
X174185714Y-186150000D01*
X174042857Y-186078571D01*
X173828571Y-186078571D01*
X173685714Y-186007143D01*
X173614285Y-185864286D01*
X173614285Y-185792857D01*
X173685714Y-185650000D01*
X173828571Y-185578571D01*
X174042857Y-185578571D01*
X174185714Y-185650000D01*
X174900000Y-186578571D02*
X174900000Y-185578571D01*
X174900000Y-185078571D02*
X174828571Y-185150000D01*
X174900000Y-185221429D01*
X174971428Y-185150000D01*
X174900000Y-185078571D01*
X174900000Y-185221429D01*
X175400000Y-185578571D02*
X175971429Y-185578571D01*
X175614286Y-185078571D02*
X175614286Y-186364286D01*
X175685714Y-186507143D01*
X175828572Y-186578571D01*
X175971429Y-186578571D01*
X176328572Y-185578571D02*
X176685715Y-186578571D01*
X177042857Y-185578571D02*
X176685715Y-186578571D01*
X176542857Y-186935714D01*
X176471429Y-187007143D01*
X176328572Y-187078571D01*
D10*
D11*
X179400000Y-197400000D02*
X179400000Y-200400000D01*
D10*
D11*
X243400000Y-197400000D02*
X243400000Y-203900000D01*
D14*
X92710000Y-107950000D03*
X95250000Y-107950000D03*
X137160000Y-107950000D03*
X139700000Y-107950000D03*
D15*
X144780000Y-67310000D03*
D16*
X144780000Y-64770000D03*
X147320000Y-67310000D03*
X147320000Y-64770000D03*
X149860000Y-67310000D03*
X149860000Y-64770000D03*
X152400000Y-67310000D03*
X152400000Y-64770000D03*
D15*
X129540000Y-67310000D03*
D16*
X129540000Y-64770000D03*
X132080000Y-67310000D03*
X132080000Y-64770000D03*
X134620000Y-67310000D03*
X134620000Y-64770000D03*
X137160000Y-67310000D03*
X137160000Y-64770000D03*
D17*
X131191000Y-92710000D03*
X132892800Y-87630000D03*
X134594600Y-92710000D03*
X136296400Y-87630000D03*
X137998200Y-92710000D03*
X139700000Y-87630000D03*
X141401800Y-92710000D03*
X143103600Y-87630000D03*
X144805400Y-92710000D03*
X146507200Y-87630000D03*
X148209000Y-92710000D03*
D18*
X91440000Y-53340000D03*
X101600000Y-53340000D03*
D19*
X96520000Y-58420000D03*
X93980000Y-58420000D03*
D18*
X142240000Y-53340000D03*
X152400000Y-53340000D03*
D19*
X147320000Y-58420000D03*
X144780000Y-58420000D03*
D20*
X100330000Y-71120000D03*
X100330000Y-66120000D03*
X104140000Y-85090000D03*
X104140000Y-80090000D03*
X127000000Y-87630000D03*
X127000000Y-92630000D03*
X152400000Y-87630000D03*
X152400000Y-92630000D03*
D21*
X114300000Y-62230000D03*
D22*
X114300000Y-69730000D03*
D23*
X95250000Y-99060000D03*
D20*
X93250000Y-99060000D03*
D21*
X114300000Y-97790000D03*
D22*
X114300000Y-105290000D03*
D24*
X149860000Y-97790000D03*
D25*
X149860000Y-107950000D03*
D24*
X100330000Y-97790000D03*
D25*
X100330000Y-107950000D03*
D24*
X132080000Y-97790000D03*
D25*
X132080000Y-107950000D03*
D15*
X127000000Y-105410000D03*
D16*
X127000000Y-107950000D03*
D20*
X96520000Y-73660000D03*
D26*
X96520000Y-63500000D03*
D20*
X93980000Y-90170000D03*
D26*
X104140000Y-90170000D03*
D22*
X106680000Y-50800000D03*
D27*
X137160000Y-50800000D03*
D20*
X144780000Y-97790000D03*
D26*
X144780000Y-107950000D03*
D20*
X143510000Y-80010000D03*
D26*
X133350000Y-80010000D03*
D28*
X99060000Y-77470000D03*
D29*
X91440000Y-85090000D03*
X96520000Y-77470000D03*
X93980000Y-85090000D03*
X93980000Y-77470000D03*
X96520000Y-85090000D03*
X91440000Y-77470000D03*
X99060000Y-85090000D03*
D30*
X110490000Y-80010000D03*
D31*
X118110000Y-87630000D03*
X110490000Y-82550000D03*
X118110000Y-85090000D03*
X110490000Y-85090000D03*
X118110000Y-82550000D03*
X110490000Y-87630000D03*
X118110000Y-80010000D03*
D20*
X104140000Y-93980000D03*
D26*
X93980000Y-93980000D03*
D32*
X123190000Y-85090000D02*
X129540000Y-85090000D01*
X137160000Y-83820000D02*
X130810000Y-83820000D01*
X139700000Y-86360000D02*
X137160000Y-83820000D01*
X129540000Y-85090000D02*
X130810000Y-83820000D01*
X114300000Y-97790000D02*
X123190000Y-88900000D01*
X123190000Y-88900000D02*
X123190000Y-85090000D01*
X139700000Y-87630000D02*
X139700000Y-86360000D01*
X123190000Y-85090000D02*
X118110000Y-85090000D01*
D33*
X104140000Y-85090000D02*
X104140000Y-90170000D01*
D32*
X134620000Y-67310000D02*
X134620000Y-68580000D01*
X147320000Y-68580000D02*
X147320000Y-67310000D01*
X146050000Y-69850000D02*
X147320000Y-68580000D01*
X135890000Y-69850000D02*
X146050000Y-69850000D01*
X134620000Y-68580000D02*
X135890000Y-69850000D01*
X129540000Y-67310000D02*
X129540000Y-71120000D01*
X152400000Y-71120000D02*
X152400000Y-67310000D01*
X148590000Y-74930000D02*
X152400000Y-71120000D01*
X133350000Y-74930000D02*
X148590000Y-74930000D01*
X129540000Y-71120000D02*
X133350000Y-74930000D01*
X137160000Y-67310000D02*
X144780000Y-67310000D01*
X132080000Y-67310000D02*
X132080000Y-69850000D01*
X149860000Y-69850000D02*
X149860000Y-67310000D01*
X147320000Y-72390000D02*
X149860000Y-69850000D01*
X134620000Y-72390000D02*
X147320000Y-72390000D01*
X132080000Y-69850000D02*
X134620000Y-72390000D01*
D33*
X96520000Y-85090000D02*
X96520000Y-86360000D01*
X96520000Y-86360000D02*
X104140000Y-93980000D01*
D34*
G36*
X154178000Y-51745175D02*
X153752792Y-51319224D01*
X152876499Y-50955355D01*
X151927664Y-50954527D01*
X151050737Y-51316866D01*
X150379224Y-51987208D01*
X150015355Y-52863501D01*
X150014527Y-53812336D01*
X150376866Y-54689263D01*
X151047208Y-55360776D01*
X151923501Y-55724645D01*
X152872336Y-55725473D01*
X153749263Y-55363134D01*
X154178000Y-54935144D01*
X154178000Y-110998000D01*
X89662000Y-110998000D01*
X89662000Y-107053644D01*
X91174570Y-107053644D01*
X91174570Y-108846356D01*
X91291448Y-109433940D01*
X91624287Y-109932069D01*
X92122416Y-110264908D01*
X92710000Y-110381786D01*
X93297584Y-110264908D01*
X93795713Y-109932069D01*
X93972040Y-109668177D01*
X94343892Y-110064948D01*
X94762242Y-110255527D01*
X94996000Y-110152675D01*
X94996000Y-108204000D01*
X95504000Y-108204000D01*
X95504000Y-110152675D01*
X95737758Y-110255527D01*
X96156108Y-110064948D01*
X96571351Y-109621879D01*
X96785430Y-109053630D01*
X96785430Y-108469365D01*
X98674542Y-108469365D01*
X98999309Y-109063347D01*
X99526661Y-109487832D01*
X99810638Y-109605442D01*
X100076000Y-109505650D01*
X100076000Y-108204000D01*
X100584000Y-108204000D01*
X100584000Y-109505650D01*
X100849362Y-109605442D01*
X101133339Y-109487832D01*
X101660691Y-109063347D01*
X101985458Y-108469365D01*
X101887573Y-108204000D01*
X100584000Y-108204000D01*
X100076000Y-108204000D01*
X98772427Y-108204000D01*
X98674542Y-108469365D01*
X96785430Y-108469365D01*
X96785430Y-108204000D01*
X95504000Y-108204000D01*
X94996000Y-108204000D01*
X94976000Y-108204000D01*
X94976000Y-107950000D01*
X125485907Y-107950000D01*
X125598946Y-108518285D01*
X125920853Y-109000054D01*
X126402622Y-109321961D01*
X126970907Y-109435000D01*
X127029093Y-109435000D01*
X127597378Y-109321961D01*
X128079147Y-109000054D01*
X128401054Y-108518285D01*
X128410784Y-108469365D01*
X130424542Y-108469365D01*
X130749309Y-109063347D01*
X131276661Y-109487832D01*
X131560638Y-109605442D01*
X131826000Y-109505650D01*
X131826000Y-108204000D01*
X132334000Y-108204000D01*
X132334000Y-109505650D01*
X132599362Y-109605442D01*
X132883339Y-109487832D01*
X133410691Y-109063347D01*
X133735458Y-108469365D01*
X133637573Y-108204000D01*
X132334000Y-108204000D01*
X131826000Y-108204000D01*
X130522427Y-108204000D01*
X130424542Y-108469365D01*
X128410784Y-108469365D01*
X128514093Y-107950000D01*
X128410785Y-107430635D01*
X130424542Y-107430635D01*
X130522427Y-107696000D01*
X131826000Y-107696000D01*
X131826000Y-106394350D01*
X132334000Y-106394350D01*
X132334000Y-107696000D01*
X133637573Y-107696000D01*
X133735458Y-107430635D01*
X133529334Y-107053644D01*
X135624570Y-107053644D01*
X135624570Y-108846356D01*
X135741448Y-109433940D01*
X136074287Y-109932069D01*
X136572416Y-110264908D01*
X137160000Y-110381786D01*
X137747584Y-110264908D01*
X138245713Y-109932069D01*
X138422040Y-109668177D01*
X138793892Y-110064948D01*
X139212242Y-110255527D01*
X139446000Y-110152675D01*
X139446000Y-108204000D01*
X139954000Y-108204000D01*
X139954000Y-110152675D01*
X140187758Y-110255527D01*
X140606108Y-110064948D01*
X141021351Y-109621879D01*
X141235430Y-109053630D01*
X141235430Y-108204000D01*
X139954000Y-108204000D01*
X139446000Y-108204000D01*
X139426000Y-108204000D01*
X139426000Y-107921887D01*
X143345000Y-107921887D01*
X143345000Y-107978113D01*
X143454233Y-108527264D01*
X143765302Y-108992811D01*
X144230849Y-109303880D01*
X144780000Y-109413113D01*
X145329151Y-109303880D01*
X145794698Y-108992811D01*
X146105767Y-108527264D01*
X146117283Y-108469365D01*
X148204542Y-108469365D01*
X148529309Y-109063347D01*
X149056661Y-109487832D01*
X149340638Y-109605442D01*
X149606000Y-109505650D01*
X149606000Y-108204000D01*
X150114000Y-108204000D01*
X150114000Y-109505650D01*
X150379362Y-109605442D01*
X150663339Y-109487832D01*
X151190691Y-109063347D01*
X151515458Y-108469365D01*
X151417573Y-108204000D01*
X150114000Y-108204000D01*
X149606000Y-108204000D01*
X148302427Y-108204000D01*
X148204542Y-108469365D01*
X146117283Y-108469365D01*
X146215000Y-107978113D01*
X146215000Y-107921887D01*
X146117284Y-107430635D01*
X148204542Y-107430635D01*
X148302427Y-107696000D01*
X149606000Y-107696000D01*
X149606000Y-106394350D01*
X150114000Y-106394350D01*
X150114000Y-107696000D01*
X151417573Y-107696000D01*
X151515458Y-107430635D01*
X151190691Y-106836653D01*
X150663339Y-106412168D01*
X150379362Y-106294558D01*
X150114000Y-106394350D01*
X149606000Y-106394350D01*
X149340638Y-106294558D01*
X149056661Y-106412168D01*
X148529309Y-106836653D01*
X148204542Y-107430635D01*
X146117284Y-107430635D01*
X146105767Y-107372736D01*
X145794698Y-106907189D01*
X145329151Y-106596120D01*
X144780000Y-106486887D01*
X144230849Y-106596120D01*
X143765302Y-106907189D01*
X143454233Y-107372736D01*
X143345000Y-107921887D01*
X139426000Y-107921887D01*
X139426000Y-107696000D01*
X139446000Y-107696000D01*
X139446000Y-105747325D01*
X139954000Y-105747325D01*
X139954000Y-107696000D01*
X141235430Y-107696000D01*
X141235430Y-106846370D01*
X141021351Y-106278121D01*
X140606108Y-105835052D01*
X140187758Y-105644473D01*
X139954000Y-105747325D01*
X139446000Y-105747325D01*
X139212242Y-105644473D01*
X138793892Y-105835052D01*
X138422040Y-106231823D01*
X138245713Y-105967931D01*
X137747584Y-105635092D01*
X137160000Y-105518214D01*
X136572416Y-105635092D01*
X136074287Y-105967931D01*
X135741448Y-106466060D01*
X135624570Y-107053644D01*
X133529334Y-107053644D01*
X133410691Y-106836653D01*
X132883339Y-106412168D01*
X132599362Y-106294558D01*
X132334000Y-106394350D01*
X131826000Y-106394350D01*
X131560638Y-106294558D01*
X131276661Y-106412168D01*
X130749309Y-106836653D01*
X130424542Y-107430635D01*
X128410785Y-107430635D01*
X128401054Y-107381715D01*
X128079147Y-106899946D01*
X128037548Y-106872150D01*
X128085317Y-106863162D01*
X128301441Y-106724090D01*
X128446431Y-106511890D01*
X128497440Y-106260000D01*
X128497440Y-104560000D01*
X128453162Y-104324683D01*
X128314090Y-104108559D01*
X128101890Y-103963569D01*
X127850000Y-103912560D01*
X126150000Y-103912560D01*
X125914683Y-103956838D01*
X125698559Y-104095910D01*
X125553569Y-104308110D01*
X125502560Y-104560000D01*
X125502560Y-106260000D01*
X125546838Y-106495317D01*
X125685910Y-106711441D01*
X125898110Y-106856431D01*
X125965541Y-106870086D01*
X125920853Y-106899946D01*
X125598946Y-107381715D01*
X125485907Y-107950000D01*
X94976000Y-107950000D01*
X94976000Y-107696000D01*
X94996000Y-107696000D01*
X94996000Y-105747325D01*
X95504000Y-105747325D01*
X95504000Y-107696000D01*
X96785430Y-107696000D01*
X96785430Y-107430635D01*
X98674542Y-107430635D01*
X98772427Y-107696000D01*
X100076000Y-107696000D01*
X100076000Y-106394350D01*
X100584000Y-106394350D01*
X100584000Y-107696000D01*
X101887573Y-107696000D01*
X101985458Y-107430635D01*
X101660691Y-106836653D01*
X101449823Y-106666917D01*
X113282293Y-106666917D01*
X113415955Y-106938914D01*
X114114261Y-107151707D01*
X114840843Y-107081072D01*
X115184045Y-106938914D01*
X115317707Y-106666917D01*
X114300000Y-105649210D01*
X113282293Y-106666917D01*
X101449823Y-106666917D01*
X101133339Y-106412168D01*
X100849362Y-106294558D01*
X100584000Y-106394350D01*
X100076000Y-106394350D01*
X99810638Y-106294558D01*
X99526661Y-106412168D01*
X98999309Y-106836653D01*
X98674542Y-107430635D01*
X96785430Y-107430635D01*
X96785430Y-106846370D01*
X96571351Y-106278121D01*
X96156108Y-105835052D01*
X95737758Y-105644473D01*
X95504000Y-105747325D01*
X94996000Y-105747325D01*
X94762242Y-105644473D01*
X94343892Y-105835052D01*
X93972040Y-106231823D01*
X93795713Y-105967931D01*
X93297584Y-105635092D01*
X92710000Y-105518214D01*
X92122416Y-105635092D01*
X91624287Y-105967931D01*
X91291448Y-106466060D01*
X91174570Y-107053644D01*
X89662000Y-107053644D01*
X89662000Y-105104261D01*
X112438293Y-105104261D01*
X112508928Y-105830843D01*
X112651086Y-106174045D01*
X112923083Y-106307707D01*
X113940790Y-105290000D01*
X114659210Y-105290000D01*
X115676917Y-106307707D01*
X115948914Y-106174045D01*
X116161707Y-105475739D01*
X116091072Y-104749157D01*
X115948914Y-104405955D01*
X115676917Y-104272293D01*
X114659210Y-105290000D01*
X113940790Y-105290000D01*
X112923083Y-104272293D01*
X112651086Y-104405955D01*
X112438293Y-105104261D01*
X89662000Y-105104261D01*
X89662000Y-103913083D01*
X113282293Y-103913083D01*
X114300000Y-104930790D01*
X115317707Y-103913083D01*
X115184045Y-103641086D01*
X114485739Y-103428293D01*
X113759157Y-103498928D01*
X113415955Y-103641086D01*
X113282293Y-103913083D01*
X89662000Y-103913083D01*
X89662000Y-98970611D01*
X91789620Y-98970611D01*
X91866577Y-99536278D01*
X91934992Y-99701448D01*
X92165727Y-99785062D01*
X92890790Y-99060000D01*
X92165727Y-98334938D01*
X91934992Y-98418552D01*
X91789620Y-98970611D01*
X89662000Y-98970611D01*
X89662000Y-97975727D01*
X92524938Y-97975727D01*
X93250000Y-98700790D01*
X93264143Y-98686648D01*
X93623353Y-99045858D01*
X93609210Y-99060000D01*
X93623353Y-99074143D01*
X93264143Y-99433353D01*
X93250000Y-99419210D01*
X92524938Y-100144273D01*
X92608552Y-100375008D01*
X93160611Y-100520380D01*
X93726278Y-100443423D01*
X93891448Y-100375008D01*
X93940216Y-100240431D01*
X93985910Y-100311441D01*
X94198110Y-100456431D01*
X94450000Y-100507440D01*
X96050000Y-100507440D01*
X96285317Y-100463162D01*
X96501441Y-100324090D01*
X96646431Y-100111890D01*
X96697440Y-99860000D01*
X96697440Y-98260000D01*
X96653162Y-98024683D01*
X96514090Y-97808559D01*
X96301890Y-97663569D01*
X96050000Y-97612560D01*
X94450000Y-97612560D01*
X94214683Y-97656838D01*
X93998559Y-97795910D01*
X93940625Y-97880699D01*
X93891448Y-97744992D01*
X93339389Y-97599620D01*
X92773722Y-97676577D01*
X92608552Y-97744992D01*
X92524938Y-97975727D01*
X89662000Y-97975727D01*
X89662000Y-96690000D01*
X98582560Y-96690000D01*
X98582560Y-98890000D01*
X98626838Y-99125317D01*
X98765910Y-99341441D01*
X98978110Y-99486431D01*
X99230000Y-99537440D01*
X101430000Y-99537440D01*
X101665317Y-99493162D01*
X101881441Y-99354090D01*
X102026431Y-99141890D01*
X102077440Y-98890000D01*
X102077440Y-96690000D01*
X102058624Y-96590000D01*
X112452560Y-96590000D01*
X112452560Y-98990000D01*
X112496838Y-99225317D01*
X112635910Y-99441441D01*
X112848110Y-99586431D01*
X113100000Y-99637440D01*
X115500000Y-99637440D01*
X115735317Y-99593162D01*
X115951441Y-99454090D01*
X116096431Y-99241890D01*
X116147440Y-98990000D01*
X116147440Y-97901246D01*
X117358686Y-96690000D01*
X130332560Y-96690000D01*
X130332560Y-98890000D01*
X130376838Y-99125317D01*
X130515910Y-99341441D01*
X130728110Y-99486431D01*
X130980000Y-99537440D01*
X133180000Y-99537440D01*
X133415317Y-99493162D01*
X133631441Y-99354090D01*
X133776431Y-99141890D01*
X133827440Y-98890000D01*
X133827440Y-98074187D01*
X143344752Y-98074187D01*
X143562757Y-98601800D01*
X143966077Y-99005824D01*
X144493309Y-99224750D01*
X145064187Y-99225248D01*
X145591800Y-99007243D01*
X145995824Y-98603923D01*
X146214750Y-98076691D01*
X146215248Y-97505813D01*
X145997243Y-96978200D01*
X145709546Y-96690000D01*
X148112560Y-96690000D01*
X148112560Y-98890000D01*
X148156838Y-99125317D01*
X148295910Y-99341441D01*
X148508110Y-99486431D01*
X148760000Y-99537440D01*
X150960000Y-99537440D01*
X151195317Y-99493162D01*
X151411441Y-99354090D01*
X151556431Y-99141890D01*
X151607440Y-98890000D01*
X151607440Y-96690000D01*
X151563162Y-96454683D01*
X151424090Y-96238559D01*
X151211890Y-96093569D01*
X150960000Y-96042560D01*
X148760000Y-96042560D01*
X148524683Y-96086838D01*
X148308559Y-96225910D01*
X148163569Y-96438110D01*
X148112560Y-96690000D01*
X145709546Y-96690000D01*
X145593923Y-96574176D01*
X145066691Y-96355250D01*
X144495813Y-96354752D01*
X143968200Y-96572757D01*
X143564176Y-96976077D01*
X143345250Y-97503309D01*
X143344752Y-98074187D01*
X133827440Y-98074187D01*
X133827440Y-96690000D01*
X133783162Y-96454683D01*
X133644090Y-96238559D01*
X133431890Y-96093569D01*
X133180000Y-96042560D01*
X130980000Y-96042560D01*
X130744683Y-96086838D01*
X130528559Y-96225910D01*
X130383569Y-96438110D01*
X130332560Y-96690000D01*
X117358686Y-96690000D01*
X121134499Y-92914187D01*
X125564752Y-92914187D01*
X125782757Y-93441800D01*
X126186077Y-93845824D01*
X126713309Y-94064750D01*
X127284187Y-94065248D01*
X127811800Y-93847243D01*
X128215824Y-93443923D01*
X128434750Y-92916691D01*
X128435248Y-92345813D01*
X128305874Y-92032703D01*
X129667000Y-92032703D01*
X129667000Y-93387297D01*
X129783008Y-93970507D01*
X130113369Y-94464928D01*
X130607790Y-94795289D01*
X131191000Y-94911297D01*
X131774210Y-94795289D01*
X132268631Y-94464928D01*
X132598992Y-93970507D01*
X132715000Y-93387297D01*
X132715000Y-92032703D01*
X133070600Y-92032703D01*
X133070600Y-93387297D01*
X133186608Y-93970507D01*
X133516969Y-94464928D01*
X134011390Y-94795289D01*
X134594600Y-94911297D01*
X135177810Y-94795289D01*
X135672231Y-94464928D01*
X136002592Y-93970507D01*
X136118600Y-93387297D01*
X136118600Y-92032703D01*
X136474200Y-92032703D01*
X136474200Y-93387297D01*
X136590208Y-93970507D01*
X136920569Y-94464928D01*
X137414990Y-94795289D01*
X137998200Y-94911297D01*
X138581410Y-94795289D01*
X139075831Y-94464928D01*
X139406192Y-93970507D01*
X139522200Y-93387297D01*
X139522200Y-92964000D01*
X139877800Y-92964000D01*
X139877800Y-93599000D01*
X140091009Y-94162875D01*
X140503774Y-94602236D01*
X140915856Y-94789449D01*
X141147800Y-94686414D01*
X141147800Y-92964000D01*
X141655800Y-92964000D01*
X141655800Y-94686414D01*
X141887744Y-94789449D01*
X142299826Y-94602236D01*
X142712591Y-94162875D01*
X142925800Y-93599000D01*
X142925800Y-92964000D01*
X141655800Y-92964000D01*
X141147800Y-92964000D01*
X139877800Y-92964000D01*
X139522200Y-92964000D01*
X139522200Y-92032703D01*
X139480090Y-91821000D01*
X139877800Y-91821000D01*
X139877800Y-92456000D01*
X141147800Y-92456000D01*
X141147800Y-90733586D01*
X141655800Y-90733586D01*
X141655800Y-92456000D01*
X142925800Y-92456000D01*
X142925800Y-92032703D01*
X143281400Y-92032703D01*
X143281400Y-93387297D01*
X143397408Y-93970507D01*
X143727769Y-94464928D01*
X144222190Y-94795289D01*
X144805400Y-94911297D01*
X145388610Y-94795289D01*
X145883031Y-94464928D01*
X146213392Y-93970507D01*
X146329400Y-93387297D01*
X146329400Y-92032703D01*
X146685000Y-92032703D01*
X146685000Y-93387297D01*
X146801008Y-93970507D01*
X147131369Y-94464928D01*
X147625790Y-94795289D01*
X148209000Y-94911297D01*
X148792210Y-94795289D01*
X149286631Y-94464928D01*
X149616992Y-93970507D01*
X149733000Y-93387297D01*
X149733000Y-92914187D01*
X150964752Y-92914187D01*
X151182757Y-93441800D01*
X151586077Y-93845824D01*
X152113309Y-94064750D01*
X152684187Y-94065248D01*
X153211800Y-93847243D01*
X153615824Y-93443923D01*
X153834750Y-92916691D01*
X153835248Y-92345813D01*
X153617243Y-91818200D01*
X153213923Y-91414176D01*
X152686691Y-91195250D01*
X152115813Y-91194752D01*
X151588200Y-91412757D01*
X151184176Y-91816077D01*
X150965250Y-92343309D01*
X150964752Y-92914187D01*
X149733000Y-92914187D01*
X149733000Y-92032703D01*
X149616992Y-91449493D01*
X149286631Y-90955072D01*
X148792210Y-90624711D01*
X148209000Y-90508703D01*
X147625790Y-90624711D01*
X147131369Y-90955072D01*
X146801008Y-91449493D01*
X146685000Y-92032703D01*
X146329400Y-92032703D01*
X146213392Y-91449493D01*
X145883031Y-90955072D01*
X145388610Y-90624711D01*
X144805400Y-90508703D01*
X144222190Y-90624711D01*
X143727769Y-90955072D01*
X143397408Y-91449493D01*
X143281400Y-92032703D01*
X142925800Y-92032703D01*
X142925800Y-91821000D01*
X142712591Y-91257125D01*
X142299826Y-90817764D01*
X141887744Y-90630551D01*
X141655800Y-90733586D01*
X141147800Y-90733586D01*
X140915856Y-90630551D01*
X140503774Y-90817764D01*
X140091009Y-91257125D01*
X139877800Y-91821000D01*
X139480090Y-91821000D01*
X139406192Y-91449493D01*
X139075831Y-90955072D01*
X138581410Y-90624711D01*
X137998200Y-90508703D01*
X137414990Y-90624711D01*
X136920569Y-90955072D01*
X136590208Y-91449493D01*
X136474200Y-92032703D01*
X136118600Y-92032703D01*
X136002592Y-91449493D01*
X135672231Y-90955072D01*
X135177810Y-90624711D01*
X134594600Y-90508703D01*
X134011390Y-90624711D01*
X133516969Y-90955072D01*
X133186608Y-91449493D01*
X133070600Y-92032703D01*
X132715000Y-92032703D01*
X132598992Y-91449493D01*
X132268631Y-90955072D01*
X131774210Y-90624711D01*
X131191000Y-90508703D01*
X130607790Y-90624711D01*
X130113369Y-90955072D01*
X129783008Y-91449493D01*
X129667000Y-92032703D01*
X128305874Y-92032703D01*
X128217243Y-91818200D01*
X127813923Y-91414176D01*
X127286691Y-91195250D01*
X126715813Y-91194752D01*
X126188200Y-91412757D01*
X125784176Y-91816077D01*
X125565250Y-92343309D01*
X125564752Y-92914187D01*
X121134499Y-92914187D01*
X124169343Y-89879343D01*
X124469574Y-89430016D01*
X124575000Y-88900000D01*
X124575000Y-86475000D01*
X126125848Y-86475000D01*
X125784176Y-86816077D01*
X125565250Y-87343309D01*
X125564752Y-87914187D01*
X125782757Y-88441800D01*
X126186077Y-88845824D01*
X126713309Y-89064750D01*
X127284187Y-89065248D01*
X127811800Y-88847243D01*
X128215824Y-88443923D01*
X128434750Y-87916691D01*
X128435248Y-87345813D01*
X128272819Y-86952703D01*
X131368800Y-86952703D01*
X131368800Y-88307297D01*
X131484808Y-88890507D01*
X131815169Y-89384928D01*
X132309590Y-89715289D01*
X132892800Y-89831297D01*
X133476010Y-89715289D01*
X133970431Y-89384928D01*
X134300792Y-88890507D01*
X134416800Y-88307297D01*
X134416800Y-87884000D01*
X134772400Y-87884000D01*
X134772400Y-88519000D01*
X134985609Y-89082875D01*
X135398374Y-89522236D01*
X135810456Y-89709449D01*
X136042400Y-89606414D01*
X136042400Y-87884000D01*
X136550400Y-87884000D01*
X136550400Y-89606414D01*
X136782344Y-89709449D01*
X137194426Y-89522236D01*
X137607191Y-89082875D01*
X137820400Y-88519000D01*
X137820400Y-87884000D01*
X136550400Y-87884000D01*
X136042400Y-87884000D01*
X134772400Y-87884000D01*
X134416800Y-87884000D01*
X134416800Y-86952703D01*
X134374690Y-86741000D01*
X134772400Y-86741000D01*
X134772400Y-87376000D01*
X136042400Y-87376000D01*
X136042400Y-85653586D01*
X135810456Y-85550551D01*
X135398374Y-85737764D01*
X134985609Y-86177125D01*
X134772400Y-86741000D01*
X134374690Y-86741000D01*
X134300792Y-86369493D01*
X133970431Y-85875072D01*
X133476010Y-85544711D01*
X132892800Y-85428703D01*
X132309590Y-85544711D01*
X131815169Y-85875072D01*
X131484808Y-86369493D01*
X131368800Y-86952703D01*
X128272819Y-86952703D01*
X128217243Y-86818200D01*
X127874641Y-86475000D01*
X129540000Y-86475000D01*
X130070017Y-86369573D01*
X130519343Y-86069343D01*
X131383686Y-85205000D01*
X136586314Y-85205000D01*
X137056348Y-85675034D01*
X136782344Y-85550551D01*
X136550400Y-85653586D01*
X136550400Y-87376000D01*
X137820400Y-87376000D01*
X137820400Y-86741000D01*
X137636833Y-86255519D01*
X138202217Y-86820903D01*
X138176000Y-86952703D01*
X138176000Y-88307297D01*
X138292008Y-88890507D01*
X138622369Y-89384928D01*
X139116790Y-89715289D01*
X139700000Y-89831297D01*
X140283210Y-89715289D01*
X140777631Y-89384928D01*
X141107992Y-88890507D01*
X141224000Y-88307297D01*
X141224000Y-86952703D01*
X141579600Y-86952703D01*
X141579600Y-88307297D01*
X141695608Y-88890507D01*
X142025969Y-89384928D01*
X142520390Y-89715289D01*
X143103600Y-89831297D01*
X143686810Y-89715289D01*
X144181231Y-89384928D01*
X144511592Y-88890507D01*
X144627600Y-88307297D01*
X144627600Y-86952703D01*
X144983200Y-86952703D01*
X144983200Y-88307297D01*
X145099208Y-88890507D01*
X145429569Y-89384928D01*
X145923990Y-89715289D01*
X146507200Y-89831297D01*
X147090410Y-89715289D01*
X147584831Y-89384928D01*
X147915192Y-88890507D01*
X148031200Y-88307297D01*
X148031200Y-87914187D01*
X150964752Y-87914187D01*
X151182757Y-88441800D01*
X151586077Y-88845824D01*
X152113309Y-89064750D01*
X152684187Y-89065248D01*
X153211800Y-88847243D01*
X153615824Y-88443923D01*
X153834750Y-87916691D01*
X153835248Y-87345813D01*
X153617243Y-86818200D01*
X153213923Y-86414176D01*
X152686691Y-86195250D01*
X152115813Y-86194752D01*
X151588200Y-86412757D01*
X151184176Y-86816077D01*
X150965250Y-87343309D01*
X150964752Y-87914187D01*
X148031200Y-87914187D01*
X148031200Y-86952703D01*
X147915192Y-86369493D01*
X147584831Y-85875072D01*
X147090410Y-85544711D01*
X146507200Y-85428703D01*
X145923990Y-85544711D01*
X145429569Y-85875072D01*
X145099208Y-86369493D01*
X144983200Y-86952703D01*
X144627600Y-86952703D01*
X144511592Y-86369493D01*
X144181231Y-85875072D01*
X143686810Y-85544711D01*
X143103600Y-85428703D01*
X142520390Y-85544711D01*
X142025969Y-85875072D01*
X141695608Y-86369493D01*
X141579600Y-86952703D01*
X141224000Y-86952703D01*
X141107992Y-86369493D01*
X141077943Y-86324521D01*
X140979573Y-85829983D01*
X140679343Y-85380657D01*
X138139343Y-82840657D01*
X137690017Y-82540427D01*
X137160000Y-82435000D01*
X130810000Y-82435000D01*
X130279983Y-82540427D01*
X129830657Y-82840657D01*
X128966314Y-83705000D01*
X119350672Y-83705000D01*
X119560648Y-83564698D01*
X119871717Y-83099151D01*
X119980950Y-82550000D01*
X119871717Y-82000849D01*
X119560648Y-81535302D01*
X119178562Y-81280000D01*
X119560648Y-81024698D01*
X119871717Y-80559151D01*
X119887100Y-80481812D01*
X131994781Y-80481812D01*
X132058077Y-80634675D01*
X132395472Y-81081522D01*
X132878185Y-81365239D01*
X133096000Y-81263612D01*
X133096000Y-80264000D01*
X133604000Y-80264000D01*
X133604000Y-81263612D01*
X133821815Y-81365239D01*
X134304528Y-81081522D01*
X134641923Y-80634675D01*
X134705219Y-80481812D01*
X134615202Y-80294187D01*
X142074752Y-80294187D01*
X142292757Y-80821800D01*
X142696077Y-81225824D01*
X143223309Y-81444750D01*
X143794187Y-81445248D01*
X144321800Y-81227243D01*
X144725824Y-80823923D01*
X144944750Y-80296691D01*
X144945248Y-79725813D01*
X144727243Y-79198200D01*
X144323923Y-78794176D01*
X143796691Y-78575250D01*
X143225813Y-78574752D01*
X142698200Y-78792757D01*
X142294176Y-79196077D01*
X142075250Y-79723309D01*
X142074752Y-80294187D01*
X134615202Y-80294187D01*
X134600719Y-80264000D01*
X133604000Y-80264000D01*
X133096000Y-80264000D01*
X132099281Y-80264000D01*
X131994781Y-80481812D01*
X119887100Y-80481812D01*
X119980950Y-80010000D01*
X119887101Y-79538188D01*
X131994781Y-79538188D01*
X132099281Y-79756000D01*
X133096000Y-79756000D01*
X133096000Y-78756388D01*
X133604000Y-78756388D01*
X133604000Y-79756000D01*
X134600719Y-79756000D01*
X134705219Y-79538188D01*
X134641923Y-79385325D01*
X134304528Y-78938478D01*
X133821815Y-78654761D01*
X133604000Y-78756388D01*
X133096000Y-78756388D01*
X132878185Y-78654761D01*
X132395472Y-78938478D01*
X132058077Y-79385325D01*
X131994781Y-79538188D01*
X119887101Y-79538188D01*
X119871717Y-79460849D01*
X119560648Y-78995302D01*
X119095101Y-78684233D01*
X118545950Y-78575000D01*
X117674050Y-78575000D01*
X117124899Y-78684233D01*
X116659352Y-78995302D01*
X116348283Y-79460849D01*
X116239050Y-80010000D01*
X116348283Y-80559151D01*
X116659352Y-81024698D01*
X117041438Y-81280000D01*
X116659352Y-81535302D01*
X116348283Y-82000849D01*
X116239050Y-82550000D01*
X116348283Y-83099151D01*
X116659352Y-83564698D01*
X117041438Y-83820000D01*
X116659352Y-84075302D01*
X116348283Y-84540849D01*
X116239050Y-85090000D01*
X116348283Y-85639151D01*
X116659352Y-86104698D01*
X117041438Y-86360000D01*
X116659352Y-86615302D01*
X116348283Y-87080849D01*
X116239050Y-87630000D01*
X116348283Y-88179151D01*
X116659352Y-88644698D01*
X117124899Y-88955767D01*
X117674050Y-89065000D01*
X118545950Y-89065000D01*
X119095101Y-88955767D01*
X119560648Y-88644698D01*
X119871717Y-88179151D01*
X119980950Y-87630000D01*
X119871717Y-87080849D01*
X119560648Y-86615302D01*
X119350672Y-86475000D01*
X121805000Y-86475000D01*
X121805000Y-88326314D01*
X114188754Y-95942560D01*
X113100000Y-95942560D01*
X112864683Y-95986838D01*
X112648559Y-96125910D01*
X112503569Y-96338110D01*
X112452560Y-96590000D01*
X102058624Y-96590000D01*
X102033162Y-96454683D01*
X101894090Y-96238559D01*
X101681890Y-96093569D01*
X101430000Y-96042560D01*
X99230000Y-96042560D01*
X98994683Y-96086838D01*
X98778559Y-96225910D01*
X98633569Y-96438110D01*
X98582560Y-96690000D01*
X89662000Y-96690000D01*
X89662000Y-93980000D01*
X92516887Y-93980000D01*
X92626120Y-94529151D01*
X92937189Y-94994698D01*
X93402736Y-95305767D01*
X93951887Y-95415000D01*
X94008113Y-95415000D01*
X94557264Y-95305767D01*
X95022811Y-94994698D01*
X95333880Y-94529151D01*
X95443113Y-93980000D01*
X95333880Y-93430849D01*
X95022811Y-92965302D01*
X94557264Y-92654233D01*
X94008113Y-92545000D01*
X93951887Y-92545000D01*
X93402736Y-92654233D01*
X92937189Y-92965302D01*
X92626120Y-93430849D01*
X92516887Y-93980000D01*
X89662000Y-93980000D01*
X89662000Y-90454187D01*
X92544752Y-90454187D01*
X92762757Y-90981800D01*
X93166077Y-91385824D01*
X93693309Y-91604750D01*
X94264187Y-91605248D01*
X94791800Y-91387243D01*
X95195824Y-90983923D01*
X95414750Y-90456691D01*
X95415248Y-89885813D01*
X95197243Y-89358200D01*
X94793923Y-88954176D01*
X94266691Y-88735250D01*
X93695813Y-88734752D01*
X93168200Y-88952757D01*
X92764176Y-89356077D01*
X92545250Y-89883309D01*
X92544752Y-90454187D01*
X89662000Y-90454187D01*
X89662000Y-85572291D01*
X89987134Y-85572291D01*
X90129218Y-86122015D01*
X90470857Y-86575520D01*
X90968188Y-86845219D01*
X91186000Y-86740719D01*
X91186000Y-85344000D01*
X90150898Y-85344000D01*
X89987134Y-85572291D01*
X89662000Y-85572291D01*
X89662000Y-84607709D01*
X89987134Y-84607709D01*
X90150898Y-84836000D01*
X91186000Y-84836000D01*
X91186000Y-83439281D01*
X91694000Y-83439281D01*
X91694000Y-84836000D01*
X91714000Y-84836000D01*
X91714000Y-85344000D01*
X91694000Y-85344000D01*
X91694000Y-86740719D01*
X91911812Y-86845219D01*
X92409143Y-86575520D01*
X92716228Y-86167883D01*
X92965302Y-86540648D01*
X93430849Y-86851717D01*
X93980000Y-86960950D01*
X94529151Y-86851717D01*
X94994698Y-86540648D01*
X95250000Y-86158562D01*
X95385171Y-86360859D01*
X95471397Y-86794346D01*
X95717434Y-87162566D01*
X102704852Y-94149984D01*
X102704752Y-94264187D01*
X102922757Y-94791800D01*
X103326077Y-95195824D01*
X103853309Y-95414750D01*
X104424187Y-95415248D01*
X104951800Y-95197243D01*
X105355824Y-94793923D01*
X105574750Y-94266691D01*
X105575248Y-93695813D01*
X105357243Y-93168200D01*
X104953923Y-92764176D01*
X104426691Y-92545250D01*
X104310280Y-92545148D01*
X101935132Y-90170000D01*
X102676887Y-90170000D01*
X102786120Y-90719151D01*
X103097189Y-91184698D01*
X103562736Y-91495767D01*
X104111887Y-91605000D01*
X104168113Y-91605000D01*
X104717264Y-91495767D01*
X105182811Y-91184698D01*
X105493880Y-90719151D01*
X105603113Y-90170000D01*
X105493880Y-89620849D01*
X105275000Y-89293272D01*
X105275000Y-87630000D01*
X108619050Y-87630000D01*
X108728283Y-88179151D01*
X109039352Y-88644698D01*
X109504899Y-88955767D01*
X110054050Y-89065000D01*
X110925950Y-89065000D01*
X111475101Y-88955767D01*
X111940648Y-88644698D01*
X112251717Y-88179151D01*
X112360950Y-87630000D01*
X112251717Y-87080849D01*
X111940648Y-86615302D01*
X111567883Y-86366228D01*
X111975520Y-86059143D01*
X112245219Y-85561812D01*
X112140719Y-85344000D01*
X110744000Y-85344000D01*
X110744000Y-85364000D01*
X110236000Y-85364000D01*
X110236000Y-85344000D01*
X108839281Y-85344000D01*
X108734781Y-85561812D01*
X109004480Y-86059143D01*
X109412117Y-86366228D01*
X109039352Y-86615302D01*
X108728283Y-87080849D01*
X108619050Y-87630000D01*
X105275000Y-87630000D01*
X105275000Y-85984606D01*
X105355824Y-85903923D01*
X105574750Y-85376691D01*
X105575248Y-84805813D01*
X105357243Y-84278200D01*
X104953923Y-83874176D01*
X104426691Y-83655250D01*
X103855813Y-83654752D01*
X103328200Y-83872757D01*
X102924176Y-84276077D01*
X102705250Y-84803309D01*
X102704752Y-85374187D01*
X102922757Y-85901800D01*
X103005000Y-85984187D01*
X103005000Y-89293272D01*
X102786120Y-89620849D01*
X102676887Y-90170000D01*
X101935132Y-90170000D01*
X98643169Y-86878037D01*
X99060000Y-86960950D01*
X99609151Y-86851717D01*
X100074698Y-86540648D01*
X100385767Y-86075101D01*
X100495000Y-85525950D01*
X100495000Y-84654050D01*
X100385767Y-84104899D01*
X100074698Y-83639352D01*
X99609151Y-83328283D01*
X99060000Y-83219050D01*
X98510849Y-83328283D01*
X98045302Y-83639352D01*
X97790000Y-84021438D01*
X97534698Y-83639352D01*
X97069151Y-83328283D01*
X96520000Y-83219050D01*
X95970849Y-83328283D01*
X95505302Y-83639352D01*
X95250000Y-84021438D01*
X94994698Y-83639352D01*
X94529151Y-83328283D01*
X93980000Y-83219050D01*
X93430849Y-83328283D01*
X92965302Y-83639352D01*
X92716228Y-84012117D01*
X92409143Y-83604480D01*
X91911812Y-83334781D01*
X91694000Y-83439281D01*
X91186000Y-83439281D01*
X90968188Y-83334781D01*
X90470857Y-83604480D01*
X90129218Y-84057985D01*
X89987134Y-84607709D01*
X89662000Y-84607709D01*
X89662000Y-82550000D01*
X108619050Y-82550000D01*
X108728283Y-83099151D01*
X109039352Y-83564698D01*
X109412117Y-83813772D01*
X109004480Y-84120857D01*
X108734781Y-84618188D01*
X108839281Y-84836000D01*
X110236000Y-84836000D01*
X110236000Y-84816000D01*
X110744000Y-84816000D01*
X110744000Y-84836000D01*
X112140719Y-84836000D01*
X112245219Y-84618188D01*
X111975520Y-84120857D01*
X111567883Y-83813772D01*
X111940648Y-83564698D01*
X112251717Y-83099151D01*
X112360950Y-82550000D01*
X112251717Y-82000849D01*
X111940648Y-81535302D01*
X111794650Y-81437749D01*
X111925317Y-81413162D01*
X112141441Y-81274090D01*
X112286431Y-81061890D01*
X112337440Y-80810000D01*
X112337440Y-79210000D01*
X112293162Y-78974683D01*
X112154090Y-78758559D01*
X111941890Y-78613569D01*
X111690000Y-78562560D01*
X109290000Y-78562560D01*
X109054683Y-78606838D01*
X108838559Y-78745910D01*
X108693569Y-78958110D01*
X108642560Y-79210000D01*
X108642560Y-80810000D01*
X108686838Y-81045317D01*
X108825910Y-81261441D01*
X109038110Y-81406431D01*
X109187074Y-81436597D01*
X109039352Y-81535302D01*
X108728283Y-82000849D01*
X108619050Y-82550000D01*
X89662000Y-82550000D01*
X89662000Y-81174273D01*
X103414938Y-81174273D01*
X103498552Y-81405008D01*
X104050611Y-81550380D01*
X104616278Y-81473423D01*
X104781448Y-81405008D01*
X104865062Y-81174273D01*
X104140000Y-80449210D01*
X103414938Y-81174273D01*
X89662000Y-81174273D01*
X89662000Y-80000611D01*
X102679620Y-80000611D01*
X102756577Y-80566278D01*
X102824992Y-80731448D01*
X103055727Y-80815062D01*
X103780790Y-80090000D01*
X104499210Y-80090000D01*
X105224273Y-80815062D01*
X105455008Y-80731448D01*
X105600380Y-80179389D01*
X105523423Y-79613722D01*
X105455008Y-79448552D01*
X105224273Y-79364938D01*
X104499210Y-80090000D01*
X103780790Y-80090000D01*
X103055727Y-79364938D01*
X102824992Y-79448552D01*
X102679620Y-80000611D01*
X89662000Y-80000611D01*
X89662000Y-77034050D01*
X90005000Y-77034050D01*
X90005000Y-77905950D01*
X90114233Y-78455101D01*
X90425302Y-78920648D01*
X90890849Y-79231717D01*
X91440000Y-79340950D01*
X91989151Y-79231717D01*
X92454698Y-78920648D01*
X92710000Y-78538562D01*
X92965302Y-78920648D01*
X93430849Y-79231717D01*
X93980000Y-79340950D01*
X94529151Y-79231717D01*
X94994698Y-78920648D01*
X95250000Y-78538562D01*
X95505302Y-78920648D01*
X95970849Y-79231717D01*
X96520000Y-79340950D01*
X97069151Y-79231717D01*
X97534698Y-78920648D01*
X97632251Y-78774650D01*
X97656838Y-78905317D01*
X97795910Y-79121441D01*
X98008110Y-79266431D01*
X98260000Y-79317440D01*
X99860000Y-79317440D01*
X100095317Y-79273162D01*
X100311441Y-79134090D01*
X100399147Y-79005727D01*
X103414938Y-79005727D01*
X104140000Y-79730790D01*
X104865062Y-79005727D01*
X104781448Y-78774992D01*
X104229389Y-78629620D01*
X103663722Y-78706577D01*
X103498552Y-78774992D01*
X103414938Y-79005727D01*
X100399147Y-79005727D01*
X100456431Y-78921890D01*
X100507440Y-78670000D01*
X100507440Y-76270000D01*
X100463162Y-76034683D01*
X100324090Y-75818559D01*
X100111890Y-75673569D01*
X99860000Y-75622560D01*
X98260000Y-75622560D01*
X98024683Y-75666838D01*
X97808559Y-75805910D01*
X97663569Y-76018110D01*
X97633403Y-76167074D01*
X97534698Y-76019352D01*
X97069151Y-75708283D01*
X96520000Y-75599050D01*
X95970849Y-75708283D01*
X95505302Y-76019352D01*
X95250000Y-76401438D01*
X94994698Y-76019352D01*
X94529151Y-75708283D01*
X93980000Y-75599050D01*
X93430849Y-75708283D01*
X92965302Y-76019352D01*
X92710000Y-76401438D01*
X92454698Y-76019352D01*
X91989151Y-75708283D01*
X91440000Y-75599050D01*
X90890849Y-75708283D01*
X90425302Y-76019352D01*
X90114233Y-76484899D01*
X90005000Y-77034050D01*
X89662000Y-77034050D01*
X89662000Y-73944187D01*
X95084752Y-73944187D01*
X95302757Y-74471800D01*
X95706077Y-74875824D01*
X96233309Y-75094750D01*
X96804187Y-75095248D01*
X97331800Y-74877243D01*
X97735824Y-74473923D01*
X97954750Y-73946691D01*
X97955248Y-73375813D01*
X97737243Y-72848200D01*
X97333923Y-72444176D01*
X96806691Y-72225250D01*
X96235813Y-72224752D01*
X95708200Y-72442757D01*
X95304176Y-72846077D01*
X95085250Y-73373309D01*
X95084752Y-73944187D01*
X89662000Y-73944187D01*
X89662000Y-71404187D01*
X98894752Y-71404187D01*
X99112757Y-71931800D01*
X99516077Y-72335824D01*
X100043309Y-72554750D01*
X100614187Y-72555248D01*
X101141800Y-72337243D01*
X101545824Y-71933923D01*
X101764750Y-71406691D01*
X101765248Y-70835813D01*
X101547243Y-70308200D01*
X101332821Y-70093403D01*
X112464682Y-70093403D01*
X112743455Y-70768086D01*
X113259199Y-71284730D01*
X113933395Y-71564681D01*
X114663403Y-71565318D01*
X115338086Y-71286545D01*
X115854730Y-70770801D01*
X116134681Y-70096605D01*
X116135318Y-69366597D01*
X115856545Y-68691914D01*
X115340801Y-68175270D01*
X114666605Y-67895319D01*
X113936597Y-67894682D01*
X113261914Y-68173455D01*
X112745270Y-68689199D01*
X112465319Y-69363395D01*
X112464682Y-70093403D01*
X101332821Y-70093403D01*
X101143923Y-69904176D01*
X100616691Y-69685250D01*
X100045813Y-69684752D01*
X99518200Y-69902757D01*
X99114176Y-70306077D01*
X98895250Y-70833309D01*
X98894752Y-71404187D01*
X89662000Y-71404187D01*
X89662000Y-66404187D01*
X98894752Y-66404187D01*
X99112757Y-66931800D01*
X99516077Y-67335824D01*
X100043309Y-67554750D01*
X100614187Y-67555248D01*
X101141800Y-67337243D01*
X101545824Y-66933923D01*
X101742614Y-66460000D01*
X128042560Y-66460000D01*
X128042560Y-68160000D01*
X128086838Y-68395317D01*
X128155000Y-68501244D01*
X128155000Y-71120000D01*
X128260427Y-71650017D01*
X128450127Y-71933923D01*
X128560657Y-72099343D01*
X132370657Y-75909343D01*
X132819984Y-76209574D01*
X133350000Y-76315000D01*
X148590000Y-76315000D01*
X149120017Y-76209573D01*
X149569343Y-75909343D01*
X153379343Y-72099343D01*
X153679574Y-71650016D01*
X153785000Y-71120000D01*
X153785000Y-67841827D01*
X153885000Y-67339093D01*
X153885000Y-67280907D01*
X153771961Y-66712622D01*
X153450054Y-66230853D01*
X153164422Y-66040000D01*
X153450054Y-65849147D01*
X153771961Y-65367378D01*
X153885000Y-64799093D01*
X153885000Y-64740907D01*
X153771961Y-64172622D01*
X153450054Y-63690853D01*
X152968285Y-63368946D01*
X152400000Y-63255907D01*
X151831715Y-63368946D01*
X151349946Y-63690853D01*
X151130000Y-64020026D01*
X150910054Y-63690853D01*
X150428285Y-63368946D01*
X149860000Y-63255907D01*
X149291715Y-63368946D01*
X148809946Y-63690853D01*
X148590000Y-64020026D01*
X148370054Y-63690853D01*
X147888285Y-63368946D01*
X147320000Y-63255907D01*
X146751715Y-63368946D01*
X146269946Y-63690853D01*
X146050000Y-64020026D01*
X145830054Y-63690853D01*
X145348285Y-63368946D01*
X144780000Y-63255907D01*
X144211715Y-63368946D01*
X143729946Y-63690853D01*
X143408039Y-64172622D01*
X143295000Y-64740907D01*
X143295000Y-64799093D01*
X143408039Y-65367378D01*
X143729946Y-65849147D01*
X143731179Y-65849971D01*
X143694683Y-65856838D01*
X143588756Y-65925000D01*
X138096532Y-65925000D01*
X138210054Y-65849147D01*
X138531961Y-65367378D01*
X138645000Y-64799093D01*
X138645000Y-64740907D01*
X138531961Y-64172622D01*
X138210054Y-63690853D01*
X137728285Y-63368946D01*
X137160000Y-63255907D01*
X136591715Y-63368946D01*
X136109946Y-63690853D01*
X135890000Y-64020026D01*
X135670054Y-63690853D01*
X135188285Y-63368946D01*
X134620000Y-63255907D01*
X134051715Y-63368946D01*
X133569946Y-63690853D01*
X133350000Y-64020026D01*
X133130054Y-63690853D01*
X132648285Y-63368946D01*
X132080000Y-63255907D01*
X131511715Y-63368946D01*
X131029946Y-63690853D01*
X130810000Y-64020026D01*
X130590054Y-63690853D01*
X130108285Y-63368946D01*
X129540000Y-63255907D01*
X128971715Y-63368946D01*
X128489946Y-63690853D01*
X128168039Y-64172622D01*
X128055000Y-64740907D01*
X128055000Y-64799093D01*
X128168039Y-65367378D01*
X128489946Y-65849147D01*
X128491179Y-65849971D01*
X128454683Y-65856838D01*
X128238559Y-65995910D01*
X128093569Y-66208110D01*
X128042560Y-66460000D01*
X101742614Y-66460000D01*
X101764750Y-66406691D01*
X101765248Y-65835813D01*
X101547243Y-65308200D01*
X101143923Y-64904176D01*
X100616691Y-64685250D01*
X100045813Y-64684752D01*
X99518200Y-64902757D01*
X99114176Y-65306077D01*
X98895250Y-65833309D01*
X98894752Y-66404187D01*
X89662000Y-66404187D01*
X89662000Y-63471887D01*
X95085000Y-63471887D01*
X95085000Y-63528113D01*
X95194233Y-64077264D01*
X95505302Y-64542811D01*
X95970849Y-64853880D01*
X96520000Y-64963113D01*
X97069151Y-64853880D01*
X97534698Y-64542811D01*
X97845767Y-64077264D01*
X97955000Y-63528113D01*
X97955000Y-63471887D01*
X97845767Y-62922736D01*
X97534698Y-62457189D01*
X97069151Y-62146120D01*
X96520000Y-62036887D01*
X95970849Y-62146120D01*
X95505302Y-62457189D01*
X95194233Y-62922736D01*
X95085000Y-63471887D01*
X89662000Y-63471887D01*
X89662000Y-61030000D01*
X112452560Y-61030000D01*
X112452560Y-63430000D01*
X112496838Y-63665317D01*
X112635910Y-63881441D01*
X112848110Y-64026431D01*
X113100000Y-64077440D01*
X115500000Y-64077440D01*
X115735317Y-64033162D01*
X115951441Y-63894090D01*
X116096431Y-63681890D01*
X116147440Y-63430000D01*
X116147440Y-61030000D01*
X116103162Y-60794683D01*
X115964090Y-60578559D01*
X115751890Y-60433569D01*
X115500000Y-60382560D01*
X113100000Y-60382560D01*
X112864683Y-60426838D01*
X112648559Y-60565910D01*
X112503569Y-60778110D01*
X112452560Y-61030000D01*
X89662000Y-61030000D01*
X89662000Y-57933497D01*
X92544900Y-57933497D01*
X92544900Y-58906503D01*
X92654140Y-59455692D01*
X92965231Y-59921272D01*
X93430811Y-60232363D01*
X93980000Y-60341603D01*
X94529189Y-60232363D01*
X94994769Y-59921272D01*
X95250000Y-59539292D01*
X95505231Y-59921272D01*
X95970811Y-60232363D01*
X96520000Y-60341603D01*
X97069189Y-60232363D01*
X97534769Y-59921272D01*
X97845860Y-59455692D01*
X97955100Y-58906503D01*
X97955100Y-57933497D01*
X143344900Y-57933497D01*
X143344900Y-58906503D01*
X143454140Y-59455692D01*
X143765231Y-59921272D01*
X144230811Y-60232363D01*
X144780000Y-60341603D01*
X145329189Y-60232363D01*
X145794769Y-59921272D01*
X146050000Y-59539292D01*
X146305231Y-59921272D01*
X146770811Y-60232363D01*
X147320000Y-60341603D01*
X147869189Y-60232363D01*
X148334769Y-59921272D01*
X148645860Y-59455692D01*
X148755100Y-58906503D01*
X148755100Y-57933497D01*
X148645860Y-57384308D01*
X148334769Y-56918728D01*
X147869189Y-56607637D01*
X147320000Y-56498397D01*
X146770811Y-56607637D01*
X146305231Y-56918728D01*
X146050000Y-57300708D01*
X145794769Y-56918728D01*
X145329189Y-56607637D01*
X144780000Y-56498397D01*
X144230811Y-56607637D01*
X143765231Y-56918728D01*
X143454140Y-57384308D01*
X143344900Y-57933497D01*
X97955100Y-57933497D01*
X97845860Y-57384308D01*
X97534769Y-56918728D01*
X97069189Y-56607637D01*
X96520000Y-56498397D01*
X95970811Y-56607637D01*
X95505231Y-56918728D01*
X95250000Y-57300708D01*
X94994769Y-56918728D01*
X94529189Y-56607637D01*
X93980000Y-56498397D01*
X93430811Y-56607637D01*
X92965231Y-56918728D01*
X92654140Y-57384308D01*
X92544900Y-57933497D01*
X89662000Y-57933497D01*
X89662000Y-54934825D01*
X90087208Y-55360776D01*
X90963501Y-55724645D01*
X91912336Y-55725473D01*
X92789263Y-55363134D01*
X93460776Y-54692792D01*
X93824645Y-53816499D01*
X93824648Y-53812336D01*
X99214527Y-53812336D01*
X99576866Y-54689263D01*
X100247208Y-55360776D01*
X101123501Y-55724645D01*
X102072336Y-55725473D01*
X102949263Y-55363134D01*
X103620776Y-54692792D01*
X103984645Y-53816499D01*
X103984648Y-53812336D01*
X139854527Y-53812336D01*
X140216866Y-54689263D01*
X140887208Y-55360776D01*
X141763501Y-55724645D01*
X142712336Y-55725473D01*
X143589263Y-55363134D01*
X144260776Y-54692792D01*
X144624645Y-53816499D01*
X144625473Y-52867664D01*
X144263134Y-51990737D01*
X143592792Y-51319224D01*
X142716499Y-50955355D01*
X141767664Y-50954527D01*
X140890737Y-51316866D01*
X140219224Y-51987208D01*
X139855355Y-52863501D01*
X139854527Y-53812336D01*
X103984648Y-53812336D01*
X103985473Y-52867664D01*
X103623134Y-51990737D01*
X102952792Y-51319224D01*
X102577534Y-51163403D01*
X104844682Y-51163403D01*
X105123455Y-51838086D01*
X105639199Y-52354730D01*
X106313395Y-52634681D01*
X107043403Y-52635318D01*
X107718086Y-52356545D01*
X108234730Y-51840801D01*
X108514681Y-51166605D01*
X108515000Y-50800000D01*
X135289050Y-50800000D01*
X135428731Y-51502224D01*
X135826509Y-52097541D01*
X136421826Y-52495319D01*
X137124050Y-52635000D01*
X137195950Y-52635000D01*
X137898174Y-52495319D01*
X138493491Y-52097541D01*
X138891269Y-51502224D01*
X139030950Y-50800000D01*
X138891269Y-50097776D01*
X138493491Y-49502459D01*
X137898174Y-49104681D01*
X137195950Y-48965000D01*
X137124050Y-48965000D01*
X136421826Y-49104681D01*
X135826509Y-49502459D01*
X135428731Y-50097776D01*
X135289050Y-50800000D01*
X108515000Y-50800000D01*
X108515318Y-50436597D01*
X108236545Y-49761914D01*
X107720801Y-49245270D01*
X107046605Y-48965319D01*
X106316597Y-48964682D01*
X105641914Y-49243455D01*
X105125270Y-49759199D01*
X104845319Y-50433395D01*
X104844682Y-51163403D01*
X102577534Y-51163403D01*
X102076499Y-50955355D01*
X101127664Y-50954527D01*
X100250737Y-51316866D01*
X99579224Y-51987208D01*
X99215355Y-52863501D01*
X99214527Y-53812336D01*
X93824648Y-53812336D01*
X93825473Y-52867664D01*
X93463134Y-51990737D01*
X92792792Y-51319224D01*
X91916499Y-50955355D01*
X90967664Y-50954527D01*
X90090737Y-51316866D01*
X89662000Y-51744856D01*
X89662000Y-46482000D01*
X154178000Y-46482000D01*
X154178000Y-51745175D01*
X154178000Y-51745175D01*
G37*
X154178000Y-51745175D02*
X153752792Y-51319224D01*
X152876499Y-50955355D01*
X151927664Y-50954527D01*
X151050737Y-51316866D01*
X150379224Y-51987208D01*
X150015355Y-52863501D01*
X150014527Y-53812336D01*
X150376866Y-54689263D01*
X151047208Y-55360776D01*
X151923501Y-55724645D01*
X152872336Y-55725473D01*
X153749263Y-55363134D01*
X154178000Y-54935144D01*
X154178000Y-110998000D01*
X89662000Y-110998000D01*
X89662000Y-107053644D01*
X91174570Y-107053644D01*
X91174570Y-108846356D01*
X91291448Y-109433940D01*
X91624287Y-109932069D01*
X92122416Y-110264908D01*
X92710000Y-110381786D01*
X93297584Y-110264908D01*
X93795713Y-109932069D01*
X93972040Y-109668177D01*
X94343892Y-110064948D01*
X94762242Y-110255527D01*
X94996000Y-110152675D01*
X94996000Y-108204000D01*
X95504000Y-108204000D01*
X95504000Y-110152675D01*
X95737758Y-110255527D01*
X96156108Y-110064948D01*
X96571351Y-109621879D01*
X96785430Y-109053630D01*
X96785430Y-108469365D01*
X98674542Y-108469365D01*
X98999309Y-109063347D01*
X99526661Y-109487832D01*
X99810638Y-109605442D01*
X100076000Y-109505650D01*
X100076000Y-108204000D01*
X100584000Y-108204000D01*
X100584000Y-109505650D01*
X100849362Y-109605442D01*
X101133339Y-109487832D01*
X101660691Y-109063347D01*
X101985458Y-108469365D01*
X101887573Y-108204000D01*
X100584000Y-108204000D01*
X100076000Y-108204000D01*
X98772427Y-108204000D01*
X98674542Y-108469365D01*
X96785430Y-108469365D01*
X96785430Y-108204000D01*
X95504000Y-108204000D01*
X94996000Y-108204000D01*
X94976000Y-108204000D01*
X94976000Y-107950000D01*
X125485907Y-107950000D01*
X125598946Y-108518285D01*
X125920853Y-109000054D01*
X126402622Y-109321961D01*
X126970907Y-109435000D01*
X127029093Y-109435000D01*
X127597378Y-109321961D01*
X128079147Y-109000054D01*
X128401054Y-108518285D01*
X128410784Y-108469365D01*
X130424542Y-108469365D01*
X130749309Y-109063347D01*
X131276661Y-109487832D01*
X131560638Y-109605442D01*
X131826000Y-109505650D01*
X131826000Y-108204000D01*
X132334000Y-108204000D01*
X132334000Y-109505650D01*
X132599362Y-109605442D01*
X132883339Y-109487832D01*
X133410691Y-109063347D01*
X133735458Y-108469365D01*
X133637573Y-108204000D01*
X132334000Y-108204000D01*
X131826000Y-108204000D01*
X130522427Y-108204000D01*
X130424542Y-108469365D01*
X128410784Y-108469365D01*
X128514093Y-107950000D01*
X128410785Y-107430635D01*
X130424542Y-107430635D01*
X130522427Y-107696000D01*
X131826000Y-107696000D01*
X131826000Y-106394350D01*
X132334000Y-106394350D01*
X132334000Y-107696000D01*
X133637573Y-107696000D01*
X133735458Y-107430635D01*
X133529334Y-107053644D01*
X135624570Y-107053644D01*
X135624570Y-108846356D01*
X135741448Y-109433940D01*
X136074287Y-109932069D01*
X136572416Y-110264908D01*
X137160000Y-110381786D01*
X137747584Y-110264908D01*
X138245713Y-109932069D01*
X138422040Y-109668177D01*
X138793892Y-110064948D01*
X139212242Y-110255527D01*
X139446000Y-110152675D01*
X139446000Y-108204000D01*
X139954000Y-108204000D01*
X139954000Y-110152675D01*
X140187758Y-110255527D01*
X140606108Y-110064948D01*
X141021351Y-109621879D01*
X141235430Y-109053630D01*
X141235430Y-108204000D01*
X139954000Y-108204000D01*
X139446000Y-108204000D01*
X139426000Y-108204000D01*
X139426000Y-107921887D01*
X143345000Y-107921887D01*
X143345000Y-107978113D01*
X143454233Y-108527264D01*
X143765302Y-108992811D01*
X144230849Y-109303880D01*
X144780000Y-109413113D01*
X145329151Y-109303880D01*
X145794698Y-108992811D01*
X146105767Y-108527264D01*
X146117283Y-108469365D01*
X148204542Y-108469365D01*
X148529309Y-109063347D01*
X149056661Y-109487832D01*
X149340638Y-109605442D01*
X149606000Y-109505650D01*
X149606000Y-108204000D01*
X150114000Y-108204000D01*
X150114000Y-109505650D01*
X150379362Y-109605442D01*
X150663339Y-109487832D01*
X151190691Y-109063347D01*
X151515458Y-108469365D01*
X151417573Y-108204000D01*
X150114000Y-108204000D01*
X149606000Y-108204000D01*
X148302427Y-108204000D01*
X148204542Y-108469365D01*
X146117283Y-108469365D01*
X146215000Y-107978113D01*
X146215000Y-107921887D01*
X146117284Y-107430635D01*
X148204542Y-107430635D01*
X148302427Y-107696000D01*
X149606000Y-107696000D01*
X149606000Y-106394350D01*
X150114000Y-106394350D01*
X150114000Y-107696000D01*
X151417573Y-107696000D01*
X151515458Y-107430635D01*
X151190691Y-106836653D01*
X150663339Y-106412168D01*
X150379362Y-106294558D01*
X150114000Y-106394350D01*
X149606000Y-106394350D01*
X149340638Y-106294558D01*
X149056661Y-106412168D01*
X148529309Y-106836653D01*
X148204542Y-107430635D01*
X146117284Y-107430635D01*
X146105767Y-107372736D01*
X145794698Y-106907189D01*
X145329151Y-106596120D01*
X144780000Y-106486887D01*
X144230849Y-106596120D01*
X143765302Y-106907189D01*
X143454233Y-107372736D01*
X143345000Y-107921887D01*
X139426000Y-107921887D01*
X139426000Y-107696000D01*
X139446000Y-107696000D01*
X139446000Y-105747325D01*
X139954000Y-105747325D01*
X139954000Y-107696000D01*
X141235430Y-107696000D01*
X141235430Y-106846370D01*
X141021351Y-106278121D01*
X140606108Y-105835052D01*
X140187758Y-105644473D01*
X139954000Y-105747325D01*
X139446000Y-105747325D01*
X139212242Y-105644473D01*
X138793892Y-105835052D01*
X138422040Y-106231823D01*
X138245713Y-105967931D01*
X137747584Y-105635092D01*
X137160000Y-105518214D01*
X136572416Y-105635092D01*
X136074287Y-105967931D01*
X135741448Y-106466060D01*
X135624570Y-107053644D01*
X133529334Y-107053644D01*
X133410691Y-106836653D01*
X132883339Y-106412168D01*
X132599362Y-106294558D01*
X132334000Y-106394350D01*
X131826000Y-106394350D01*
X131560638Y-106294558D01*
X131276661Y-106412168D01*
X130749309Y-106836653D01*
X130424542Y-107430635D01*
X128410785Y-107430635D01*
X128401054Y-107381715D01*
X128079147Y-106899946D01*
X128037548Y-106872150D01*
X128085317Y-106863162D01*
X128301441Y-106724090D01*
X128446431Y-106511890D01*
X128497440Y-106260000D01*
X128497440Y-104560000D01*
X128453162Y-104324683D01*
X128314090Y-104108559D01*
X128101890Y-103963569D01*
X127850000Y-103912560D01*
X126150000Y-103912560D01*
X125914683Y-103956838D01*
X125698559Y-104095910D01*
X125553569Y-104308110D01*
X125502560Y-104560000D01*
X125502560Y-106260000D01*
X125546838Y-106495317D01*
X125685910Y-106711441D01*
X125898110Y-106856431D01*
X125965541Y-106870086D01*
X125920853Y-106899946D01*
X125598946Y-107381715D01*
X125485907Y-107950000D01*
X94976000Y-107950000D01*
X94976000Y-107696000D01*
X94996000Y-107696000D01*
X94996000Y-105747325D01*
X95504000Y-105747325D01*
X95504000Y-107696000D01*
X96785430Y-107696000D01*
X96785430Y-107430635D01*
X98674542Y-107430635D01*
X98772427Y-107696000D01*
X100076000Y-107696000D01*
X100076000Y-106394350D01*
X100584000Y-106394350D01*
X100584000Y-107696000D01*
X101887573Y-107696000D01*
X101985458Y-107430635D01*
X101660691Y-106836653D01*
X101449823Y-106666917D01*
X113282293Y-106666917D01*
X113415955Y-106938914D01*
X114114261Y-107151707D01*
X114840843Y-107081072D01*
X115184045Y-106938914D01*
X115317707Y-106666917D01*
X114300000Y-105649210D01*
X113282293Y-106666917D01*
X101449823Y-106666917D01*
X101133339Y-106412168D01*
X100849362Y-106294558D01*
X100584000Y-106394350D01*
X100076000Y-106394350D01*
X99810638Y-106294558D01*
X99526661Y-106412168D01*
X98999309Y-106836653D01*
X98674542Y-107430635D01*
X96785430Y-107430635D01*
X96785430Y-106846370D01*
X96571351Y-106278121D01*
X96156108Y-105835052D01*
X95737758Y-105644473D01*
X95504000Y-105747325D01*
X94996000Y-105747325D01*
X94762242Y-105644473D01*
X94343892Y-105835052D01*
X93972040Y-106231823D01*
X93795713Y-105967931D01*
X93297584Y-105635092D01*
X92710000Y-105518214D01*
X92122416Y-105635092D01*
X91624287Y-105967931D01*
X91291448Y-106466060D01*
X91174570Y-107053644D01*
X89662000Y-107053644D01*
X89662000Y-105104261D01*
X112438293Y-105104261D01*
X112508928Y-105830843D01*
X112651086Y-106174045D01*
X112923083Y-106307707D01*
X113940790Y-105290000D01*
X114659210Y-105290000D01*
X115676917Y-106307707D01*
X115948914Y-106174045D01*
X116161707Y-105475739D01*
X116091072Y-104749157D01*
X115948914Y-104405955D01*
X115676917Y-104272293D01*
X114659210Y-105290000D01*
X113940790Y-105290000D01*
X112923083Y-104272293D01*
X112651086Y-104405955D01*
X112438293Y-105104261D01*
X89662000Y-105104261D01*
X89662000Y-103913083D01*
X113282293Y-103913083D01*
X114300000Y-104930790D01*
X115317707Y-103913083D01*
X115184045Y-103641086D01*
X114485739Y-103428293D01*
X113759157Y-103498928D01*
X113415955Y-103641086D01*
X113282293Y-103913083D01*
X89662000Y-103913083D01*
X89662000Y-98970611D01*
X91789620Y-98970611D01*
X91866577Y-99536278D01*
X91934992Y-99701448D01*
X92165727Y-99785062D01*
X92890790Y-99060000D01*
X92165727Y-98334938D01*
X91934992Y-98418552D01*
X91789620Y-98970611D01*
X89662000Y-98970611D01*
X89662000Y-97975727D01*
X92524938Y-97975727D01*
X93250000Y-98700790D01*
X93264143Y-98686648D01*
X93623353Y-99045858D01*
X93609210Y-99060000D01*
X93623353Y-99074143D01*
X93264143Y-99433353D01*
X93250000Y-99419210D01*
X92524938Y-100144273D01*
X92608552Y-100375008D01*
X93160611Y-100520380D01*
X93726278Y-100443423D01*
X93891448Y-100375008D01*
X93940216Y-100240431D01*
X93985910Y-100311441D01*
X94198110Y-100456431D01*
X94450000Y-100507440D01*
X96050000Y-100507440D01*
X96285317Y-100463162D01*
X96501441Y-100324090D01*
X96646431Y-100111890D01*
X96697440Y-99860000D01*
X96697440Y-98260000D01*
X96653162Y-98024683D01*
X96514090Y-97808559D01*
X96301890Y-97663569D01*
X96050000Y-97612560D01*
X94450000Y-97612560D01*
X94214683Y-97656838D01*
X93998559Y-97795910D01*
X93940625Y-97880699D01*
X93891448Y-97744992D01*
X93339389Y-97599620D01*
X92773722Y-97676577D01*
X92608552Y-97744992D01*
X92524938Y-97975727D01*
X89662000Y-97975727D01*
X89662000Y-96690000D01*
X98582560Y-96690000D01*
X98582560Y-98890000D01*
X98626838Y-99125317D01*
X98765910Y-99341441D01*
X98978110Y-99486431D01*
X99230000Y-99537440D01*
X101430000Y-99537440D01*
X101665317Y-99493162D01*
X101881441Y-99354090D01*
X102026431Y-99141890D01*
X102077440Y-98890000D01*
X102077440Y-96690000D01*
X102058624Y-96590000D01*
X112452560Y-96590000D01*
X112452560Y-98990000D01*
X112496838Y-99225317D01*
X112635910Y-99441441D01*
X112848110Y-99586431D01*
X113100000Y-99637440D01*
X115500000Y-99637440D01*
X115735317Y-99593162D01*
X115951441Y-99454090D01*
X116096431Y-99241890D01*
X116147440Y-98990000D01*
X116147440Y-97901246D01*
X117358686Y-96690000D01*
X130332560Y-96690000D01*
X130332560Y-98890000D01*
X130376838Y-99125317D01*
X130515910Y-99341441D01*
X130728110Y-99486431D01*
X130980000Y-99537440D01*
X133180000Y-99537440D01*
X133415317Y-99493162D01*
X133631441Y-99354090D01*
X133776431Y-99141890D01*
X133827440Y-98890000D01*
X133827440Y-98074187D01*
X143344752Y-98074187D01*
X143562757Y-98601800D01*
X143966077Y-99005824D01*
X144493309Y-99224750D01*
X145064187Y-99225248D01*
X145591800Y-99007243D01*
X145995824Y-98603923D01*
X146214750Y-98076691D01*
X146215248Y-97505813D01*
X145997243Y-96978200D01*
X145709546Y-96690000D01*
X148112560Y-96690000D01*
X148112560Y-98890000D01*
X148156838Y-99125317D01*
X148295910Y-99341441D01*
X148508110Y-99486431D01*
X148760000Y-99537440D01*
X150960000Y-99537440D01*
X151195317Y-99493162D01*
X151411441Y-99354090D01*
X151556431Y-99141890D01*
X151607440Y-98890000D01*
X151607440Y-96690000D01*
X151563162Y-96454683D01*
X151424090Y-96238559D01*
X151211890Y-96093569D01*
X150960000Y-96042560D01*
X148760000Y-96042560D01*
X148524683Y-96086838D01*
X148308559Y-96225910D01*
X148163569Y-96438110D01*
X148112560Y-96690000D01*
X145709546Y-96690000D01*
X145593923Y-96574176D01*
X145066691Y-96355250D01*
X144495813Y-96354752D01*
X143968200Y-96572757D01*
X143564176Y-96976077D01*
X143345250Y-97503309D01*
X143344752Y-98074187D01*
X133827440Y-98074187D01*
X133827440Y-96690000D01*
X133783162Y-96454683D01*
X133644090Y-96238559D01*
X133431890Y-96093569D01*
X133180000Y-96042560D01*
X130980000Y-96042560D01*
X130744683Y-96086838D01*
X130528559Y-96225910D01*
X130383569Y-96438110D01*
X130332560Y-96690000D01*
X117358686Y-96690000D01*
X121134499Y-92914187D01*
X125564752Y-92914187D01*
X125782757Y-93441800D01*
X126186077Y-93845824D01*
X126713309Y-94064750D01*
X127284187Y-94065248D01*
X127811800Y-93847243D01*
X128215824Y-93443923D01*
X128434750Y-92916691D01*
X128435248Y-92345813D01*
X128305874Y-92032703D01*
X129667000Y-92032703D01*
X129667000Y-93387297D01*
X129783008Y-93970507D01*
X130113369Y-94464928D01*
X130607790Y-94795289D01*
X131191000Y-94911297D01*
X131774210Y-94795289D01*
X132268631Y-94464928D01*
X132598992Y-93970507D01*
X132715000Y-93387297D01*
X132715000Y-92032703D01*
X133070600Y-92032703D01*
X133070600Y-93387297D01*
X133186608Y-93970507D01*
X133516969Y-94464928D01*
X134011390Y-94795289D01*
X134594600Y-94911297D01*
X135177810Y-94795289D01*
X135672231Y-94464928D01*
X136002592Y-93970507D01*
X136118600Y-93387297D01*
X136118600Y-92032703D01*
X136474200Y-92032703D01*
X136474200Y-93387297D01*
X136590208Y-93970507D01*
X136920569Y-94464928D01*
X137414990Y-94795289D01*
X137998200Y-94911297D01*
X138581410Y-94795289D01*
X139075831Y-94464928D01*
X139406192Y-93970507D01*
X139522200Y-93387297D01*
X139522200Y-92964000D01*
X139877800Y-92964000D01*
X139877800Y-93599000D01*
X140091009Y-94162875D01*
X140503774Y-94602236D01*
X140915856Y-94789449D01*
X141147800Y-94686414D01*
X141147800Y-92964000D01*
X141655800Y-92964000D01*
X141655800Y-94686414D01*
X141887744Y-94789449D01*
X142299826Y-94602236D01*
X142712591Y-94162875D01*
X142925800Y-93599000D01*
X142925800Y-92964000D01*
X141655800Y-92964000D01*
X141147800Y-92964000D01*
X139877800Y-92964000D01*
X139522200Y-92964000D01*
X139522200Y-92032703D01*
X139480090Y-91821000D01*
X139877800Y-91821000D01*
X139877800Y-92456000D01*
X141147800Y-92456000D01*
X141147800Y-90733586D01*
X141655800Y-90733586D01*
X141655800Y-92456000D01*
X142925800Y-92456000D01*
X142925800Y-92032703D01*
X143281400Y-92032703D01*
X143281400Y-93387297D01*
X143397408Y-93970507D01*
X143727769Y-94464928D01*
X144222190Y-94795289D01*
X144805400Y-94911297D01*
X145388610Y-94795289D01*
X145883031Y-94464928D01*
X146213392Y-93970507D01*
X146329400Y-93387297D01*
X146329400Y-92032703D01*
X146685000Y-92032703D01*
X146685000Y-93387297D01*
X146801008Y-93970507D01*
X147131369Y-94464928D01*
X147625790Y-94795289D01*
X148209000Y-94911297D01*
X148792210Y-94795289D01*
X149286631Y-94464928D01*
X149616992Y-93970507D01*
X149733000Y-93387297D01*
X149733000Y-92914187D01*
X150964752Y-92914187D01*
X151182757Y-93441800D01*
X151586077Y-93845824D01*
X152113309Y-94064750D01*
X152684187Y-94065248D01*
X153211800Y-93847243D01*
X153615824Y-93443923D01*
X153834750Y-92916691D01*
X153835248Y-92345813D01*
X153617243Y-91818200D01*
X153213923Y-91414176D01*
X152686691Y-91195250D01*
X152115813Y-91194752D01*
X151588200Y-91412757D01*
X151184176Y-91816077D01*
X150965250Y-92343309D01*
X150964752Y-92914187D01*
X149733000Y-92914187D01*
X149733000Y-92032703D01*
X149616992Y-91449493D01*
X149286631Y-90955072D01*
X148792210Y-90624711D01*
X148209000Y-90508703D01*
X147625790Y-90624711D01*
X147131369Y-90955072D01*
X146801008Y-91449493D01*
X146685000Y-92032703D01*
X146329400Y-92032703D01*
X146213392Y-91449493D01*
X145883031Y-90955072D01*
X145388610Y-90624711D01*
X144805400Y-90508703D01*
X144222190Y-90624711D01*
X143727769Y-90955072D01*
X143397408Y-91449493D01*
X143281400Y-92032703D01*
X142925800Y-92032703D01*
X142925800Y-91821000D01*
X142712591Y-91257125D01*
X142299826Y-90817764D01*
X141887744Y-90630551D01*
X141655800Y-90733586D01*
X141147800Y-90733586D01*
X140915856Y-90630551D01*
X140503774Y-90817764D01*
X140091009Y-91257125D01*
X139877800Y-91821000D01*
X139480090Y-91821000D01*
X139406192Y-91449493D01*
X139075831Y-90955072D01*
X138581410Y-90624711D01*
X137998200Y-90508703D01*
X137414990Y-90624711D01*
X136920569Y-90955072D01*
X136590208Y-91449493D01*
X136474200Y-92032703D01*
X136118600Y-92032703D01*
X136002592Y-91449493D01*
X135672231Y-90955072D01*
X135177810Y-90624711D01*
X134594600Y-90508703D01*
X134011390Y-90624711D01*
X133516969Y-90955072D01*
X133186608Y-91449493D01*
X133070600Y-92032703D01*
X132715000Y-92032703D01*
X132598992Y-91449493D01*
X132268631Y-90955072D01*
X131774210Y-90624711D01*
X131191000Y-90508703D01*
X130607790Y-90624711D01*
X130113369Y-90955072D01*
X129783008Y-91449493D01*
X129667000Y-92032703D01*
X128305874Y-92032703D01*
X128217243Y-91818200D01*
X127813923Y-91414176D01*
X127286691Y-91195250D01*
X126715813Y-91194752D01*
X126188200Y-91412757D01*
X125784176Y-91816077D01*
X125565250Y-92343309D01*
X125564752Y-92914187D01*
X121134499Y-92914187D01*
X124169343Y-89879343D01*
X124469574Y-89430016D01*
X124575000Y-88900000D01*
X124575000Y-86475000D01*
X126125848Y-86475000D01*
X125784176Y-86816077D01*
X125565250Y-87343309D01*
X125564752Y-87914187D01*
X125782757Y-88441800D01*
X126186077Y-88845824D01*
X126713309Y-89064750D01*
X127284187Y-89065248D01*
X127811800Y-88847243D01*
X128215824Y-88443923D01*
X128434750Y-87916691D01*
X128435248Y-87345813D01*
X128272819Y-86952703D01*
X131368800Y-86952703D01*
X131368800Y-88307297D01*
X131484808Y-88890507D01*
X131815169Y-89384928D01*
X132309590Y-89715289D01*
X132892800Y-89831297D01*
X133476010Y-89715289D01*
X133970431Y-89384928D01*
X134300792Y-88890507D01*
X134416800Y-88307297D01*
X134416800Y-87884000D01*
X134772400Y-87884000D01*
X134772400Y-88519000D01*
X134985609Y-89082875D01*
X135398374Y-89522236D01*
X135810456Y-89709449D01*
X136042400Y-89606414D01*
X136042400Y-87884000D01*
X136550400Y-87884000D01*
X136550400Y-89606414D01*
X136782344Y-89709449D01*
X137194426Y-89522236D01*
X137607191Y-89082875D01*
X137820400Y-88519000D01*
X137820400Y-87884000D01*
X136550400Y-87884000D01*
X136042400Y-87884000D01*
X134772400Y-87884000D01*
X134416800Y-87884000D01*
X134416800Y-86952703D01*
X134374690Y-86741000D01*
X134772400Y-86741000D01*
X134772400Y-87376000D01*
X136042400Y-87376000D01*
X136042400Y-85653586D01*
X135810456Y-85550551D01*
X135398374Y-85737764D01*
X134985609Y-86177125D01*
X134772400Y-86741000D01*
X134374690Y-86741000D01*
X134300792Y-86369493D01*
X133970431Y-85875072D01*
X133476010Y-85544711D01*
X132892800Y-85428703D01*
X132309590Y-85544711D01*
X131815169Y-85875072D01*
X131484808Y-86369493D01*
X131368800Y-86952703D01*
X128272819Y-86952703D01*
X128217243Y-86818200D01*
X127874641Y-86475000D01*
X129540000Y-86475000D01*
X130070017Y-86369573D01*
X130519343Y-86069343D01*
X131383686Y-85205000D01*
X136586314Y-85205000D01*
X137056348Y-85675034D01*
X136782344Y-85550551D01*
X136550400Y-85653586D01*
X136550400Y-87376000D01*
X137820400Y-87376000D01*
X137820400Y-86741000D01*
X137636833Y-86255519D01*
X138202217Y-86820903D01*
X138176000Y-86952703D01*
X138176000Y-88307297D01*
X138292008Y-88890507D01*
X138622369Y-89384928D01*
X139116790Y-89715289D01*
X139700000Y-89831297D01*
X140283210Y-89715289D01*
X140777631Y-89384928D01*
X141107992Y-88890507D01*
X141224000Y-88307297D01*
X141224000Y-86952703D01*
X141579600Y-86952703D01*
X141579600Y-88307297D01*
X141695608Y-88890507D01*
X142025969Y-89384928D01*
X142520390Y-89715289D01*
X143103600Y-89831297D01*
X143686810Y-89715289D01*
X144181231Y-89384928D01*
X144511592Y-88890507D01*
X144627600Y-88307297D01*
X144627600Y-86952703D01*
X144983200Y-86952703D01*
X144983200Y-88307297D01*
X145099208Y-88890507D01*
X145429569Y-89384928D01*
X145923990Y-89715289D01*
X146507200Y-89831297D01*
X147090410Y-89715289D01*
X147584831Y-89384928D01*
X147915192Y-88890507D01*
X148031200Y-88307297D01*
X148031200Y-87914187D01*
X150964752Y-87914187D01*
X151182757Y-88441800D01*
X151586077Y-88845824D01*
X152113309Y-89064750D01*
X152684187Y-89065248D01*
X153211800Y-88847243D01*
X153615824Y-88443923D01*
X153834750Y-87916691D01*
X153835248Y-87345813D01*
X153617243Y-86818200D01*
X153213923Y-86414176D01*
X152686691Y-86195250D01*
X152115813Y-86194752D01*
X151588200Y-86412757D01*
X151184176Y-86816077D01*
X150965250Y-87343309D01*
X150964752Y-87914187D01*
X148031200Y-87914187D01*
X148031200Y-86952703D01*
X147915192Y-86369493D01*
X147584831Y-85875072D01*
X147090410Y-85544711D01*
X146507200Y-85428703D01*
X145923990Y-85544711D01*
X145429569Y-85875072D01*
X145099208Y-86369493D01*
X144983200Y-86952703D01*
X144627600Y-86952703D01*
X144511592Y-86369493D01*
X144181231Y-85875072D01*
X143686810Y-85544711D01*
X143103600Y-85428703D01*
X142520390Y-85544711D01*
X142025969Y-85875072D01*
X141695608Y-86369493D01*
X141579600Y-86952703D01*
X141224000Y-86952703D01*
X141107992Y-86369493D01*
X141077943Y-86324521D01*
X140979573Y-85829983D01*
X140679343Y-85380657D01*
X138139343Y-82840657D01*
X137690017Y-82540427D01*
X137160000Y-82435000D01*
X130810000Y-82435000D01*
X130279983Y-82540427D01*
X129830657Y-82840657D01*
X128966314Y-83705000D01*
X119350672Y-83705000D01*
X119560648Y-83564698D01*
X119871717Y-83099151D01*
X119980950Y-82550000D01*
X119871717Y-82000849D01*
X119560648Y-81535302D01*
X119178562Y-81280000D01*
X119560648Y-81024698D01*
X119871717Y-80559151D01*
X119887100Y-80481812D01*
X131994781Y-80481812D01*
X132058077Y-80634675D01*
X132395472Y-81081522D01*
X132878185Y-81365239D01*
X133096000Y-81263612D01*
X133096000Y-80264000D01*
X133604000Y-80264000D01*
X133604000Y-81263612D01*
X133821815Y-81365239D01*
X134304528Y-81081522D01*
X134641923Y-80634675D01*
X134705219Y-80481812D01*
X134615202Y-80294187D01*
X142074752Y-80294187D01*
X142292757Y-80821800D01*
X142696077Y-81225824D01*
X143223309Y-81444750D01*
X143794187Y-81445248D01*
X144321800Y-81227243D01*
X144725824Y-80823923D01*
X144944750Y-80296691D01*
X144945248Y-79725813D01*
X144727243Y-79198200D01*
X144323923Y-78794176D01*
X143796691Y-78575250D01*
X143225813Y-78574752D01*
X142698200Y-78792757D01*
X142294176Y-79196077D01*
X142075250Y-79723309D01*
X142074752Y-80294187D01*
X134615202Y-80294187D01*
X134600719Y-80264000D01*
X133604000Y-80264000D01*
X133096000Y-80264000D01*
X132099281Y-80264000D01*
X131994781Y-80481812D01*
X119887100Y-80481812D01*
X119980950Y-80010000D01*
X119887101Y-79538188D01*
X131994781Y-79538188D01*
X132099281Y-79756000D01*
X133096000Y-79756000D01*
X133096000Y-78756388D01*
X133604000Y-78756388D01*
X133604000Y-79756000D01*
X134600719Y-79756000D01*
X134705219Y-79538188D01*
X134641923Y-79385325D01*
X134304528Y-78938478D01*
X133821815Y-78654761D01*
X133604000Y-78756388D01*
X133096000Y-78756388D01*
X132878185Y-78654761D01*
X132395472Y-78938478D01*
X132058077Y-79385325D01*
X131994781Y-79538188D01*
X119887101Y-79538188D01*
X119871717Y-79460849D01*
X119560648Y-78995302D01*
X119095101Y-78684233D01*
X118545950Y-78575000D01*
X117674050Y-78575000D01*
X117124899Y-78684233D01*
X116659352Y-78995302D01*
X116348283Y-79460849D01*
X116239050Y-80010000D01*
X116348283Y-80559151D01*
X116659352Y-81024698D01*
X117041438Y-81280000D01*
X116659352Y-81535302D01*
X116348283Y-82000849D01*
X116239050Y-82550000D01*
X116348283Y-83099151D01*
X116659352Y-83564698D01*
X117041438Y-83820000D01*
X116659352Y-84075302D01*
X116348283Y-84540849D01*
X116239050Y-85090000D01*
X116348283Y-85639151D01*
X116659352Y-86104698D01*
X117041438Y-86360000D01*
X116659352Y-86615302D01*
X116348283Y-87080849D01*
X116239050Y-87630000D01*
X116348283Y-88179151D01*
X116659352Y-88644698D01*
X117124899Y-88955767D01*
X117674050Y-89065000D01*
X118545950Y-89065000D01*
X119095101Y-88955767D01*
X119560648Y-88644698D01*
X119871717Y-88179151D01*
X119980950Y-87630000D01*
X119871717Y-87080849D01*
X119560648Y-86615302D01*
X119350672Y-86475000D01*
X121805000Y-86475000D01*
X121805000Y-88326314D01*
X114188754Y-95942560D01*
X113100000Y-95942560D01*
X112864683Y-95986838D01*
X112648559Y-96125910D01*
X112503569Y-96338110D01*
X112452560Y-96590000D01*
X102058624Y-96590000D01*
X102033162Y-96454683D01*
X101894090Y-96238559D01*
X101681890Y-96093569D01*
X101430000Y-96042560D01*
X99230000Y-96042560D01*
X98994683Y-96086838D01*
X98778559Y-96225910D01*
X98633569Y-96438110D01*
X98582560Y-96690000D01*
X89662000Y-96690000D01*
X89662000Y-93980000D01*
X92516887Y-93980000D01*
X92626120Y-94529151D01*
X92937189Y-94994698D01*
X93402736Y-95305767D01*
X93951887Y-95415000D01*
X94008113Y-95415000D01*
X94557264Y-95305767D01*
X95022811Y-94994698D01*
X95333880Y-94529151D01*
X95443113Y-93980000D01*
X95333880Y-93430849D01*
X95022811Y-92965302D01*
X94557264Y-92654233D01*
X94008113Y-92545000D01*
X93951887Y-92545000D01*
X93402736Y-92654233D01*
X92937189Y-92965302D01*
X92626120Y-93430849D01*
X92516887Y-93980000D01*
X89662000Y-93980000D01*
X89662000Y-90454187D01*
X92544752Y-90454187D01*
X92762757Y-90981800D01*
X93166077Y-91385824D01*
X93693309Y-91604750D01*
X94264187Y-91605248D01*
X94791800Y-91387243D01*
X95195824Y-90983923D01*
X95414750Y-90456691D01*
X95415248Y-89885813D01*
X95197243Y-89358200D01*
X94793923Y-88954176D01*
X94266691Y-88735250D01*
X93695813Y-88734752D01*
X93168200Y-88952757D01*
X92764176Y-89356077D01*
X92545250Y-89883309D01*
X92544752Y-90454187D01*
X89662000Y-90454187D01*
X89662000Y-85572291D01*
X89987134Y-85572291D01*
X90129218Y-86122015D01*
X90470857Y-86575520D01*
X90968188Y-86845219D01*
X91186000Y-86740719D01*
X91186000Y-85344000D01*
X90150898Y-85344000D01*
X89987134Y-85572291D01*
X89662000Y-85572291D01*
X89662000Y-84607709D01*
X89987134Y-84607709D01*
X90150898Y-84836000D01*
X91186000Y-84836000D01*
X91186000Y-83439281D01*
X91694000Y-83439281D01*
X91694000Y-84836000D01*
X91714000Y-84836000D01*
X91714000Y-85344000D01*
X91694000Y-85344000D01*
X91694000Y-86740719D01*
X91911812Y-86845219D01*
X92409143Y-86575520D01*
X92716228Y-86167883D01*
X92965302Y-86540648D01*
X93430849Y-86851717D01*
X93980000Y-86960950D01*
X94529151Y-86851717D01*
X94994698Y-86540648D01*
X95250000Y-86158562D01*
X95385171Y-86360859D01*
X95471397Y-86794346D01*
X95717434Y-87162566D01*
X102704852Y-94149984D01*
X102704752Y-94264187D01*
X102922757Y-94791800D01*
X103326077Y-95195824D01*
X103853309Y-95414750D01*
X104424187Y-95415248D01*
X104951800Y-95197243D01*
X105355824Y-94793923D01*
X105574750Y-94266691D01*
X105575248Y-93695813D01*
X105357243Y-93168200D01*
X104953923Y-92764176D01*
X104426691Y-92545250D01*
X104310280Y-92545148D01*
X101935132Y-90170000D01*
X102676887Y-90170000D01*
X102786120Y-90719151D01*
X103097189Y-91184698D01*
X103562736Y-91495767D01*
X104111887Y-91605000D01*
X104168113Y-91605000D01*
X104717264Y-91495767D01*
X105182811Y-91184698D01*
X105493880Y-90719151D01*
X105603113Y-90170000D01*
X105493880Y-89620849D01*
X105275000Y-89293272D01*
X105275000Y-87630000D01*
X108619050Y-87630000D01*
X108728283Y-88179151D01*
X109039352Y-88644698D01*
X109504899Y-88955767D01*
X110054050Y-89065000D01*
X110925950Y-89065000D01*
X111475101Y-88955767D01*
X111940648Y-88644698D01*
X112251717Y-88179151D01*
X112360950Y-87630000D01*
X112251717Y-87080849D01*
X111940648Y-86615302D01*
X111567883Y-86366228D01*
X111975520Y-86059143D01*
X112245219Y-85561812D01*
X112140719Y-85344000D01*
X110744000Y-85344000D01*
X110744000Y-85364000D01*
X110236000Y-85364000D01*
X110236000Y-85344000D01*
X108839281Y-85344000D01*
X108734781Y-85561812D01*
X109004480Y-86059143D01*
X109412117Y-86366228D01*
X109039352Y-86615302D01*
X108728283Y-87080849D01*
X108619050Y-87630000D01*
X105275000Y-87630000D01*
X105275000Y-85984606D01*
X105355824Y-85903923D01*
X105574750Y-85376691D01*
X105575248Y-84805813D01*
X105357243Y-84278200D01*
X104953923Y-83874176D01*
X104426691Y-83655250D01*
X103855813Y-83654752D01*
X103328200Y-83872757D01*
X102924176Y-84276077D01*
X102705250Y-84803309D01*
X102704752Y-85374187D01*
X102922757Y-85901800D01*
X103005000Y-85984187D01*
X103005000Y-89293272D01*
X102786120Y-89620849D01*
X102676887Y-90170000D01*
X101935132Y-90170000D01*
X98643169Y-86878037D01*
X99060000Y-86960950D01*
X99609151Y-86851717D01*
X100074698Y-86540648D01*
X100385767Y-86075101D01*
X100495000Y-85525950D01*
X100495000Y-84654050D01*
X100385767Y-84104899D01*
X100074698Y-83639352D01*
X99609151Y-83328283D01*
X99060000Y-83219050D01*
X98510849Y-83328283D01*
X98045302Y-83639352D01*
X97790000Y-84021438D01*
X97534698Y-83639352D01*
X97069151Y-83328283D01*
X96520000Y-83219050D01*
X95970849Y-83328283D01*
X95505302Y-83639352D01*
X95250000Y-84021438D01*
X94994698Y-83639352D01*
X94529151Y-83328283D01*
X93980000Y-83219050D01*
X93430849Y-83328283D01*
X92965302Y-83639352D01*
X92716228Y-84012117D01*
X92409143Y-83604480D01*
X91911812Y-83334781D01*
X91694000Y-83439281D01*
X91186000Y-83439281D01*
X90968188Y-83334781D01*
X90470857Y-83604480D01*
X90129218Y-84057985D01*
X89987134Y-84607709D01*
X89662000Y-84607709D01*
X89662000Y-82550000D01*
X108619050Y-82550000D01*
X108728283Y-83099151D01*
X109039352Y-83564698D01*
X109412117Y-83813772D01*
X109004480Y-84120857D01*
X108734781Y-84618188D01*
X108839281Y-84836000D01*
X110236000Y-84836000D01*
X110236000Y-84816000D01*
X110744000Y-84816000D01*
X110744000Y-84836000D01*
X112140719Y-84836000D01*
X112245219Y-84618188D01*
X111975520Y-84120857D01*
X111567883Y-83813772D01*
X111940648Y-83564698D01*
X112251717Y-83099151D01*
X112360950Y-82550000D01*
X112251717Y-82000849D01*
X111940648Y-81535302D01*
X111794650Y-81437749D01*
X111925317Y-81413162D01*
X112141441Y-81274090D01*
X112286431Y-81061890D01*
X112337440Y-80810000D01*
X112337440Y-79210000D01*
X112293162Y-78974683D01*
X112154090Y-78758559D01*
X111941890Y-78613569D01*
X111690000Y-78562560D01*
X109290000Y-78562560D01*
X109054683Y-78606838D01*
X108838559Y-78745910D01*
X108693569Y-78958110D01*
X108642560Y-79210000D01*
X108642560Y-80810000D01*
X108686838Y-81045317D01*
X108825910Y-81261441D01*
X109038110Y-81406431D01*
X109187074Y-81436597D01*
X109039352Y-81535302D01*
X108728283Y-82000849D01*
X108619050Y-82550000D01*
X89662000Y-82550000D01*
X89662000Y-81174273D01*
X103414938Y-81174273D01*
X103498552Y-81405008D01*
X104050611Y-81550380D01*
X104616278Y-81473423D01*
X104781448Y-81405008D01*
X104865062Y-81174273D01*
X104140000Y-80449210D01*
X103414938Y-81174273D01*
X89662000Y-81174273D01*
X89662000Y-80000611D01*
X102679620Y-80000611D01*
X102756577Y-80566278D01*
X102824992Y-80731448D01*
X103055727Y-80815062D01*
X103780790Y-80090000D01*
X104499210Y-80090000D01*
X105224273Y-80815062D01*
X105455008Y-80731448D01*
X105600380Y-80179389D01*
X105523423Y-79613722D01*
X105455008Y-79448552D01*
X105224273Y-79364938D01*
X104499210Y-80090000D01*
X103780790Y-80090000D01*
X103055727Y-79364938D01*
X102824992Y-79448552D01*
X102679620Y-80000611D01*
X89662000Y-80000611D01*
X89662000Y-77034050D01*
X90005000Y-77034050D01*
X90005000Y-77905950D01*
X90114233Y-78455101D01*
X90425302Y-78920648D01*
X90890849Y-79231717D01*
X91440000Y-79340950D01*
X91989151Y-79231717D01*
X92454698Y-78920648D01*
X92710000Y-78538562D01*
X92965302Y-78920648D01*
X93430849Y-79231717D01*
X93980000Y-79340950D01*
X94529151Y-79231717D01*
X94994698Y-78920648D01*
X95250000Y-78538562D01*
X95505302Y-78920648D01*
X95970849Y-79231717D01*
X96520000Y-79340950D01*
X97069151Y-79231717D01*
X97534698Y-78920648D01*
X97632251Y-78774650D01*
X97656838Y-78905317D01*
X97795910Y-79121441D01*
X98008110Y-79266431D01*
X98260000Y-79317440D01*
X99860000Y-79317440D01*
X100095317Y-79273162D01*
X100311441Y-79134090D01*
X100399147Y-79005727D01*
X103414938Y-79005727D01*
X104140000Y-79730790D01*
X104865062Y-79005727D01*
X104781448Y-78774992D01*
X104229389Y-78629620D01*
X103663722Y-78706577D01*
X103498552Y-78774992D01*
X103414938Y-79005727D01*
X100399147Y-79005727D01*
X100456431Y-78921890D01*
X100507440Y-78670000D01*
X100507440Y-76270000D01*
X100463162Y-76034683D01*
X100324090Y-75818559D01*
X100111890Y-75673569D01*
X99860000Y-75622560D01*
X98260000Y-75622560D01*
X98024683Y-75666838D01*
X97808559Y-75805910D01*
X97663569Y-76018110D01*
X97633403Y-76167074D01*
X97534698Y-76019352D01*
X97069151Y-75708283D01*
X96520000Y-75599050D01*
X95970849Y-75708283D01*
X95505302Y-76019352D01*
X95250000Y-76401438D01*
X94994698Y-76019352D01*
X94529151Y-75708283D01*
X93980000Y-75599050D01*
X93430849Y-75708283D01*
X92965302Y-76019352D01*
X92710000Y-76401438D01*
X92454698Y-76019352D01*
X91989151Y-75708283D01*
X91440000Y-75599050D01*
X90890849Y-75708283D01*
X90425302Y-76019352D01*
X90114233Y-76484899D01*
X90005000Y-77034050D01*
X89662000Y-77034050D01*
X89662000Y-73944187D01*
X95084752Y-73944187D01*
X95302757Y-74471800D01*
X95706077Y-74875824D01*
X96233309Y-75094750D01*
X96804187Y-75095248D01*
X97331800Y-74877243D01*
X97735824Y-74473923D01*
X97954750Y-73946691D01*
X97955248Y-73375813D01*
X97737243Y-72848200D01*
X97333923Y-72444176D01*
X96806691Y-72225250D01*
X96235813Y-72224752D01*
X95708200Y-72442757D01*
X95304176Y-72846077D01*
X95085250Y-73373309D01*
X95084752Y-73944187D01*
X89662000Y-73944187D01*
X89662000Y-71404187D01*
X98894752Y-71404187D01*
X99112757Y-71931800D01*
X99516077Y-72335824D01*
X100043309Y-72554750D01*
X100614187Y-72555248D01*
X101141800Y-72337243D01*
X101545824Y-71933923D01*
X101764750Y-71406691D01*
X101765248Y-70835813D01*
X101547243Y-70308200D01*
X101332821Y-70093403D01*
X112464682Y-70093403D01*
X112743455Y-70768086D01*
X113259199Y-71284730D01*
X113933395Y-71564681D01*
X114663403Y-71565318D01*
X115338086Y-71286545D01*
X115854730Y-70770801D01*
X116134681Y-70096605D01*
X116135318Y-69366597D01*
X115856545Y-68691914D01*
X115340801Y-68175270D01*
X114666605Y-67895319D01*
X113936597Y-67894682D01*
X113261914Y-68173455D01*
X112745270Y-68689199D01*
X112465319Y-69363395D01*
X112464682Y-70093403D01*
X101332821Y-70093403D01*
X101143923Y-69904176D01*
X100616691Y-69685250D01*
X100045813Y-69684752D01*
X99518200Y-69902757D01*
X99114176Y-70306077D01*
X98895250Y-70833309D01*
X98894752Y-71404187D01*
X89662000Y-71404187D01*
X89662000Y-66404187D01*
X98894752Y-66404187D01*
X99112757Y-66931800D01*
X99516077Y-67335824D01*
X100043309Y-67554750D01*
X100614187Y-67555248D01*
X101141800Y-67337243D01*
X101545824Y-66933923D01*
X101742614Y-66460000D01*
X128042560Y-66460000D01*
X128042560Y-68160000D01*
X128086838Y-68395317D01*
X128155000Y-68501244D01*
X128155000Y-71120000D01*
X128260427Y-71650017D01*
X128450127Y-71933923D01*
X128560657Y-72099343D01*
X132370657Y-75909343D01*
X132819984Y-76209574D01*
X133350000Y-76315000D01*
X148590000Y-76315000D01*
X149120017Y-76209573D01*
X149569343Y-75909343D01*
X153379343Y-72099343D01*
X153679574Y-71650016D01*
X153785000Y-71120000D01*
X153785000Y-67841827D01*
X153885000Y-67339093D01*
X153885000Y-67280907D01*
X153771961Y-66712622D01*
X153450054Y-66230853D01*
X153164422Y-66040000D01*
X153450054Y-65849147D01*
X153771961Y-65367378D01*
X153885000Y-64799093D01*
X153885000Y-64740907D01*
X153771961Y-64172622D01*
X153450054Y-63690853D01*
X152968285Y-63368946D01*
X152400000Y-63255907D01*
X151831715Y-63368946D01*
X151349946Y-63690853D01*
X151130000Y-64020026D01*
X150910054Y-63690853D01*
X150428285Y-63368946D01*
X149860000Y-63255907D01*
X149291715Y-63368946D01*
X148809946Y-63690853D01*
X148590000Y-64020026D01*
X148370054Y-63690853D01*
X147888285Y-63368946D01*
X147320000Y-63255907D01*
X146751715Y-63368946D01*
X146269946Y-63690853D01*
X146050000Y-64020026D01*
X145830054Y-63690853D01*
X145348285Y-63368946D01*
X144780000Y-63255907D01*
X144211715Y-63368946D01*
X143729946Y-63690853D01*
X143408039Y-64172622D01*
X143295000Y-64740907D01*
X143295000Y-64799093D01*
X143408039Y-65367378D01*
X143729946Y-65849147D01*
X143731179Y-65849971D01*
X143694683Y-65856838D01*
X143588756Y-65925000D01*
X138096532Y-65925000D01*
X138210054Y-65849147D01*
X138531961Y-65367378D01*
X138645000Y-64799093D01*
X138645000Y-64740907D01*
X138531961Y-64172622D01*
X138210054Y-63690853D01*
X137728285Y-63368946D01*
X137160000Y-63255907D01*
X136591715Y-63368946D01*
X136109946Y-63690853D01*
X135890000Y-64020026D01*
X135670054Y-63690853D01*
X135188285Y-63368946D01*
X134620000Y-63255907D01*
X134051715Y-63368946D01*
X133569946Y-63690853D01*
X133350000Y-64020026D01*
X133130054Y-63690853D01*
X132648285Y-63368946D01*
X132080000Y-63255907D01*
X131511715Y-63368946D01*
X131029946Y-63690853D01*
X130810000Y-64020026D01*
X130590054Y-63690853D01*
X130108285Y-63368946D01*
X129540000Y-63255907D01*
X128971715Y-63368946D01*
X128489946Y-63690853D01*
X128168039Y-64172622D01*
X128055000Y-64740907D01*
X128055000Y-64799093D01*
X128168039Y-65367378D01*
X128489946Y-65849147D01*
X128491179Y-65849971D01*
X128454683Y-65856838D01*
X128238559Y-65995910D01*
X128093569Y-66208110D01*
X128042560Y-66460000D01*
X101742614Y-66460000D01*
X101764750Y-66406691D01*
X101765248Y-65835813D01*
X101547243Y-65308200D01*
X101143923Y-64904176D01*
X100616691Y-64685250D01*
X100045813Y-64684752D01*
X99518200Y-64902757D01*
X99114176Y-65306077D01*
X98895250Y-65833309D01*
X98894752Y-66404187D01*
X89662000Y-66404187D01*
X89662000Y-63471887D01*
X95085000Y-63471887D01*
X95085000Y-63528113D01*
X95194233Y-64077264D01*
X95505302Y-64542811D01*
X95970849Y-64853880D01*
X96520000Y-64963113D01*
X97069151Y-64853880D01*
X97534698Y-64542811D01*
X97845767Y-64077264D01*
X97955000Y-63528113D01*
X97955000Y-63471887D01*
X97845767Y-62922736D01*
X97534698Y-62457189D01*
X97069151Y-62146120D01*
X96520000Y-62036887D01*
X95970849Y-62146120D01*
X95505302Y-62457189D01*
X95194233Y-62922736D01*
X95085000Y-63471887D01*
X89662000Y-63471887D01*
X89662000Y-61030000D01*
X112452560Y-61030000D01*
X112452560Y-63430000D01*
X112496838Y-63665317D01*
X112635910Y-63881441D01*
X112848110Y-64026431D01*
X113100000Y-64077440D01*
X115500000Y-64077440D01*
X115735317Y-64033162D01*
X115951441Y-63894090D01*
X116096431Y-63681890D01*
X116147440Y-63430000D01*
X116147440Y-61030000D01*
X116103162Y-60794683D01*
X115964090Y-60578559D01*
X115751890Y-60433569D01*
X115500000Y-60382560D01*
X113100000Y-60382560D01*
X112864683Y-60426838D01*
X112648559Y-60565910D01*
X112503569Y-60778110D01*
X112452560Y-61030000D01*
X89662000Y-61030000D01*
X89662000Y-57933497D01*
X92544900Y-57933497D01*
X92544900Y-58906503D01*
X92654140Y-59455692D01*
X92965231Y-59921272D01*
X93430811Y-60232363D01*
X93980000Y-60341603D01*
X94529189Y-60232363D01*
X94994769Y-59921272D01*
X95250000Y-59539292D01*
X95505231Y-59921272D01*
X95970811Y-60232363D01*
X96520000Y-60341603D01*
X97069189Y-60232363D01*
X97534769Y-59921272D01*
X97845860Y-59455692D01*
X97955100Y-58906503D01*
X97955100Y-57933497D01*
X143344900Y-57933497D01*
X143344900Y-58906503D01*
X143454140Y-59455692D01*
X143765231Y-59921272D01*
X144230811Y-60232363D01*
X144780000Y-60341603D01*
X145329189Y-60232363D01*
X145794769Y-59921272D01*
X146050000Y-59539292D01*
X146305231Y-59921272D01*
X146770811Y-60232363D01*
X147320000Y-60341603D01*
X147869189Y-60232363D01*
X148334769Y-59921272D01*
X148645860Y-59455692D01*
X148755100Y-58906503D01*
X148755100Y-57933497D01*
X148645860Y-57384308D01*
X148334769Y-56918728D01*
X147869189Y-56607637D01*
X147320000Y-56498397D01*
X146770811Y-56607637D01*
X146305231Y-56918728D01*
X146050000Y-57300708D01*
X145794769Y-56918728D01*
X145329189Y-56607637D01*
X144780000Y-56498397D01*
X144230811Y-56607637D01*
X143765231Y-56918728D01*
X143454140Y-57384308D01*
X143344900Y-57933497D01*
X97955100Y-57933497D01*
X97845860Y-57384308D01*
X97534769Y-56918728D01*
X97069189Y-56607637D01*
X96520000Y-56498397D01*
X95970811Y-56607637D01*
X95505231Y-56918728D01*
X95250000Y-57300708D01*
X94994769Y-56918728D01*
X94529189Y-56607637D01*
X93980000Y-56498397D01*
X93430811Y-56607637D01*
X92965231Y-56918728D01*
X92654140Y-57384308D01*
X92544900Y-57933497D01*
X89662000Y-57933497D01*
X89662000Y-54934825D01*
X90087208Y-55360776D01*
X90963501Y-55724645D01*
X91912336Y-55725473D01*
X92789263Y-55363134D01*
X93460776Y-54692792D01*
X93824645Y-53816499D01*
X93824648Y-53812336D01*
X99214527Y-53812336D01*
X99576866Y-54689263D01*
X100247208Y-55360776D01*
X101123501Y-55724645D01*
X102072336Y-55725473D01*
X102949263Y-55363134D01*
X103620776Y-54692792D01*
X103984645Y-53816499D01*
X103984648Y-53812336D01*
X139854527Y-53812336D01*
X140216866Y-54689263D01*
X140887208Y-55360776D01*
X141763501Y-55724645D01*
X142712336Y-55725473D01*
X143589263Y-55363134D01*
X144260776Y-54692792D01*
X144624645Y-53816499D01*
X144625473Y-52867664D01*
X144263134Y-51990737D01*
X143592792Y-51319224D01*
X142716499Y-50955355D01*
X141767664Y-50954527D01*
X140890737Y-51316866D01*
X140219224Y-51987208D01*
X139855355Y-52863501D01*
X139854527Y-53812336D01*
X103984648Y-53812336D01*
X103985473Y-52867664D01*
X103623134Y-51990737D01*
X102952792Y-51319224D01*
X102577534Y-51163403D01*
X104844682Y-51163403D01*
X105123455Y-51838086D01*
X105639199Y-52354730D01*
X106313395Y-52634681D01*
X107043403Y-52635318D01*
X107718086Y-52356545D01*
X108234730Y-51840801D01*
X108514681Y-51166605D01*
X108515000Y-50800000D01*
X135289050Y-50800000D01*
X135428731Y-51502224D01*
X135826509Y-52097541D01*
X136421826Y-52495319D01*
X137124050Y-52635000D01*
X137195950Y-52635000D01*
X137898174Y-52495319D01*
X138493491Y-52097541D01*
X138891269Y-51502224D01*
X139030950Y-50800000D01*
X138891269Y-50097776D01*
X138493491Y-49502459D01*
X137898174Y-49104681D01*
X137195950Y-48965000D01*
X137124050Y-48965000D01*
X136421826Y-49104681D01*
X135826509Y-49502459D01*
X135428731Y-50097776D01*
X135289050Y-50800000D01*
X108515000Y-50800000D01*
X108515318Y-50436597D01*
X108236545Y-49761914D01*
X107720801Y-49245270D01*
X107046605Y-48965319D01*
X106316597Y-48964682D01*
X105641914Y-49243455D01*
X105125270Y-49759199D01*
X104845319Y-50433395D01*
X104844682Y-51163403D01*
X102577534Y-51163403D01*
X102076499Y-50955355D01*
X101127664Y-50954527D01*
X100250737Y-51316866D01*
X99579224Y-51987208D01*
X99215355Y-52863501D01*
X99214527Y-53812336D01*
X93824648Y-53812336D01*
X93825473Y-52867664D01*
X93463134Y-51990737D01*
X92792792Y-51319224D01*
X91916499Y-50955355D01*
X90967664Y-50954527D01*
X90090737Y-51316866D01*
X89662000Y-51744856D01*
X89662000Y-46482000D01*
X154178000Y-46482000D01*
X154178000Y-51745175D01*
M02*
