G04 #@! TF.FileFunction,Copper,L2,Bot,Signal*
%FSLAX46Y46*%
G04 Gerber Fmt 4.6, Leading zero omitted, Abs format (unit mm)*
G04 Created by KiCad (PCBNEW 4.0.7) date 02/11/18 16:54:13*
%MOMM*%
%LPD*%
G01*
G04 APERTURE LIST*
%ADD10C,0.100000*%
%ADD11O,1.800860X3.500120*%
%ADD12R,2.000000X2.000000*%
%ADD13C,2.000000*%
%ADD14C,1.600000*%
%ADD15R,1.600000X1.600000*%
%ADD16R,2.200000X2.200000*%
%ADD17O,2.200000X2.200000*%
%ADD18O,2.032000X2.540000*%
%ADD19C,0.254000*%
G04 APERTURE END LIST*
D10*
D11*
X160020000Y-118110000D03*
X162560000Y-118110000D03*
X151130000Y-118110000D03*
X153670000Y-118110000D03*
X142240000Y-118110000D03*
X144780000Y-118110000D03*
X168910000Y-118110000D03*
X171450000Y-118110000D03*
X177800000Y-118110000D03*
X180340000Y-118110000D03*
X177800000Y-106680000D03*
X180340000Y-106680000D03*
X168910000Y-106680000D03*
X171450000Y-106680000D03*
X160020000Y-106680000D03*
X162560000Y-106680000D03*
X151130000Y-106680000D03*
X153670000Y-106680000D03*
X142240000Y-106680000D03*
X144780000Y-106680000D03*
X133350000Y-106680000D03*
X135890000Y-106680000D03*
D12*
X144780000Y-96520000D03*
D13*
X144780000Y-91520000D03*
D14*
X153670000Y-95250000D03*
X153670000Y-100250000D03*
X175260000Y-95250000D03*
X175260000Y-100250000D03*
D15*
X181610000Y-97790000D03*
D14*
X183610000Y-97790000D03*
D16*
X160020000Y-100330000D03*
D17*
X170180000Y-100330000D03*
D16*
X170180000Y-88900000D03*
D17*
X160020000Y-88900000D03*
D18*
X165100000Y-95250000D03*
X167640000Y-95250000D03*
X162560000Y-95250000D03*
D19*
G36*
X184132907Y-87607984D02*
X183443786Y-89267571D01*
X183442218Y-91064545D01*
X184128441Y-92725332D01*
X185397984Y-93997093D01*
X187057571Y-94686214D01*
X188854545Y-94687782D01*
X190515332Y-94001559D01*
X191008000Y-93509750D01*
X191008000Y-116039740D01*
X190522016Y-115552907D01*
X188862429Y-114863786D01*
X187065455Y-114862218D01*
X185404668Y-115548441D01*
X184132907Y-116817984D01*
X183443786Y-118477571D01*
X183442218Y-120274545D01*
X184128441Y-121935332D01*
X184620250Y-122428000D01*
X137960260Y-122428000D01*
X138447093Y-121942016D01*
X139136214Y-120282429D01*
X139137782Y-118485455D01*
X138612281Y-117213644D01*
X140704570Y-117213644D01*
X140704570Y-119006356D01*
X140821448Y-119593940D01*
X141154287Y-120092069D01*
X141652416Y-120424908D01*
X142240000Y-120541786D01*
X142827584Y-120424908D01*
X143325713Y-120092069D01*
X143491280Y-119844280D01*
X143678146Y-120111052D01*
X144105691Y-120339069D01*
X144329785Y-120260612D01*
X144329785Y-118745000D01*
X145230215Y-118745000D01*
X145230215Y-120260612D01*
X145454309Y-120339069D01*
X145881854Y-120111052D01*
X146238610Y-119601744D01*
X146373306Y-118994680D01*
X146200423Y-118745000D01*
X145230215Y-118745000D01*
X144329785Y-118745000D01*
X144125000Y-118745000D01*
X144125000Y-117475000D01*
X144329785Y-117475000D01*
X144329785Y-115959388D01*
X145230215Y-115959388D01*
X145230215Y-117475000D01*
X146200423Y-117475000D01*
X146373306Y-117225320D01*
X146370716Y-117213644D01*
X149594570Y-117213644D01*
X149594570Y-119006356D01*
X149711448Y-119593940D01*
X150044287Y-120092069D01*
X150542416Y-120424908D01*
X151130000Y-120541786D01*
X151717584Y-120424908D01*
X152215713Y-120092069D01*
X152381280Y-119844280D01*
X152568146Y-120111052D01*
X152995691Y-120339069D01*
X153219785Y-120260612D01*
X153219785Y-118745000D01*
X154120215Y-118745000D01*
X154120215Y-120260612D01*
X154344309Y-120339069D01*
X154771854Y-120111052D01*
X155128610Y-119601744D01*
X155263306Y-118994680D01*
X155090423Y-118745000D01*
X154120215Y-118745000D01*
X153219785Y-118745000D01*
X153015000Y-118745000D01*
X153015000Y-117475000D01*
X153219785Y-117475000D01*
X153219785Y-115959388D01*
X154120215Y-115959388D01*
X154120215Y-117475000D01*
X155090423Y-117475000D01*
X155263306Y-117225320D01*
X155260716Y-117213644D01*
X158484570Y-117213644D01*
X158484570Y-119006356D01*
X158601448Y-119593940D01*
X158934287Y-120092069D01*
X159432416Y-120424908D01*
X160020000Y-120541786D01*
X160607584Y-120424908D01*
X161105713Y-120092069D01*
X161271280Y-119844280D01*
X161458146Y-120111052D01*
X161885691Y-120339069D01*
X162109785Y-120260612D01*
X162109785Y-118745000D01*
X163010215Y-118745000D01*
X163010215Y-120260612D01*
X163234309Y-120339069D01*
X163661854Y-120111052D01*
X164018610Y-119601744D01*
X164153306Y-118994680D01*
X163980423Y-118745000D01*
X163010215Y-118745000D01*
X162109785Y-118745000D01*
X161905000Y-118745000D01*
X161905000Y-117475000D01*
X162109785Y-117475000D01*
X162109785Y-115959388D01*
X163010215Y-115959388D01*
X163010215Y-117475000D01*
X163980423Y-117475000D01*
X164153306Y-117225320D01*
X164150716Y-117213644D01*
X167374570Y-117213644D01*
X167374570Y-119006356D01*
X167491448Y-119593940D01*
X167824287Y-120092069D01*
X168322416Y-120424908D01*
X168910000Y-120541786D01*
X169497584Y-120424908D01*
X169995713Y-120092069D01*
X170161280Y-119844280D01*
X170348146Y-120111052D01*
X170775691Y-120339069D01*
X170999785Y-120260612D01*
X170999785Y-118745000D01*
X171900215Y-118745000D01*
X171900215Y-120260612D01*
X172124309Y-120339069D01*
X172551854Y-120111052D01*
X172908610Y-119601744D01*
X173043306Y-118994680D01*
X172870423Y-118745000D01*
X171900215Y-118745000D01*
X170999785Y-118745000D01*
X170795000Y-118745000D01*
X170795000Y-117475000D01*
X170999785Y-117475000D01*
X170999785Y-115959388D01*
X171900215Y-115959388D01*
X171900215Y-117475000D01*
X172870423Y-117475000D01*
X173043306Y-117225320D01*
X173040716Y-117213644D01*
X176264570Y-117213644D01*
X176264570Y-119006356D01*
X176381448Y-119593940D01*
X176714287Y-120092069D01*
X177212416Y-120424908D01*
X177800000Y-120541786D01*
X178387584Y-120424908D01*
X178885713Y-120092069D01*
X179051280Y-119844280D01*
X179238146Y-120111052D01*
X179665691Y-120339069D01*
X179889785Y-120260612D01*
X179889785Y-118745000D01*
X180790215Y-118745000D01*
X180790215Y-120260612D01*
X181014309Y-120339069D01*
X181441854Y-120111052D01*
X181798610Y-119601744D01*
X181933306Y-118994680D01*
X181760423Y-118745000D01*
X180790215Y-118745000D01*
X179889785Y-118745000D01*
X179685000Y-118745000D01*
X179685000Y-117475000D01*
X179889785Y-117475000D01*
X179889785Y-115959388D01*
X180790215Y-115959388D01*
X180790215Y-117475000D01*
X181760423Y-117475000D01*
X181933306Y-117225320D01*
X181798610Y-116618256D01*
X181441854Y-116108948D01*
X181014309Y-115880931D01*
X180790215Y-115959388D01*
X179889785Y-115959388D01*
X179665691Y-115880931D01*
X179238146Y-116108948D01*
X179051280Y-116375720D01*
X178885713Y-116127931D01*
X178387584Y-115795092D01*
X177800000Y-115678214D01*
X177212416Y-115795092D01*
X176714287Y-116127931D01*
X176381448Y-116626060D01*
X176264570Y-117213644D01*
X173040716Y-117213644D01*
X172908610Y-116618256D01*
X172551854Y-116108948D01*
X172124309Y-115880931D01*
X171900215Y-115959388D01*
X170999785Y-115959388D01*
X170775691Y-115880931D01*
X170348146Y-116108948D01*
X170161280Y-116375720D01*
X169995713Y-116127931D01*
X169497584Y-115795092D01*
X168910000Y-115678214D01*
X168322416Y-115795092D01*
X167824287Y-116127931D01*
X167491448Y-116626060D01*
X167374570Y-117213644D01*
X164150716Y-117213644D01*
X164018610Y-116618256D01*
X163661854Y-116108948D01*
X163234309Y-115880931D01*
X163010215Y-115959388D01*
X162109785Y-115959388D01*
X161885691Y-115880931D01*
X161458146Y-116108948D01*
X161271280Y-116375720D01*
X161105713Y-116127931D01*
X160607584Y-115795092D01*
X160020000Y-115678214D01*
X159432416Y-115795092D01*
X158934287Y-116127931D01*
X158601448Y-116626060D01*
X158484570Y-117213644D01*
X155260716Y-117213644D01*
X155128610Y-116618256D01*
X154771854Y-116108948D01*
X154344309Y-115880931D01*
X154120215Y-115959388D01*
X153219785Y-115959388D01*
X152995691Y-115880931D01*
X152568146Y-116108948D01*
X152381280Y-116375720D01*
X152215713Y-116127931D01*
X151717584Y-115795092D01*
X151130000Y-115678214D01*
X150542416Y-115795092D01*
X150044287Y-116127931D01*
X149711448Y-116626060D01*
X149594570Y-117213644D01*
X146370716Y-117213644D01*
X146238610Y-116618256D01*
X145881854Y-116108948D01*
X145454309Y-115880931D01*
X145230215Y-115959388D01*
X144329785Y-115959388D01*
X144105691Y-115880931D01*
X143678146Y-116108948D01*
X143491280Y-116375720D01*
X143325713Y-116127931D01*
X142827584Y-115795092D01*
X142240000Y-115678214D01*
X141652416Y-115795092D01*
X141154287Y-116127931D01*
X140821448Y-116626060D01*
X140704570Y-117213644D01*
X138612281Y-117213644D01*
X138451559Y-116824668D01*
X137182016Y-115552907D01*
X135522429Y-114863786D01*
X133725455Y-114862218D01*
X132064668Y-115548441D01*
X131572000Y-116040250D01*
X131572000Y-105783644D01*
X131814570Y-105783644D01*
X131814570Y-107576356D01*
X131931448Y-108163940D01*
X132264287Y-108662069D01*
X132762416Y-108994908D01*
X133350000Y-109111786D01*
X133937584Y-108994908D01*
X134435713Y-108662069D01*
X134601280Y-108414280D01*
X134788146Y-108681052D01*
X135215691Y-108909069D01*
X135439785Y-108830612D01*
X135439785Y-107315000D01*
X136340215Y-107315000D01*
X136340215Y-108830612D01*
X136564309Y-108909069D01*
X136991854Y-108681052D01*
X137348610Y-108171744D01*
X137483306Y-107564680D01*
X137310423Y-107315000D01*
X136340215Y-107315000D01*
X135439785Y-107315000D01*
X135235000Y-107315000D01*
X135235000Y-106045000D01*
X135439785Y-106045000D01*
X135439785Y-104529388D01*
X136340215Y-104529388D01*
X136340215Y-106045000D01*
X137310423Y-106045000D01*
X137483306Y-105795320D01*
X137480716Y-105783644D01*
X140704570Y-105783644D01*
X140704570Y-107576356D01*
X140821448Y-108163940D01*
X141154287Y-108662069D01*
X141652416Y-108994908D01*
X142240000Y-109111786D01*
X142827584Y-108994908D01*
X143325713Y-108662069D01*
X143491280Y-108414280D01*
X143678146Y-108681052D01*
X144105691Y-108909069D01*
X144329785Y-108830612D01*
X144329785Y-107315000D01*
X145230215Y-107315000D01*
X145230215Y-108830612D01*
X145454309Y-108909069D01*
X145881854Y-108681052D01*
X146238610Y-108171744D01*
X146373306Y-107564680D01*
X146200423Y-107315000D01*
X145230215Y-107315000D01*
X144329785Y-107315000D01*
X144125000Y-107315000D01*
X144125000Y-106045000D01*
X144329785Y-106045000D01*
X144329785Y-104529388D01*
X145230215Y-104529388D01*
X145230215Y-106045000D01*
X146200423Y-106045000D01*
X146373306Y-105795320D01*
X146370716Y-105783644D01*
X149594570Y-105783644D01*
X149594570Y-107576356D01*
X149711448Y-108163940D01*
X150044287Y-108662069D01*
X150542416Y-108994908D01*
X151130000Y-109111786D01*
X151717584Y-108994908D01*
X152215713Y-108662069D01*
X152381280Y-108414280D01*
X152568146Y-108681052D01*
X152995691Y-108909069D01*
X153219785Y-108830612D01*
X153219785Y-107315000D01*
X154120215Y-107315000D01*
X154120215Y-108830612D01*
X154344309Y-108909069D01*
X154771854Y-108681052D01*
X155128610Y-108171744D01*
X155263306Y-107564680D01*
X155090423Y-107315000D01*
X154120215Y-107315000D01*
X153219785Y-107315000D01*
X153015000Y-107315000D01*
X153015000Y-106045000D01*
X153219785Y-106045000D01*
X153219785Y-104529388D01*
X154120215Y-104529388D01*
X154120215Y-106045000D01*
X155090423Y-106045000D01*
X155263306Y-105795320D01*
X155260716Y-105783644D01*
X158484570Y-105783644D01*
X158484570Y-107576356D01*
X158601448Y-108163940D01*
X158934287Y-108662069D01*
X159432416Y-108994908D01*
X160020000Y-109111786D01*
X160607584Y-108994908D01*
X161105713Y-108662069D01*
X161271280Y-108414280D01*
X161458146Y-108681052D01*
X161885691Y-108909069D01*
X162109785Y-108830612D01*
X162109785Y-107315000D01*
X163010215Y-107315000D01*
X163010215Y-108830612D01*
X163234309Y-108909069D01*
X163661854Y-108681052D01*
X164018610Y-108171744D01*
X164153306Y-107564680D01*
X163980423Y-107315000D01*
X163010215Y-107315000D01*
X162109785Y-107315000D01*
X161905000Y-107315000D01*
X161905000Y-106045000D01*
X162109785Y-106045000D01*
X162109785Y-104529388D01*
X163010215Y-104529388D01*
X163010215Y-106045000D01*
X163980423Y-106045000D01*
X164153306Y-105795320D01*
X164150716Y-105783644D01*
X167374570Y-105783644D01*
X167374570Y-107576356D01*
X167491448Y-108163940D01*
X167824287Y-108662069D01*
X168322416Y-108994908D01*
X168910000Y-109111786D01*
X169497584Y-108994908D01*
X169995713Y-108662069D01*
X170161280Y-108414280D01*
X170348146Y-108681052D01*
X170775691Y-108909069D01*
X170999785Y-108830612D01*
X170999785Y-107315000D01*
X171900215Y-107315000D01*
X171900215Y-108830612D01*
X172124309Y-108909069D01*
X172551854Y-108681052D01*
X172908610Y-108171744D01*
X173043306Y-107564680D01*
X172870423Y-107315000D01*
X171900215Y-107315000D01*
X170999785Y-107315000D01*
X170795000Y-107315000D01*
X170795000Y-106045000D01*
X170999785Y-106045000D01*
X170999785Y-104529388D01*
X171900215Y-104529388D01*
X171900215Y-106045000D01*
X172870423Y-106045000D01*
X173043306Y-105795320D01*
X173040716Y-105783644D01*
X176264570Y-105783644D01*
X176264570Y-107576356D01*
X176381448Y-108163940D01*
X176714287Y-108662069D01*
X177212416Y-108994908D01*
X177800000Y-109111786D01*
X178387584Y-108994908D01*
X178885713Y-108662069D01*
X179051280Y-108414280D01*
X179238146Y-108681052D01*
X179665691Y-108909069D01*
X179889785Y-108830612D01*
X179889785Y-107315000D01*
X180790215Y-107315000D01*
X180790215Y-108830612D01*
X181014309Y-108909069D01*
X181441854Y-108681052D01*
X181798610Y-108171744D01*
X181933306Y-107564680D01*
X181760423Y-107315000D01*
X180790215Y-107315000D01*
X179889785Y-107315000D01*
X179685000Y-107315000D01*
X179685000Y-106045000D01*
X179889785Y-106045000D01*
X179889785Y-104529388D01*
X180790215Y-104529388D01*
X180790215Y-106045000D01*
X181760423Y-106045000D01*
X181933306Y-105795320D01*
X181798610Y-105188256D01*
X181441854Y-104678948D01*
X181014309Y-104450931D01*
X180790215Y-104529388D01*
X179889785Y-104529388D01*
X179665691Y-104450931D01*
X179238146Y-104678948D01*
X179051280Y-104945720D01*
X178885713Y-104697931D01*
X178387584Y-104365092D01*
X177800000Y-104248214D01*
X177212416Y-104365092D01*
X176714287Y-104697931D01*
X176381448Y-105196060D01*
X176264570Y-105783644D01*
X173040716Y-105783644D01*
X172908610Y-105188256D01*
X172551854Y-104678948D01*
X172124309Y-104450931D01*
X171900215Y-104529388D01*
X170999785Y-104529388D01*
X170775691Y-104450931D01*
X170348146Y-104678948D01*
X170161280Y-104945720D01*
X169995713Y-104697931D01*
X169497584Y-104365092D01*
X168910000Y-104248214D01*
X168322416Y-104365092D01*
X167824287Y-104697931D01*
X167491448Y-105196060D01*
X167374570Y-105783644D01*
X164150716Y-105783644D01*
X164018610Y-105188256D01*
X163661854Y-104678948D01*
X163234309Y-104450931D01*
X163010215Y-104529388D01*
X162109785Y-104529388D01*
X161885691Y-104450931D01*
X161458146Y-104678948D01*
X161271280Y-104945720D01*
X161105713Y-104697931D01*
X160607584Y-104365092D01*
X160020000Y-104248214D01*
X159432416Y-104365092D01*
X158934287Y-104697931D01*
X158601448Y-105196060D01*
X158484570Y-105783644D01*
X155260716Y-105783644D01*
X155128610Y-105188256D01*
X154771854Y-104678948D01*
X154344309Y-104450931D01*
X154120215Y-104529388D01*
X153219785Y-104529388D01*
X152995691Y-104450931D01*
X152568146Y-104678948D01*
X152381280Y-104945720D01*
X152215713Y-104697931D01*
X151717584Y-104365092D01*
X151130000Y-104248214D01*
X150542416Y-104365092D01*
X150044287Y-104697931D01*
X149711448Y-105196060D01*
X149594570Y-105783644D01*
X146370716Y-105783644D01*
X146238610Y-105188256D01*
X145881854Y-104678948D01*
X145454309Y-104450931D01*
X145230215Y-104529388D01*
X144329785Y-104529388D01*
X144105691Y-104450931D01*
X143678146Y-104678948D01*
X143491280Y-104945720D01*
X143325713Y-104697931D01*
X142827584Y-104365092D01*
X142240000Y-104248214D01*
X141652416Y-104365092D01*
X141154287Y-104697931D01*
X140821448Y-105196060D01*
X140704570Y-105783644D01*
X137480716Y-105783644D01*
X137348610Y-105188256D01*
X136991854Y-104678948D01*
X136564309Y-104450931D01*
X136340215Y-104529388D01*
X135439785Y-104529388D01*
X135215691Y-104450931D01*
X134788146Y-104678948D01*
X134601280Y-104945720D01*
X134435713Y-104697931D01*
X133937584Y-104365092D01*
X133350000Y-104248214D01*
X132762416Y-104365092D01*
X132264287Y-104697931D01*
X131931448Y-105196060D01*
X131814570Y-105783644D01*
X131572000Y-105783644D01*
X131572000Y-101410727D01*
X153074958Y-101410727D01*
X153166374Y-101623703D01*
X153730403Y-101711865D01*
X154173626Y-101623703D01*
X154265042Y-101410727D01*
X153670000Y-100815685D01*
X153074958Y-101410727D01*
X131572000Y-101410727D01*
X131572000Y-100310403D01*
X152208135Y-100310403D01*
X152296297Y-100753626D01*
X152509273Y-100845042D01*
X153104315Y-100250000D01*
X154235685Y-100250000D01*
X154830727Y-100845042D01*
X155043703Y-100753626D01*
X155131865Y-100189597D01*
X155043703Y-99746374D01*
X154830727Y-99654958D01*
X154235685Y-100250000D01*
X153104315Y-100250000D01*
X152509273Y-99654958D01*
X152296297Y-99746374D01*
X152208135Y-100310403D01*
X131572000Y-100310403D01*
X131572000Y-99089273D01*
X153074958Y-99089273D01*
X153670000Y-99684315D01*
X154124315Y-99230000D01*
X158272560Y-99230000D01*
X158272560Y-101430000D01*
X158316838Y-101665317D01*
X158455910Y-101881441D01*
X158668110Y-102026431D01*
X158920000Y-102077440D01*
X161120000Y-102077440D01*
X161355317Y-102033162D01*
X161571441Y-101894090D01*
X161716431Y-101681890D01*
X161767440Y-101430000D01*
X161767440Y-100330000D01*
X168411009Y-100330000D01*
X168543078Y-100993956D01*
X168919179Y-101556830D01*
X169482053Y-101932931D01*
X170146009Y-102065000D01*
X170213991Y-102065000D01*
X170877947Y-101932931D01*
X171440821Y-101556830D01*
X171538444Y-101410727D01*
X174664958Y-101410727D01*
X174756374Y-101623703D01*
X175320403Y-101711865D01*
X175763626Y-101623703D01*
X175855042Y-101410727D01*
X175260000Y-100815685D01*
X174664958Y-101410727D01*
X171538444Y-101410727D01*
X171816922Y-100993956D01*
X171948991Y-100330000D01*
X171945093Y-100310403D01*
X173798135Y-100310403D01*
X173886297Y-100753626D01*
X174099273Y-100845042D01*
X174694315Y-100250000D01*
X175825685Y-100250000D01*
X176420727Y-100845042D01*
X176633703Y-100753626D01*
X176721865Y-100189597D01*
X176633703Y-99746374D01*
X176420727Y-99654958D01*
X175825685Y-100250000D01*
X174694315Y-100250000D01*
X174099273Y-99654958D01*
X173886297Y-99746374D01*
X173798135Y-100310403D01*
X171945093Y-100310403D01*
X171816922Y-99666044D01*
X171440821Y-99103170D01*
X171420023Y-99089273D01*
X174664958Y-99089273D01*
X175260000Y-99684315D01*
X175855042Y-99089273D01*
X175763626Y-98876297D01*
X175199597Y-98788135D01*
X174756374Y-98876297D01*
X174664958Y-99089273D01*
X171420023Y-99089273D01*
X170877947Y-98727069D01*
X170213991Y-98595000D01*
X170146009Y-98595000D01*
X169482053Y-98727069D01*
X168919179Y-99103170D01*
X168543078Y-99666044D01*
X168411009Y-100330000D01*
X161767440Y-100330000D01*
X161767440Y-99230000D01*
X161723162Y-98994683D01*
X161584090Y-98778559D01*
X161371890Y-98633569D01*
X161120000Y-98582560D01*
X158920000Y-98582560D01*
X158684683Y-98626838D01*
X158468559Y-98765910D01*
X158323569Y-98978110D01*
X158272560Y-99230000D01*
X154124315Y-99230000D01*
X154265042Y-99089273D01*
X154173626Y-98876297D01*
X153609597Y-98788135D01*
X153166374Y-98876297D01*
X153074958Y-99089273D01*
X131572000Y-99089273D01*
X131572000Y-95520000D01*
X143132560Y-95520000D01*
X143132560Y-97520000D01*
X143176838Y-97755317D01*
X143315910Y-97971441D01*
X143528110Y-98116431D01*
X143780000Y-98167440D01*
X145780000Y-98167440D01*
X146015317Y-98123162D01*
X146231441Y-97984090D01*
X146376431Y-97771890D01*
X146427440Y-97520000D01*
X146427440Y-95534187D01*
X152234752Y-95534187D01*
X152452757Y-96061800D01*
X152856077Y-96465824D01*
X153383309Y-96684750D01*
X153954187Y-96685248D01*
X154481800Y-96467243D01*
X154885824Y-96063923D01*
X155104750Y-95536691D01*
X155105248Y-94965813D01*
X155102301Y-94958679D01*
X160909000Y-94958679D01*
X160909000Y-95541321D01*
X161034675Y-96173131D01*
X161392567Y-96708754D01*
X161928190Y-97066646D01*
X162560000Y-97192321D01*
X163191810Y-97066646D01*
X163727433Y-96708754D01*
X163860033Y-96510305D01*
X163955263Y-96652343D01*
X164352511Y-96976094D01*
X164592000Y-96907120D01*
X164592000Y-95885000D01*
X164445000Y-95885000D01*
X164445000Y-94615000D01*
X164592000Y-94615000D01*
X164592000Y-93592880D01*
X165608000Y-93592880D01*
X165608000Y-94615000D01*
X165755000Y-94615000D01*
X165755000Y-95885000D01*
X165608000Y-95885000D01*
X165608000Y-96907120D01*
X165847489Y-96976094D01*
X166244737Y-96652343D01*
X166339967Y-96510305D01*
X166472567Y-96708754D01*
X167008190Y-97066646D01*
X167640000Y-97192321D01*
X168271810Y-97066646D01*
X168386518Y-96990000D01*
X180162560Y-96990000D01*
X180162560Y-98590000D01*
X180206838Y-98825317D01*
X180345910Y-99041441D01*
X180558110Y-99186431D01*
X180810000Y-99237440D01*
X182410000Y-99237440D01*
X182645317Y-99193162D01*
X182829200Y-99074836D01*
X183026196Y-99271832D01*
X183130547Y-99167481D01*
X183670403Y-99251865D01*
X184113626Y-99163703D01*
X184205042Y-98950727D01*
X183610000Y-98355685D01*
X183429688Y-98535998D01*
X183057440Y-98163750D01*
X183057440Y-97790000D01*
X184175685Y-97790000D01*
X184770727Y-98385042D01*
X184983703Y-98293626D01*
X185071865Y-97729597D01*
X184983703Y-97286374D01*
X184770727Y-97194958D01*
X184175685Y-97790000D01*
X183057440Y-97790000D01*
X183057440Y-97416250D01*
X183429688Y-97044003D01*
X183610000Y-97224315D01*
X184205042Y-96629273D01*
X184113626Y-96416297D01*
X183549597Y-96328135D01*
X183129688Y-96411660D01*
X183026196Y-96308168D01*
X182827582Y-96506782D01*
X182661890Y-96393569D01*
X182410000Y-96342560D01*
X180810000Y-96342560D01*
X180574683Y-96386838D01*
X180358559Y-96525910D01*
X180213569Y-96738110D01*
X180162560Y-96990000D01*
X168386518Y-96990000D01*
X168807433Y-96708754D01*
X169165325Y-96173131D01*
X169291000Y-95541321D01*
X169291000Y-95534187D01*
X173824752Y-95534187D01*
X174042757Y-96061800D01*
X174446077Y-96465824D01*
X174973309Y-96684750D01*
X175544187Y-96685248D01*
X176071800Y-96467243D01*
X176475824Y-96063923D01*
X176694750Y-95536691D01*
X176695248Y-94965813D01*
X176477243Y-94438200D01*
X176073923Y-94034176D01*
X175546691Y-93815250D01*
X174975813Y-93814752D01*
X174448200Y-94032757D01*
X174044176Y-94436077D01*
X173825250Y-94963309D01*
X173824752Y-95534187D01*
X169291000Y-95534187D01*
X169291000Y-94958679D01*
X169165325Y-94326869D01*
X168807433Y-93791246D01*
X168271810Y-93433354D01*
X167640000Y-93307679D01*
X167008190Y-93433354D01*
X166472567Y-93791246D01*
X166339967Y-93989695D01*
X166244737Y-93847657D01*
X165847489Y-93523906D01*
X165608000Y-93592880D01*
X164592000Y-93592880D01*
X164352511Y-93523906D01*
X163955263Y-93847657D01*
X163860033Y-93989695D01*
X163727433Y-93791246D01*
X163191810Y-93433354D01*
X162560000Y-93307679D01*
X161928190Y-93433354D01*
X161392567Y-93791246D01*
X161034675Y-94326869D01*
X160909000Y-94958679D01*
X155102301Y-94958679D01*
X154887243Y-94438200D01*
X154483923Y-94034176D01*
X153956691Y-93815250D01*
X153385813Y-93814752D01*
X152858200Y-94032757D01*
X152454176Y-94436077D01*
X152235250Y-94963309D01*
X152234752Y-95534187D01*
X146427440Y-95534187D01*
X146427440Y-95520000D01*
X146383162Y-95284683D01*
X146244090Y-95068559D01*
X146031890Y-94923569D01*
X145780000Y-94872560D01*
X143780000Y-94872560D01*
X143544683Y-94916838D01*
X143328559Y-95055910D01*
X143183569Y-95268110D01*
X143132560Y-95520000D01*
X131572000Y-95520000D01*
X131572000Y-93510260D01*
X132057984Y-93997093D01*
X133717571Y-94686214D01*
X135514545Y-94687782D01*
X137175332Y-94001559D01*
X138299087Y-92879763D01*
X144127344Y-92879763D01*
X144249764Y-93100458D01*
X144894941Y-93183065D01*
X145310236Y-93100458D01*
X145432656Y-92879763D01*
X144780000Y-92227107D01*
X144127344Y-92879763D01*
X138299087Y-92879763D01*
X138447093Y-92732016D01*
X138902638Y-91634941D01*
X143116935Y-91634941D01*
X143199542Y-92050236D01*
X143420237Y-92172656D01*
X144072893Y-91520000D01*
X145487107Y-91520000D01*
X146139763Y-92172656D01*
X146360458Y-92050236D01*
X146443065Y-91405059D01*
X146360458Y-90989764D01*
X146139763Y-90867344D01*
X145487107Y-91520000D01*
X144072893Y-91520000D01*
X143420237Y-90867344D01*
X143199542Y-90989764D01*
X143116935Y-91634941D01*
X138902638Y-91634941D01*
X139136214Y-91072429D01*
X139137009Y-90160237D01*
X144127344Y-90160237D01*
X144780000Y-90812893D01*
X145432656Y-90160237D01*
X145310236Y-89939542D01*
X144665059Y-89856935D01*
X144249764Y-89939542D01*
X144127344Y-90160237D01*
X139137009Y-90160237D01*
X139137410Y-89700644D01*
X158480781Y-89700644D01*
X158691248Y-90015692D01*
X159219350Y-90439256D01*
X159470000Y-90386804D01*
X159470000Y-89450000D01*
X160570000Y-89450000D01*
X160570000Y-90386804D01*
X160820650Y-90439256D01*
X161348752Y-90015692D01*
X161559219Y-89700644D01*
X161497181Y-89450000D01*
X160570000Y-89450000D01*
X159470000Y-89450000D01*
X158542819Y-89450000D01*
X158480781Y-89700644D01*
X139137410Y-89700644D01*
X139137782Y-89275455D01*
X138651828Y-88099356D01*
X158480781Y-88099356D01*
X158542819Y-88350000D01*
X159470000Y-88350000D01*
X159470000Y-87413196D01*
X160570000Y-87413196D01*
X160570000Y-88350000D01*
X161497181Y-88350000D01*
X161559219Y-88099356D01*
X161359235Y-87800000D01*
X168432560Y-87800000D01*
X168432560Y-90000000D01*
X168476838Y-90235317D01*
X168615910Y-90451441D01*
X168828110Y-90596431D01*
X169080000Y-90647440D01*
X171280000Y-90647440D01*
X171515317Y-90603162D01*
X171731441Y-90464090D01*
X171876431Y-90251890D01*
X171927440Y-90000000D01*
X171927440Y-87800000D01*
X171883162Y-87564683D01*
X171744090Y-87348559D01*
X171531890Y-87203569D01*
X171280000Y-87152560D01*
X169080000Y-87152560D01*
X168844683Y-87196838D01*
X168628559Y-87335910D01*
X168483569Y-87548110D01*
X168432560Y-87800000D01*
X161359235Y-87800000D01*
X161348752Y-87784308D01*
X160820650Y-87360744D01*
X160570000Y-87413196D01*
X159470000Y-87413196D01*
X159219350Y-87360744D01*
X158691248Y-87784308D01*
X158480781Y-88099356D01*
X138651828Y-88099356D01*
X138451559Y-87614668D01*
X137959750Y-87122000D01*
X184619740Y-87122000D01*
X184132907Y-87607984D01*
X184132907Y-87607984D01*
G37*
X184132907Y-87607984D02*
X183443786Y-89267571D01*
X183442218Y-91064545D01*
X184128441Y-92725332D01*
X185397984Y-93997093D01*
X187057571Y-94686214D01*
X188854545Y-94687782D01*
X190515332Y-94001559D01*
X191008000Y-93509750D01*
X191008000Y-116039740D01*
X190522016Y-115552907D01*
X188862429Y-114863786D01*
X187065455Y-114862218D01*
X185404668Y-115548441D01*
X184132907Y-116817984D01*
X183443786Y-118477571D01*
X183442218Y-120274545D01*
X184128441Y-121935332D01*
X184620250Y-122428000D01*
X137960260Y-122428000D01*
X138447093Y-121942016D01*
X139136214Y-120282429D01*
X139137782Y-118485455D01*
X138612281Y-117213644D01*
X140704570Y-117213644D01*
X140704570Y-119006356D01*
X140821448Y-119593940D01*
X141154287Y-120092069D01*
X141652416Y-120424908D01*
X142240000Y-120541786D01*
X142827584Y-120424908D01*
X143325713Y-120092069D01*
X143491280Y-119844280D01*
X143678146Y-120111052D01*
X144105691Y-120339069D01*
X144329785Y-120260612D01*
X144329785Y-118745000D01*
X145230215Y-118745000D01*
X145230215Y-120260612D01*
X145454309Y-120339069D01*
X145881854Y-120111052D01*
X146238610Y-119601744D01*
X146373306Y-118994680D01*
X146200423Y-118745000D01*
X145230215Y-118745000D01*
X144329785Y-118745000D01*
X144125000Y-118745000D01*
X144125000Y-117475000D01*
X144329785Y-117475000D01*
X144329785Y-115959388D01*
X145230215Y-115959388D01*
X145230215Y-117475000D01*
X146200423Y-117475000D01*
X146373306Y-117225320D01*
X146370716Y-117213644D01*
X149594570Y-117213644D01*
X149594570Y-119006356D01*
X149711448Y-119593940D01*
X150044287Y-120092069D01*
X150542416Y-120424908D01*
X151130000Y-120541786D01*
X151717584Y-120424908D01*
X152215713Y-120092069D01*
X152381280Y-119844280D01*
X152568146Y-120111052D01*
X152995691Y-120339069D01*
X153219785Y-120260612D01*
X153219785Y-118745000D01*
X154120215Y-118745000D01*
X154120215Y-120260612D01*
X154344309Y-120339069D01*
X154771854Y-120111052D01*
X155128610Y-119601744D01*
X155263306Y-118994680D01*
X155090423Y-118745000D01*
X154120215Y-118745000D01*
X153219785Y-118745000D01*
X153015000Y-118745000D01*
X153015000Y-117475000D01*
X153219785Y-117475000D01*
X153219785Y-115959388D01*
X154120215Y-115959388D01*
X154120215Y-117475000D01*
X155090423Y-117475000D01*
X155263306Y-117225320D01*
X155260716Y-117213644D01*
X158484570Y-117213644D01*
X158484570Y-119006356D01*
X158601448Y-119593940D01*
X158934287Y-120092069D01*
X159432416Y-120424908D01*
X160020000Y-120541786D01*
X160607584Y-120424908D01*
X161105713Y-120092069D01*
X161271280Y-119844280D01*
X161458146Y-120111052D01*
X161885691Y-120339069D01*
X162109785Y-120260612D01*
X162109785Y-118745000D01*
X163010215Y-118745000D01*
X163010215Y-120260612D01*
X163234309Y-120339069D01*
X163661854Y-120111052D01*
X164018610Y-119601744D01*
X164153306Y-118994680D01*
X163980423Y-118745000D01*
X163010215Y-118745000D01*
X162109785Y-118745000D01*
X161905000Y-118745000D01*
X161905000Y-117475000D01*
X162109785Y-117475000D01*
X162109785Y-115959388D01*
X163010215Y-115959388D01*
X163010215Y-117475000D01*
X163980423Y-117475000D01*
X164153306Y-117225320D01*
X164150716Y-117213644D01*
X167374570Y-117213644D01*
X167374570Y-119006356D01*
X167491448Y-119593940D01*
X167824287Y-120092069D01*
X168322416Y-120424908D01*
X168910000Y-120541786D01*
X169497584Y-120424908D01*
X169995713Y-120092069D01*
X170161280Y-119844280D01*
X170348146Y-120111052D01*
X170775691Y-120339069D01*
X170999785Y-120260612D01*
X170999785Y-118745000D01*
X171900215Y-118745000D01*
X171900215Y-120260612D01*
X172124309Y-120339069D01*
X172551854Y-120111052D01*
X172908610Y-119601744D01*
X173043306Y-118994680D01*
X172870423Y-118745000D01*
X171900215Y-118745000D01*
X170999785Y-118745000D01*
X170795000Y-118745000D01*
X170795000Y-117475000D01*
X170999785Y-117475000D01*
X170999785Y-115959388D01*
X171900215Y-115959388D01*
X171900215Y-117475000D01*
X172870423Y-117475000D01*
X173043306Y-117225320D01*
X173040716Y-117213644D01*
X176264570Y-117213644D01*
X176264570Y-119006356D01*
X176381448Y-119593940D01*
X176714287Y-120092069D01*
X177212416Y-120424908D01*
X177800000Y-120541786D01*
X178387584Y-120424908D01*
X178885713Y-120092069D01*
X179051280Y-119844280D01*
X179238146Y-120111052D01*
X179665691Y-120339069D01*
X179889785Y-120260612D01*
X179889785Y-118745000D01*
X180790215Y-118745000D01*
X180790215Y-120260612D01*
X181014309Y-120339069D01*
X181441854Y-120111052D01*
X181798610Y-119601744D01*
X181933306Y-118994680D01*
X181760423Y-118745000D01*
X180790215Y-118745000D01*
X179889785Y-118745000D01*
X179685000Y-118745000D01*
X179685000Y-117475000D01*
X179889785Y-117475000D01*
X179889785Y-115959388D01*
X180790215Y-115959388D01*
X180790215Y-117475000D01*
X181760423Y-117475000D01*
X181933306Y-117225320D01*
X181798610Y-116618256D01*
X181441854Y-116108948D01*
X181014309Y-115880931D01*
X180790215Y-115959388D01*
X179889785Y-115959388D01*
X179665691Y-115880931D01*
X179238146Y-116108948D01*
X179051280Y-116375720D01*
X178885713Y-116127931D01*
X178387584Y-115795092D01*
X177800000Y-115678214D01*
X177212416Y-115795092D01*
X176714287Y-116127931D01*
X176381448Y-116626060D01*
X176264570Y-117213644D01*
X173040716Y-117213644D01*
X172908610Y-116618256D01*
X172551854Y-116108948D01*
X172124309Y-115880931D01*
X171900215Y-115959388D01*
X170999785Y-115959388D01*
X170775691Y-115880931D01*
X170348146Y-116108948D01*
X170161280Y-116375720D01*
X169995713Y-116127931D01*
X169497584Y-115795092D01*
X168910000Y-115678214D01*
X168322416Y-115795092D01*
X167824287Y-116127931D01*
X167491448Y-116626060D01*
X167374570Y-117213644D01*
X164150716Y-117213644D01*
X164018610Y-116618256D01*
X163661854Y-116108948D01*
X163234309Y-115880931D01*
X163010215Y-115959388D01*
X162109785Y-115959388D01*
X161885691Y-115880931D01*
X161458146Y-116108948D01*
X161271280Y-116375720D01*
X161105713Y-116127931D01*
X160607584Y-115795092D01*
X160020000Y-115678214D01*
X159432416Y-115795092D01*
X158934287Y-116127931D01*
X158601448Y-116626060D01*
X158484570Y-117213644D01*
X155260716Y-117213644D01*
X155128610Y-116618256D01*
X154771854Y-116108948D01*
X154344309Y-115880931D01*
X154120215Y-115959388D01*
X153219785Y-115959388D01*
X152995691Y-115880931D01*
X152568146Y-116108948D01*
X152381280Y-116375720D01*
X152215713Y-116127931D01*
X151717584Y-115795092D01*
X151130000Y-115678214D01*
X150542416Y-115795092D01*
X150044287Y-116127931D01*
X149711448Y-116626060D01*
X149594570Y-117213644D01*
X146370716Y-117213644D01*
X146238610Y-116618256D01*
X145881854Y-116108948D01*
X145454309Y-115880931D01*
X145230215Y-115959388D01*
X144329785Y-115959388D01*
X144105691Y-115880931D01*
X143678146Y-116108948D01*
X143491280Y-116375720D01*
X143325713Y-116127931D01*
X142827584Y-115795092D01*
X142240000Y-115678214D01*
X141652416Y-115795092D01*
X141154287Y-116127931D01*
X140821448Y-116626060D01*
X140704570Y-117213644D01*
X138612281Y-117213644D01*
X138451559Y-116824668D01*
X137182016Y-115552907D01*
X135522429Y-114863786D01*
X133725455Y-114862218D01*
X132064668Y-115548441D01*
X131572000Y-116040250D01*
X131572000Y-105783644D01*
X131814570Y-105783644D01*
X131814570Y-107576356D01*
X131931448Y-108163940D01*
X132264287Y-108662069D01*
X132762416Y-108994908D01*
X133350000Y-109111786D01*
X133937584Y-108994908D01*
X134435713Y-108662069D01*
X134601280Y-108414280D01*
X134788146Y-108681052D01*
X135215691Y-108909069D01*
X135439785Y-108830612D01*
X135439785Y-107315000D01*
X136340215Y-107315000D01*
X136340215Y-108830612D01*
X136564309Y-108909069D01*
X136991854Y-108681052D01*
X137348610Y-108171744D01*
X137483306Y-107564680D01*
X137310423Y-107315000D01*
X136340215Y-107315000D01*
X135439785Y-107315000D01*
X135235000Y-107315000D01*
X135235000Y-106045000D01*
X135439785Y-106045000D01*
X135439785Y-104529388D01*
X136340215Y-104529388D01*
X136340215Y-106045000D01*
X137310423Y-106045000D01*
X137483306Y-105795320D01*
X137480716Y-105783644D01*
X140704570Y-105783644D01*
X140704570Y-107576356D01*
X140821448Y-108163940D01*
X141154287Y-108662069D01*
X141652416Y-108994908D01*
X142240000Y-109111786D01*
X142827584Y-108994908D01*
X143325713Y-108662069D01*
X143491280Y-108414280D01*
X143678146Y-108681052D01*
X144105691Y-108909069D01*
X144329785Y-108830612D01*
X144329785Y-107315000D01*
X145230215Y-107315000D01*
X145230215Y-108830612D01*
X145454309Y-108909069D01*
X145881854Y-108681052D01*
X146238610Y-108171744D01*
X146373306Y-107564680D01*
X146200423Y-107315000D01*
X145230215Y-107315000D01*
X144329785Y-107315000D01*
X144125000Y-107315000D01*
X144125000Y-106045000D01*
X144329785Y-106045000D01*
X144329785Y-104529388D01*
X145230215Y-104529388D01*
X145230215Y-106045000D01*
X146200423Y-106045000D01*
X146373306Y-105795320D01*
X146370716Y-105783644D01*
X149594570Y-105783644D01*
X149594570Y-107576356D01*
X149711448Y-108163940D01*
X150044287Y-108662069D01*
X150542416Y-108994908D01*
X151130000Y-109111786D01*
X151717584Y-108994908D01*
X152215713Y-108662069D01*
X152381280Y-108414280D01*
X152568146Y-108681052D01*
X152995691Y-108909069D01*
X153219785Y-108830612D01*
X153219785Y-107315000D01*
X154120215Y-107315000D01*
X154120215Y-108830612D01*
X154344309Y-108909069D01*
X154771854Y-108681052D01*
X155128610Y-108171744D01*
X155263306Y-107564680D01*
X155090423Y-107315000D01*
X154120215Y-107315000D01*
X153219785Y-107315000D01*
X153015000Y-107315000D01*
X153015000Y-106045000D01*
X153219785Y-106045000D01*
X153219785Y-104529388D01*
X154120215Y-104529388D01*
X154120215Y-106045000D01*
X155090423Y-106045000D01*
X155263306Y-105795320D01*
X155260716Y-105783644D01*
X158484570Y-105783644D01*
X158484570Y-107576356D01*
X158601448Y-108163940D01*
X158934287Y-108662069D01*
X159432416Y-108994908D01*
X160020000Y-109111786D01*
X160607584Y-108994908D01*
X161105713Y-108662069D01*
X161271280Y-108414280D01*
X161458146Y-108681052D01*
X161885691Y-108909069D01*
X162109785Y-108830612D01*
X162109785Y-107315000D01*
X163010215Y-107315000D01*
X163010215Y-108830612D01*
X163234309Y-108909069D01*
X163661854Y-108681052D01*
X164018610Y-108171744D01*
X164153306Y-107564680D01*
X163980423Y-107315000D01*
X163010215Y-107315000D01*
X162109785Y-107315000D01*
X161905000Y-107315000D01*
X161905000Y-106045000D01*
X162109785Y-106045000D01*
X162109785Y-104529388D01*
X163010215Y-104529388D01*
X163010215Y-106045000D01*
X163980423Y-106045000D01*
X164153306Y-105795320D01*
X164150716Y-105783644D01*
X167374570Y-105783644D01*
X167374570Y-107576356D01*
X167491448Y-108163940D01*
X167824287Y-108662069D01*
X168322416Y-108994908D01*
X168910000Y-109111786D01*
X169497584Y-108994908D01*
X169995713Y-108662069D01*
X170161280Y-108414280D01*
X170348146Y-108681052D01*
X170775691Y-108909069D01*
X170999785Y-108830612D01*
X170999785Y-107315000D01*
X171900215Y-107315000D01*
X171900215Y-108830612D01*
X172124309Y-108909069D01*
X172551854Y-108681052D01*
X172908610Y-108171744D01*
X173043306Y-107564680D01*
X172870423Y-107315000D01*
X171900215Y-107315000D01*
X170999785Y-107315000D01*
X170795000Y-107315000D01*
X170795000Y-106045000D01*
X170999785Y-106045000D01*
X170999785Y-104529388D01*
X171900215Y-104529388D01*
X171900215Y-106045000D01*
X172870423Y-106045000D01*
X173043306Y-105795320D01*
X173040716Y-105783644D01*
X176264570Y-105783644D01*
X176264570Y-107576356D01*
X176381448Y-108163940D01*
X176714287Y-108662069D01*
X177212416Y-108994908D01*
X177800000Y-109111786D01*
X178387584Y-108994908D01*
X178885713Y-108662069D01*
X179051280Y-108414280D01*
X179238146Y-108681052D01*
X179665691Y-108909069D01*
X179889785Y-108830612D01*
X179889785Y-107315000D01*
X180790215Y-107315000D01*
X180790215Y-108830612D01*
X181014309Y-108909069D01*
X181441854Y-108681052D01*
X181798610Y-108171744D01*
X181933306Y-107564680D01*
X181760423Y-107315000D01*
X180790215Y-107315000D01*
X179889785Y-107315000D01*
X179685000Y-107315000D01*
X179685000Y-106045000D01*
X179889785Y-106045000D01*
X179889785Y-104529388D01*
X180790215Y-104529388D01*
X180790215Y-106045000D01*
X181760423Y-106045000D01*
X181933306Y-105795320D01*
X181798610Y-105188256D01*
X181441854Y-104678948D01*
X181014309Y-104450931D01*
X180790215Y-104529388D01*
X179889785Y-104529388D01*
X179665691Y-104450931D01*
X179238146Y-104678948D01*
X179051280Y-104945720D01*
X178885713Y-104697931D01*
X178387584Y-104365092D01*
X177800000Y-104248214D01*
X177212416Y-104365092D01*
X176714287Y-104697931D01*
X176381448Y-105196060D01*
X176264570Y-105783644D01*
X173040716Y-105783644D01*
X172908610Y-105188256D01*
X172551854Y-104678948D01*
X172124309Y-104450931D01*
X171900215Y-104529388D01*
X170999785Y-104529388D01*
X170775691Y-104450931D01*
X170348146Y-104678948D01*
X170161280Y-104945720D01*
X169995713Y-104697931D01*
X169497584Y-104365092D01*
X168910000Y-104248214D01*
X168322416Y-104365092D01*
X167824287Y-104697931D01*
X167491448Y-105196060D01*
X167374570Y-105783644D01*
X164150716Y-105783644D01*
X164018610Y-105188256D01*
X163661854Y-104678948D01*
X163234309Y-104450931D01*
X163010215Y-104529388D01*
X162109785Y-104529388D01*
X161885691Y-104450931D01*
X161458146Y-104678948D01*
X161271280Y-104945720D01*
X161105713Y-104697931D01*
X160607584Y-104365092D01*
X160020000Y-104248214D01*
X159432416Y-104365092D01*
X158934287Y-104697931D01*
X158601448Y-105196060D01*
X158484570Y-105783644D01*
X155260716Y-105783644D01*
X155128610Y-105188256D01*
X154771854Y-104678948D01*
X154344309Y-104450931D01*
X154120215Y-104529388D01*
X153219785Y-104529388D01*
X152995691Y-104450931D01*
X152568146Y-104678948D01*
X152381280Y-104945720D01*
X152215713Y-104697931D01*
X151717584Y-104365092D01*
X151130000Y-104248214D01*
X150542416Y-104365092D01*
X150044287Y-104697931D01*
X149711448Y-105196060D01*
X149594570Y-105783644D01*
X146370716Y-105783644D01*
X146238610Y-105188256D01*
X145881854Y-104678948D01*
X145454309Y-104450931D01*
X145230215Y-104529388D01*
X144329785Y-104529388D01*
X144105691Y-104450931D01*
X143678146Y-104678948D01*
X143491280Y-104945720D01*
X143325713Y-104697931D01*
X142827584Y-104365092D01*
X142240000Y-104248214D01*
X141652416Y-104365092D01*
X141154287Y-104697931D01*
X140821448Y-105196060D01*
X140704570Y-105783644D01*
X137480716Y-105783644D01*
X137348610Y-105188256D01*
X136991854Y-104678948D01*
X136564309Y-104450931D01*
X136340215Y-104529388D01*
X135439785Y-104529388D01*
X135215691Y-104450931D01*
X134788146Y-104678948D01*
X134601280Y-104945720D01*
X134435713Y-104697931D01*
X133937584Y-104365092D01*
X133350000Y-104248214D01*
X132762416Y-104365092D01*
X132264287Y-104697931D01*
X131931448Y-105196060D01*
X131814570Y-105783644D01*
X131572000Y-105783644D01*
X131572000Y-101410727D01*
X153074958Y-101410727D01*
X153166374Y-101623703D01*
X153730403Y-101711865D01*
X154173626Y-101623703D01*
X154265042Y-101410727D01*
X153670000Y-100815685D01*
X153074958Y-101410727D01*
X131572000Y-101410727D01*
X131572000Y-100310403D01*
X152208135Y-100310403D01*
X152296297Y-100753626D01*
X152509273Y-100845042D01*
X153104315Y-100250000D01*
X154235685Y-100250000D01*
X154830727Y-100845042D01*
X155043703Y-100753626D01*
X155131865Y-100189597D01*
X155043703Y-99746374D01*
X154830727Y-99654958D01*
X154235685Y-100250000D01*
X153104315Y-100250000D01*
X152509273Y-99654958D01*
X152296297Y-99746374D01*
X152208135Y-100310403D01*
X131572000Y-100310403D01*
X131572000Y-99089273D01*
X153074958Y-99089273D01*
X153670000Y-99684315D01*
X154124315Y-99230000D01*
X158272560Y-99230000D01*
X158272560Y-101430000D01*
X158316838Y-101665317D01*
X158455910Y-101881441D01*
X158668110Y-102026431D01*
X158920000Y-102077440D01*
X161120000Y-102077440D01*
X161355317Y-102033162D01*
X161571441Y-101894090D01*
X161716431Y-101681890D01*
X161767440Y-101430000D01*
X161767440Y-100330000D01*
X168411009Y-100330000D01*
X168543078Y-100993956D01*
X168919179Y-101556830D01*
X169482053Y-101932931D01*
X170146009Y-102065000D01*
X170213991Y-102065000D01*
X170877947Y-101932931D01*
X171440821Y-101556830D01*
X171538444Y-101410727D01*
X174664958Y-101410727D01*
X174756374Y-101623703D01*
X175320403Y-101711865D01*
X175763626Y-101623703D01*
X175855042Y-101410727D01*
X175260000Y-100815685D01*
X174664958Y-101410727D01*
X171538444Y-101410727D01*
X171816922Y-100993956D01*
X171948991Y-100330000D01*
X171945093Y-100310403D01*
X173798135Y-100310403D01*
X173886297Y-100753626D01*
X174099273Y-100845042D01*
X174694315Y-100250000D01*
X175825685Y-100250000D01*
X176420727Y-100845042D01*
X176633703Y-100753626D01*
X176721865Y-100189597D01*
X176633703Y-99746374D01*
X176420727Y-99654958D01*
X175825685Y-100250000D01*
X174694315Y-100250000D01*
X174099273Y-99654958D01*
X173886297Y-99746374D01*
X173798135Y-100310403D01*
X171945093Y-100310403D01*
X171816922Y-99666044D01*
X171440821Y-99103170D01*
X171420023Y-99089273D01*
X174664958Y-99089273D01*
X175260000Y-99684315D01*
X175855042Y-99089273D01*
X175763626Y-98876297D01*
X175199597Y-98788135D01*
X174756374Y-98876297D01*
X174664958Y-99089273D01*
X171420023Y-99089273D01*
X170877947Y-98727069D01*
X170213991Y-98595000D01*
X170146009Y-98595000D01*
X169482053Y-98727069D01*
X168919179Y-99103170D01*
X168543078Y-99666044D01*
X168411009Y-100330000D01*
X161767440Y-100330000D01*
X161767440Y-99230000D01*
X161723162Y-98994683D01*
X161584090Y-98778559D01*
X161371890Y-98633569D01*
X161120000Y-98582560D01*
X158920000Y-98582560D01*
X158684683Y-98626838D01*
X158468559Y-98765910D01*
X158323569Y-98978110D01*
X158272560Y-99230000D01*
X154124315Y-99230000D01*
X154265042Y-99089273D01*
X154173626Y-98876297D01*
X153609597Y-98788135D01*
X153166374Y-98876297D01*
X153074958Y-99089273D01*
X131572000Y-99089273D01*
X131572000Y-95520000D01*
X143132560Y-95520000D01*
X143132560Y-97520000D01*
X143176838Y-97755317D01*
X143315910Y-97971441D01*
X143528110Y-98116431D01*
X143780000Y-98167440D01*
X145780000Y-98167440D01*
X146015317Y-98123162D01*
X146231441Y-97984090D01*
X146376431Y-97771890D01*
X146427440Y-97520000D01*
X146427440Y-95534187D01*
X152234752Y-95534187D01*
X152452757Y-96061800D01*
X152856077Y-96465824D01*
X153383309Y-96684750D01*
X153954187Y-96685248D01*
X154481800Y-96467243D01*
X154885824Y-96063923D01*
X155104750Y-95536691D01*
X155105248Y-94965813D01*
X155102301Y-94958679D01*
X160909000Y-94958679D01*
X160909000Y-95541321D01*
X161034675Y-96173131D01*
X161392567Y-96708754D01*
X161928190Y-97066646D01*
X162560000Y-97192321D01*
X163191810Y-97066646D01*
X163727433Y-96708754D01*
X163860033Y-96510305D01*
X163955263Y-96652343D01*
X164352511Y-96976094D01*
X164592000Y-96907120D01*
X164592000Y-95885000D01*
X164445000Y-95885000D01*
X164445000Y-94615000D01*
X164592000Y-94615000D01*
X164592000Y-93592880D01*
X165608000Y-93592880D01*
X165608000Y-94615000D01*
X165755000Y-94615000D01*
X165755000Y-95885000D01*
X165608000Y-95885000D01*
X165608000Y-96907120D01*
X165847489Y-96976094D01*
X166244737Y-96652343D01*
X166339967Y-96510305D01*
X166472567Y-96708754D01*
X167008190Y-97066646D01*
X167640000Y-97192321D01*
X168271810Y-97066646D01*
X168386518Y-96990000D01*
X180162560Y-96990000D01*
X180162560Y-98590000D01*
X180206838Y-98825317D01*
X180345910Y-99041441D01*
X180558110Y-99186431D01*
X180810000Y-99237440D01*
X182410000Y-99237440D01*
X182645317Y-99193162D01*
X182829200Y-99074836D01*
X183026196Y-99271832D01*
X183130547Y-99167481D01*
X183670403Y-99251865D01*
X184113626Y-99163703D01*
X184205042Y-98950727D01*
X183610000Y-98355685D01*
X183429688Y-98535998D01*
X183057440Y-98163750D01*
X183057440Y-97790000D01*
X184175685Y-97790000D01*
X184770727Y-98385042D01*
X184983703Y-98293626D01*
X185071865Y-97729597D01*
X184983703Y-97286374D01*
X184770727Y-97194958D01*
X184175685Y-97790000D01*
X183057440Y-97790000D01*
X183057440Y-97416250D01*
X183429688Y-97044003D01*
X183610000Y-97224315D01*
X184205042Y-96629273D01*
X184113626Y-96416297D01*
X183549597Y-96328135D01*
X183129688Y-96411660D01*
X183026196Y-96308168D01*
X182827582Y-96506782D01*
X182661890Y-96393569D01*
X182410000Y-96342560D01*
X180810000Y-96342560D01*
X180574683Y-96386838D01*
X180358559Y-96525910D01*
X180213569Y-96738110D01*
X180162560Y-96990000D01*
X168386518Y-96990000D01*
X168807433Y-96708754D01*
X169165325Y-96173131D01*
X169291000Y-95541321D01*
X169291000Y-95534187D01*
X173824752Y-95534187D01*
X174042757Y-96061800D01*
X174446077Y-96465824D01*
X174973309Y-96684750D01*
X175544187Y-96685248D01*
X176071800Y-96467243D01*
X176475824Y-96063923D01*
X176694750Y-95536691D01*
X176695248Y-94965813D01*
X176477243Y-94438200D01*
X176073923Y-94034176D01*
X175546691Y-93815250D01*
X174975813Y-93814752D01*
X174448200Y-94032757D01*
X174044176Y-94436077D01*
X173825250Y-94963309D01*
X173824752Y-95534187D01*
X169291000Y-95534187D01*
X169291000Y-94958679D01*
X169165325Y-94326869D01*
X168807433Y-93791246D01*
X168271810Y-93433354D01*
X167640000Y-93307679D01*
X167008190Y-93433354D01*
X166472567Y-93791246D01*
X166339967Y-93989695D01*
X166244737Y-93847657D01*
X165847489Y-93523906D01*
X165608000Y-93592880D01*
X164592000Y-93592880D01*
X164352511Y-93523906D01*
X163955263Y-93847657D01*
X163860033Y-93989695D01*
X163727433Y-93791246D01*
X163191810Y-93433354D01*
X162560000Y-93307679D01*
X161928190Y-93433354D01*
X161392567Y-93791246D01*
X161034675Y-94326869D01*
X160909000Y-94958679D01*
X155102301Y-94958679D01*
X154887243Y-94438200D01*
X154483923Y-94034176D01*
X153956691Y-93815250D01*
X153385813Y-93814752D01*
X152858200Y-94032757D01*
X152454176Y-94436077D01*
X152235250Y-94963309D01*
X152234752Y-95534187D01*
X146427440Y-95534187D01*
X146427440Y-95520000D01*
X146383162Y-95284683D01*
X146244090Y-95068559D01*
X146031890Y-94923569D01*
X145780000Y-94872560D01*
X143780000Y-94872560D01*
X143544683Y-94916838D01*
X143328559Y-95055910D01*
X143183569Y-95268110D01*
X143132560Y-95520000D01*
X131572000Y-95520000D01*
X131572000Y-93510260D01*
X132057984Y-93997093D01*
X133717571Y-94686214D01*
X135514545Y-94687782D01*
X137175332Y-94001559D01*
X138299087Y-92879763D01*
X144127344Y-92879763D01*
X144249764Y-93100458D01*
X144894941Y-93183065D01*
X145310236Y-93100458D01*
X145432656Y-92879763D01*
X144780000Y-92227107D01*
X144127344Y-92879763D01*
X138299087Y-92879763D01*
X138447093Y-92732016D01*
X138902638Y-91634941D01*
X143116935Y-91634941D01*
X143199542Y-92050236D01*
X143420237Y-92172656D01*
X144072893Y-91520000D01*
X145487107Y-91520000D01*
X146139763Y-92172656D01*
X146360458Y-92050236D01*
X146443065Y-91405059D01*
X146360458Y-90989764D01*
X146139763Y-90867344D01*
X145487107Y-91520000D01*
X144072893Y-91520000D01*
X143420237Y-90867344D01*
X143199542Y-90989764D01*
X143116935Y-91634941D01*
X138902638Y-91634941D01*
X139136214Y-91072429D01*
X139137009Y-90160237D01*
X144127344Y-90160237D01*
X144780000Y-90812893D01*
X145432656Y-90160237D01*
X145310236Y-89939542D01*
X144665059Y-89856935D01*
X144249764Y-89939542D01*
X144127344Y-90160237D01*
X139137009Y-90160237D01*
X139137410Y-89700644D01*
X158480781Y-89700644D01*
X158691248Y-90015692D01*
X159219350Y-90439256D01*
X159470000Y-90386804D01*
X159470000Y-89450000D01*
X160570000Y-89450000D01*
X160570000Y-90386804D01*
X160820650Y-90439256D01*
X161348752Y-90015692D01*
X161559219Y-89700644D01*
X161497181Y-89450000D01*
X160570000Y-89450000D01*
X159470000Y-89450000D01*
X158542819Y-89450000D01*
X158480781Y-89700644D01*
X139137410Y-89700644D01*
X139137782Y-89275455D01*
X138651828Y-88099356D01*
X158480781Y-88099356D01*
X158542819Y-88350000D01*
X159470000Y-88350000D01*
X159470000Y-87413196D01*
X160570000Y-87413196D01*
X160570000Y-88350000D01*
X161497181Y-88350000D01*
X161559219Y-88099356D01*
X161359235Y-87800000D01*
X168432560Y-87800000D01*
X168432560Y-90000000D01*
X168476838Y-90235317D01*
X168615910Y-90451441D01*
X168828110Y-90596431D01*
X169080000Y-90647440D01*
X171280000Y-90647440D01*
X171515317Y-90603162D01*
X171731441Y-90464090D01*
X171876431Y-90251890D01*
X171927440Y-90000000D01*
X171927440Y-87800000D01*
X171883162Y-87564683D01*
X171744090Y-87348559D01*
X171531890Y-87203569D01*
X171280000Y-87152560D01*
X169080000Y-87152560D01*
X168844683Y-87196838D01*
X168628559Y-87335910D01*
X168483569Y-87548110D01*
X168432560Y-87800000D01*
X161359235Y-87800000D01*
X161348752Y-87784308D01*
X160820650Y-87360744D01*
X160570000Y-87413196D01*
X159470000Y-87413196D01*
X159219350Y-87360744D01*
X158691248Y-87784308D01*
X158480781Y-88099356D01*
X138651828Y-88099356D01*
X138451559Y-87614668D01*
X137959750Y-87122000D01*
X184619740Y-87122000D01*
X184132907Y-87607984D01*
M02*
