M48
;DRILL file {KiCad 4.0.7} date 02/11/18 17:01:14
;FORMAT={-:-/ absolute / metric / decimal}
FMAT,2
METRIC,TZ
T1C0.800
T2C1.000
T3C1.100
T4C1.143
T5C1.199
%
G90
G05
M71
T1
X153.67Y-95.25
X153.67Y-100.25
X175.26Y-95.25
X175.26Y-100.25
X181.61Y-97.79
X183.61Y-97.79
T2
X144.78Y-91.52
X144.78Y-96.52
T3
X160.02Y-88.9
X160.02Y-100.33
X170.18Y-88.9
X170.18Y-100.33
T4
X162.56Y-95.25
X165.1Y-95.25
X167.64Y-95.25
T5
X133.35Y-106.68
X135.89Y-106.68
X142.24Y-106.68
X142.24Y-118.11
X144.78Y-106.68
X144.78Y-118.11
X151.13Y-106.68
X151.13Y-118.11
X153.67Y-106.68
X153.67Y-118.11
X160.02Y-106.68
X160.02Y-118.11
X162.56Y-106.68
X162.56Y-118.11
X168.91Y-106.68
X168.91Y-118.11
X171.45Y-106.68
X171.45Y-118.11
X177.8Y-106.68
X177.8Y-118.11
X180.34Y-106.68
X180.34Y-118.11
T0
M30
