G04 #@! TF.FileFunction,Copper,L1,Top,Signal*
%FSLAX46Y46*%
G04 Gerber Fmt 4.6, Leading zero omitted, Abs format (unit mm)*
G04 Created by KiCad (PCBNEW 4.0.7) date 02/11/18 16:54:13*
%MOMM*%
%LPD*%
G01*
G04 APERTURE LIST*
%ADD10C,0.100000*%
%ADD11O,1.800860X3.500120*%
%ADD12R,2.000000X2.000000*%
%ADD13C,2.000000*%
%ADD14C,1.600000*%
%ADD15R,1.600000X1.600000*%
%ADD16R,2.200000X2.200000*%
%ADD17O,2.200000X2.200000*%
%ADD18O,2.032000X2.540000*%
%ADD19C,1.524000*%
%ADD20C,0.254000*%
G04 APERTURE END LIST*
D10*
D11*
X160020000Y-118110000D03*
X162560000Y-118110000D03*
X151130000Y-118110000D03*
X153670000Y-118110000D03*
X142240000Y-118110000D03*
X144780000Y-118110000D03*
X168910000Y-118110000D03*
X171450000Y-118110000D03*
X177800000Y-118110000D03*
X180340000Y-118110000D03*
X177800000Y-106680000D03*
X180340000Y-106680000D03*
X168910000Y-106680000D03*
X171450000Y-106680000D03*
X160020000Y-106680000D03*
X162560000Y-106680000D03*
X151130000Y-106680000D03*
X153670000Y-106680000D03*
X142240000Y-106680000D03*
X144780000Y-106680000D03*
X133350000Y-106680000D03*
X135890000Y-106680000D03*
D12*
X144780000Y-96520000D03*
D13*
X144780000Y-91520000D03*
D14*
X153670000Y-95250000D03*
X153670000Y-100250000D03*
X175260000Y-95250000D03*
X175260000Y-100250000D03*
D15*
X181610000Y-97790000D03*
D14*
X183610000Y-97790000D03*
D16*
X160020000Y-100330000D03*
D17*
X170180000Y-100330000D03*
D16*
X170180000Y-88900000D03*
D17*
X160020000Y-88900000D03*
D18*
X165100000Y-95250000D03*
X167640000Y-95250000D03*
X162560000Y-95250000D03*
D19*
X153670000Y-95250000D02*
X146050000Y-95250000D01*
X146050000Y-95250000D02*
X144780000Y-96520000D01*
X162560000Y-95250000D02*
X162560000Y-97790000D01*
X162560000Y-97790000D02*
X160020000Y-100330000D01*
X153670000Y-95250000D02*
X162560000Y-95250000D01*
X144780000Y-96520000D02*
X140970000Y-96520000D01*
X140970000Y-96520000D02*
X133350000Y-104140000D01*
X133350000Y-104140000D02*
X133350000Y-106680000D01*
X167640000Y-95250000D02*
X175260000Y-95250000D01*
X167640000Y-95250000D02*
X167640000Y-91440000D01*
X167640000Y-91440000D02*
X170180000Y-88900000D01*
X175260000Y-95250000D02*
X179070000Y-95250000D01*
X179070000Y-95250000D02*
X181610000Y-97790000D01*
X177800000Y-106680000D02*
X177800000Y-101600000D01*
X177800000Y-101600000D02*
X181610000Y-97790000D01*
X167640000Y-95250000D02*
X167640000Y-97790000D01*
X167640000Y-97790000D02*
X170180000Y-100330000D01*
D20*
G36*
X182118000Y-121158000D02*
X140462000Y-121158000D01*
X140462000Y-118994680D01*
X140646694Y-118994680D01*
X140781390Y-119601744D01*
X141138146Y-120111052D01*
X141565691Y-120339069D01*
X141789785Y-120260612D01*
X141789785Y-118745000D01*
X140819577Y-118745000D01*
X140646694Y-118994680D01*
X140462000Y-118994680D01*
X140462000Y-117225320D01*
X140646694Y-117225320D01*
X140819577Y-117475000D01*
X141789785Y-117475000D01*
X141789785Y-115959388D01*
X142690215Y-115959388D01*
X142690215Y-117475000D01*
X142895000Y-117475000D01*
X142895000Y-118745000D01*
X142690215Y-118745000D01*
X142690215Y-120260612D01*
X142914309Y-120339069D01*
X143341854Y-120111052D01*
X143528720Y-119844280D01*
X143694287Y-120092069D01*
X144192416Y-120424908D01*
X144780000Y-120541786D01*
X145367584Y-120424908D01*
X145865713Y-120092069D01*
X146198552Y-119593940D01*
X146315430Y-119006356D01*
X146315430Y-118994680D01*
X149536694Y-118994680D01*
X149671390Y-119601744D01*
X150028146Y-120111052D01*
X150455691Y-120339069D01*
X150679785Y-120260612D01*
X150679785Y-118745000D01*
X149709577Y-118745000D01*
X149536694Y-118994680D01*
X146315430Y-118994680D01*
X146315430Y-117225320D01*
X149536694Y-117225320D01*
X149709577Y-117475000D01*
X150679785Y-117475000D01*
X150679785Y-115959388D01*
X151580215Y-115959388D01*
X151580215Y-117475000D01*
X151785000Y-117475000D01*
X151785000Y-118745000D01*
X151580215Y-118745000D01*
X151580215Y-120260612D01*
X151804309Y-120339069D01*
X152231854Y-120111052D01*
X152418720Y-119844280D01*
X152584287Y-120092069D01*
X153082416Y-120424908D01*
X153670000Y-120541786D01*
X154257584Y-120424908D01*
X154755713Y-120092069D01*
X155088552Y-119593940D01*
X155205430Y-119006356D01*
X155205430Y-118994680D01*
X158426694Y-118994680D01*
X158561390Y-119601744D01*
X158918146Y-120111052D01*
X159345691Y-120339069D01*
X159569785Y-120260612D01*
X159569785Y-118745000D01*
X158599577Y-118745000D01*
X158426694Y-118994680D01*
X155205430Y-118994680D01*
X155205430Y-117225320D01*
X158426694Y-117225320D01*
X158599577Y-117475000D01*
X159569785Y-117475000D01*
X159569785Y-115959388D01*
X160470215Y-115959388D01*
X160470215Y-117475000D01*
X160675000Y-117475000D01*
X160675000Y-118745000D01*
X160470215Y-118745000D01*
X160470215Y-120260612D01*
X160694309Y-120339069D01*
X161121854Y-120111052D01*
X161308720Y-119844280D01*
X161474287Y-120092069D01*
X161972416Y-120424908D01*
X162560000Y-120541786D01*
X163147584Y-120424908D01*
X163645713Y-120092069D01*
X163978552Y-119593940D01*
X164095430Y-119006356D01*
X164095430Y-118994680D01*
X167316694Y-118994680D01*
X167451390Y-119601744D01*
X167808146Y-120111052D01*
X168235691Y-120339069D01*
X168459785Y-120260612D01*
X168459785Y-118745000D01*
X167489577Y-118745000D01*
X167316694Y-118994680D01*
X164095430Y-118994680D01*
X164095430Y-117225320D01*
X167316694Y-117225320D01*
X167489577Y-117475000D01*
X168459785Y-117475000D01*
X168459785Y-115959388D01*
X169360215Y-115959388D01*
X169360215Y-117475000D01*
X169565000Y-117475000D01*
X169565000Y-118745000D01*
X169360215Y-118745000D01*
X169360215Y-120260612D01*
X169584309Y-120339069D01*
X170011854Y-120111052D01*
X170198720Y-119844280D01*
X170364287Y-120092069D01*
X170862416Y-120424908D01*
X171450000Y-120541786D01*
X172037584Y-120424908D01*
X172535713Y-120092069D01*
X172868552Y-119593940D01*
X172985430Y-119006356D01*
X172985430Y-118994680D01*
X176206694Y-118994680D01*
X176341390Y-119601744D01*
X176698146Y-120111052D01*
X177125691Y-120339069D01*
X177349785Y-120260612D01*
X177349785Y-118745000D01*
X176379577Y-118745000D01*
X176206694Y-118994680D01*
X172985430Y-118994680D01*
X172985430Y-117225320D01*
X176206694Y-117225320D01*
X176379577Y-117475000D01*
X177349785Y-117475000D01*
X177349785Y-115959388D01*
X178250215Y-115959388D01*
X178250215Y-117475000D01*
X178455000Y-117475000D01*
X178455000Y-118745000D01*
X178250215Y-118745000D01*
X178250215Y-120260612D01*
X178474309Y-120339069D01*
X178901854Y-120111052D01*
X179088720Y-119844280D01*
X179254287Y-120092069D01*
X179752416Y-120424908D01*
X180340000Y-120541786D01*
X180927584Y-120424908D01*
X181425713Y-120092069D01*
X181758552Y-119593940D01*
X181875430Y-119006356D01*
X181875430Y-117213644D01*
X181758552Y-116626060D01*
X181425713Y-116127931D01*
X180927584Y-115795092D01*
X180340000Y-115678214D01*
X179752416Y-115795092D01*
X179254287Y-116127931D01*
X179088720Y-116375720D01*
X178901854Y-116108948D01*
X178474309Y-115880931D01*
X178250215Y-115959388D01*
X177349785Y-115959388D01*
X177125691Y-115880931D01*
X176698146Y-116108948D01*
X176341390Y-116618256D01*
X176206694Y-117225320D01*
X172985430Y-117225320D01*
X172985430Y-117213644D01*
X172868552Y-116626060D01*
X172535713Y-116127931D01*
X172037584Y-115795092D01*
X171450000Y-115678214D01*
X170862416Y-115795092D01*
X170364287Y-116127931D01*
X170198720Y-116375720D01*
X170011854Y-116108948D01*
X169584309Y-115880931D01*
X169360215Y-115959388D01*
X168459785Y-115959388D01*
X168235691Y-115880931D01*
X167808146Y-116108948D01*
X167451390Y-116618256D01*
X167316694Y-117225320D01*
X164095430Y-117225320D01*
X164095430Y-117213644D01*
X163978552Y-116626060D01*
X163645713Y-116127931D01*
X163147584Y-115795092D01*
X162560000Y-115678214D01*
X161972416Y-115795092D01*
X161474287Y-116127931D01*
X161308720Y-116375720D01*
X161121854Y-116108948D01*
X160694309Y-115880931D01*
X160470215Y-115959388D01*
X159569785Y-115959388D01*
X159345691Y-115880931D01*
X158918146Y-116108948D01*
X158561390Y-116618256D01*
X158426694Y-117225320D01*
X155205430Y-117225320D01*
X155205430Y-117213644D01*
X155088552Y-116626060D01*
X154755713Y-116127931D01*
X154257584Y-115795092D01*
X153670000Y-115678214D01*
X153082416Y-115795092D01*
X152584287Y-116127931D01*
X152418720Y-116375720D01*
X152231854Y-116108948D01*
X151804309Y-115880931D01*
X151580215Y-115959388D01*
X150679785Y-115959388D01*
X150455691Y-115880931D01*
X150028146Y-116108948D01*
X149671390Y-116618256D01*
X149536694Y-117225320D01*
X146315430Y-117225320D01*
X146315430Y-117213644D01*
X146198552Y-116626060D01*
X145865713Y-116127931D01*
X145367584Y-115795092D01*
X144780000Y-115678214D01*
X144192416Y-115795092D01*
X143694287Y-116127931D01*
X143528720Y-116375720D01*
X143341854Y-116108948D01*
X142914309Y-115880931D01*
X142690215Y-115959388D01*
X141789785Y-115959388D01*
X141565691Y-115880931D01*
X141138146Y-116108948D01*
X140781390Y-116618256D01*
X140646694Y-117225320D01*
X140462000Y-117225320D01*
X140462000Y-107564680D01*
X140646694Y-107564680D01*
X140781390Y-108171744D01*
X141138146Y-108681052D01*
X141565691Y-108909069D01*
X141789785Y-108830612D01*
X141789785Y-107315000D01*
X140819577Y-107315000D01*
X140646694Y-107564680D01*
X140462000Y-107564680D01*
X140462000Y-105795320D01*
X140646694Y-105795320D01*
X140819577Y-106045000D01*
X141789785Y-106045000D01*
X141789785Y-104529388D01*
X142690215Y-104529388D01*
X142690215Y-106045000D01*
X142895000Y-106045000D01*
X142895000Y-107315000D01*
X142690215Y-107315000D01*
X142690215Y-108830612D01*
X142914309Y-108909069D01*
X143341854Y-108681052D01*
X143528720Y-108414280D01*
X143694287Y-108662069D01*
X144192416Y-108994908D01*
X144780000Y-109111786D01*
X145367584Y-108994908D01*
X145865713Y-108662069D01*
X146198552Y-108163940D01*
X146315430Y-107576356D01*
X146315430Y-107564680D01*
X149536694Y-107564680D01*
X149671390Y-108171744D01*
X150028146Y-108681052D01*
X150455691Y-108909069D01*
X150679785Y-108830612D01*
X150679785Y-107315000D01*
X149709577Y-107315000D01*
X149536694Y-107564680D01*
X146315430Y-107564680D01*
X146315430Y-105795320D01*
X149536694Y-105795320D01*
X149709577Y-106045000D01*
X150679785Y-106045000D01*
X150679785Y-104529388D01*
X151580215Y-104529388D01*
X151580215Y-106045000D01*
X151785000Y-106045000D01*
X151785000Y-107315000D01*
X151580215Y-107315000D01*
X151580215Y-108830612D01*
X151804309Y-108909069D01*
X152231854Y-108681052D01*
X152418720Y-108414280D01*
X152584287Y-108662069D01*
X153082416Y-108994908D01*
X153670000Y-109111786D01*
X154257584Y-108994908D01*
X154755713Y-108662069D01*
X155088552Y-108163940D01*
X155205430Y-107576356D01*
X155205430Y-107564680D01*
X158426694Y-107564680D01*
X158561390Y-108171744D01*
X158918146Y-108681052D01*
X159345691Y-108909069D01*
X159569785Y-108830612D01*
X159569785Y-107315000D01*
X158599577Y-107315000D01*
X158426694Y-107564680D01*
X155205430Y-107564680D01*
X155205430Y-105795320D01*
X158426694Y-105795320D01*
X158599577Y-106045000D01*
X159569785Y-106045000D01*
X159569785Y-104529388D01*
X160470215Y-104529388D01*
X160470215Y-106045000D01*
X160675000Y-106045000D01*
X160675000Y-107315000D01*
X160470215Y-107315000D01*
X160470215Y-108830612D01*
X160694309Y-108909069D01*
X161121854Y-108681052D01*
X161308720Y-108414280D01*
X161474287Y-108662069D01*
X161972416Y-108994908D01*
X162560000Y-109111786D01*
X163147584Y-108994908D01*
X163645713Y-108662069D01*
X163978552Y-108163940D01*
X164095430Y-107576356D01*
X164095430Y-107564680D01*
X167316694Y-107564680D01*
X167451390Y-108171744D01*
X167808146Y-108681052D01*
X168235691Y-108909069D01*
X168459785Y-108830612D01*
X168459785Y-107315000D01*
X167489577Y-107315000D01*
X167316694Y-107564680D01*
X164095430Y-107564680D01*
X164095430Y-105795320D01*
X167316694Y-105795320D01*
X167489577Y-106045000D01*
X168459785Y-106045000D01*
X168459785Y-104529388D01*
X169360215Y-104529388D01*
X169360215Y-106045000D01*
X169565000Y-106045000D01*
X169565000Y-107315000D01*
X169360215Y-107315000D01*
X169360215Y-108830612D01*
X169584309Y-108909069D01*
X170011854Y-108681052D01*
X170198720Y-108414280D01*
X170364287Y-108662069D01*
X170862416Y-108994908D01*
X171450000Y-109111786D01*
X172037584Y-108994908D01*
X172535713Y-108662069D01*
X172868552Y-108163940D01*
X172985430Y-107576356D01*
X172985430Y-107564680D01*
X176206694Y-107564680D01*
X176341390Y-108171744D01*
X176698146Y-108681052D01*
X177125691Y-108909069D01*
X177349785Y-108830612D01*
X177349785Y-107315000D01*
X176379577Y-107315000D01*
X176206694Y-107564680D01*
X172985430Y-107564680D01*
X172985430Y-105795320D01*
X176206694Y-105795320D01*
X176379577Y-106045000D01*
X177349785Y-106045000D01*
X177349785Y-104529388D01*
X178250215Y-104529388D01*
X178250215Y-106045000D01*
X178455000Y-106045000D01*
X178455000Y-107315000D01*
X178250215Y-107315000D01*
X178250215Y-108830612D01*
X178474309Y-108909069D01*
X178901854Y-108681052D01*
X179088720Y-108414280D01*
X179254287Y-108662069D01*
X179752416Y-108994908D01*
X180340000Y-109111786D01*
X180927584Y-108994908D01*
X181425713Y-108662069D01*
X181758552Y-108163940D01*
X181875430Y-107576356D01*
X181875430Y-105783644D01*
X181758552Y-105196060D01*
X181425713Y-104697931D01*
X180927584Y-104365092D01*
X180340000Y-104248214D01*
X179752416Y-104365092D01*
X179254287Y-104697931D01*
X179088720Y-104945720D01*
X178901854Y-104678948D01*
X178474309Y-104450931D01*
X178250215Y-104529388D01*
X177349785Y-104529388D01*
X177125691Y-104450931D01*
X176698146Y-104678948D01*
X176341390Y-105188256D01*
X176206694Y-105795320D01*
X172985430Y-105795320D01*
X172985430Y-105783644D01*
X172868552Y-105196060D01*
X172535713Y-104697931D01*
X172037584Y-104365092D01*
X171450000Y-104248214D01*
X170862416Y-104365092D01*
X170364287Y-104697931D01*
X170198720Y-104945720D01*
X170011854Y-104678948D01*
X169584309Y-104450931D01*
X169360215Y-104529388D01*
X168459785Y-104529388D01*
X168235691Y-104450931D01*
X167808146Y-104678948D01*
X167451390Y-105188256D01*
X167316694Y-105795320D01*
X164095430Y-105795320D01*
X164095430Y-105783644D01*
X163978552Y-105196060D01*
X163645713Y-104697931D01*
X163147584Y-104365092D01*
X162560000Y-104248214D01*
X161972416Y-104365092D01*
X161474287Y-104697931D01*
X161308720Y-104945720D01*
X161121854Y-104678948D01*
X160694309Y-104450931D01*
X160470215Y-104529388D01*
X159569785Y-104529388D01*
X159345691Y-104450931D01*
X158918146Y-104678948D01*
X158561390Y-105188256D01*
X158426694Y-105795320D01*
X155205430Y-105795320D01*
X155205430Y-105783644D01*
X155088552Y-105196060D01*
X154755713Y-104697931D01*
X154257584Y-104365092D01*
X153670000Y-104248214D01*
X153082416Y-104365092D01*
X152584287Y-104697931D01*
X152418720Y-104945720D01*
X152231854Y-104678948D01*
X151804309Y-104450931D01*
X151580215Y-104529388D01*
X150679785Y-104529388D01*
X150455691Y-104450931D01*
X150028146Y-104678948D01*
X149671390Y-105188256D01*
X149536694Y-105795320D01*
X146315430Y-105795320D01*
X146315430Y-105783644D01*
X146198552Y-105196060D01*
X145865713Y-104697931D01*
X145367584Y-104365092D01*
X144780000Y-104248214D01*
X144192416Y-104365092D01*
X143694287Y-104697931D01*
X143528720Y-104945720D01*
X143341854Y-104678948D01*
X142914309Y-104450931D01*
X142690215Y-104529388D01*
X141789785Y-104529388D01*
X141565691Y-104450931D01*
X141138146Y-104678948D01*
X140781390Y-105188256D01*
X140646694Y-105795320D01*
X140462000Y-105795320D01*
X140462000Y-103632000D01*
X182118000Y-103632000D01*
X182118000Y-121158000D01*
X182118000Y-121158000D01*
G37*
X182118000Y-121158000D02*
X140462000Y-121158000D01*
X140462000Y-118994680D01*
X140646694Y-118994680D01*
X140781390Y-119601744D01*
X141138146Y-120111052D01*
X141565691Y-120339069D01*
X141789785Y-120260612D01*
X141789785Y-118745000D01*
X140819577Y-118745000D01*
X140646694Y-118994680D01*
X140462000Y-118994680D01*
X140462000Y-117225320D01*
X140646694Y-117225320D01*
X140819577Y-117475000D01*
X141789785Y-117475000D01*
X141789785Y-115959388D01*
X142690215Y-115959388D01*
X142690215Y-117475000D01*
X142895000Y-117475000D01*
X142895000Y-118745000D01*
X142690215Y-118745000D01*
X142690215Y-120260612D01*
X142914309Y-120339069D01*
X143341854Y-120111052D01*
X143528720Y-119844280D01*
X143694287Y-120092069D01*
X144192416Y-120424908D01*
X144780000Y-120541786D01*
X145367584Y-120424908D01*
X145865713Y-120092069D01*
X146198552Y-119593940D01*
X146315430Y-119006356D01*
X146315430Y-118994680D01*
X149536694Y-118994680D01*
X149671390Y-119601744D01*
X150028146Y-120111052D01*
X150455691Y-120339069D01*
X150679785Y-120260612D01*
X150679785Y-118745000D01*
X149709577Y-118745000D01*
X149536694Y-118994680D01*
X146315430Y-118994680D01*
X146315430Y-117225320D01*
X149536694Y-117225320D01*
X149709577Y-117475000D01*
X150679785Y-117475000D01*
X150679785Y-115959388D01*
X151580215Y-115959388D01*
X151580215Y-117475000D01*
X151785000Y-117475000D01*
X151785000Y-118745000D01*
X151580215Y-118745000D01*
X151580215Y-120260612D01*
X151804309Y-120339069D01*
X152231854Y-120111052D01*
X152418720Y-119844280D01*
X152584287Y-120092069D01*
X153082416Y-120424908D01*
X153670000Y-120541786D01*
X154257584Y-120424908D01*
X154755713Y-120092069D01*
X155088552Y-119593940D01*
X155205430Y-119006356D01*
X155205430Y-118994680D01*
X158426694Y-118994680D01*
X158561390Y-119601744D01*
X158918146Y-120111052D01*
X159345691Y-120339069D01*
X159569785Y-120260612D01*
X159569785Y-118745000D01*
X158599577Y-118745000D01*
X158426694Y-118994680D01*
X155205430Y-118994680D01*
X155205430Y-117225320D01*
X158426694Y-117225320D01*
X158599577Y-117475000D01*
X159569785Y-117475000D01*
X159569785Y-115959388D01*
X160470215Y-115959388D01*
X160470215Y-117475000D01*
X160675000Y-117475000D01*
X160675000Y-118745000D01*
X160470215Y-118745000D01*
X160470215Y-120260612D01*
X160694309Y-120339069D01*
X161121854Y-120111052D01*
X161308720Y-119844280D01*
X161474287Y-120092069D01*
X161972416Y-120424908D01*
X162560000Y-120541786D01*
X163147584Y-120424908D01*
X163645713Y-120092069D01*
X163978552Y-119593940D01*
X164095430Y-119006356D01*
X164095430Y-118994680D01*
X167316694Y-118994680D01*
X167451390Y-119601744D01*
X167808146Y-120111052D01*
X168235691Y-120339069D01*
X168459785Y-120260612D01*
X168459785Y-118745000D01*
X167489577Y-118745000D01*
X167316694Y-118994680D01*
X164095430Y-118994680D01*
X164095430Y-117225320D01*
X167316694Y-117225320D01*
X167489577Y-117475000D01*
X168459785Y-117475000D01*
X168459785Y-115959388D01*
X169360215Y-115959388D01*
X169360215Y-117475000D01*
X169565000Y-117475000D01*
X169565000Y-118745000D01*
X169360215Y-118745000D01*
X169360215Y-120260612D01*
X169584309Y-120339069D01*
X170011854Y-120111052D01*
X170198720Y-119844280D01*
X170364287Y-120092069D01*
X170862416Y-120424908D01*
X171450000Y-120541786D01*
X172037584Y-120424908D01*
X172535713Y-120092069D01*
X172868552Y-119593940D01*
X172985430Y-119006356D01*
X172985430Y-118994680D01*
X176206694Y-118994680D01*
X176341390Y-119601744D01*
X176698146Y-120111052D01*
X177125691Y-120339069D01*
X177349785Y-120260612D01*
X177349785Y-118745000D01*
X176379577Y-118745000D01*
X176206694Y-118994680D01*
X172985430Y-118994680D01*
X172985430Y-117225320D01*
X176206694Y-117225320D01*
X176379577Y-117475000D01*
X177349785Y-117475000D01*
X177349785Y-115959388D01*
X178250215Y-115959388D01*
X178250215Y-117475000D01*
X178455000Y-117475000D01*
X178455000Y-118745000D01*
X178250215Y-118745000D01*
X178250215Y-120260612D01*
X178474309Y-120339069D01*
X178901854Y-120111052D01*
X179088720Y-119844280D01*
X179254287Y-120092069D01*
X179752416Y-120424908D01*
X180340000Y-120541786D01*
X180927584Y-120424908D01*
X181425713Y-120092069D01*
X181758552Y-119593940D01*
X181875430Y-119006356D01*
X181875430Y-117213644D01*
X181758552Y-116626060D01*
X181425713Y-116127931D01*
X180927584Y-115795092D01*
X180340000Y-115678214D01*
X179752416Y-115795092D01*
X179254287Y-116127931D01*
X179088720Y-116375720D01*
X178901854Y-116108948D01*
X178474309Y-115880931D01*
X178250215Y-115959388D01*
X177349785Y-115959388D01*
X177125691Y-115880931D01*
X176698146Y-116108948D01*
X176341390Y-116618256D01*
X176206694Y-117225320D01*
X172985430Y-117225320D01*
X172985430Y-117213644D01*
X172868552Y-116626060D01*
X172535713Y-116127931D01*
X172037584Y-115795092D01*
X171450000Y-115678214D01*
X170862416Y-115795092D01*
X170364287Y-116127931D01*
X170198720Y-116375720D01*
X170011854Y-116108948D01*
X169584309Y-115880931D01*
X169360215Y-115959388D01*
X168459785Y-115959388D01*
X168235691Y-115880931D01*
X167808146Y-116108948D01*
X167451390Y-116618256D01*
X167316694Y-117225320D01*
X164095430Y-117225320D01*
X164095430Y-117213644D01*
X163978552Y-116626060D01*
X163645713Y-116127931D01*
X163147584Y-115795092D01*
X162560000Y-115678214D01*
X161972416Y-115795092D01*
X161474287Y-116127931D01*
X161308720Y-116375720D01*
X161121854Y-116108948D01*
X160694309Y-115880931D01*
X160470215Y-115959388D01*
X159569785Y-115959388D01*
X159345691Y-115880931D01*
X158918146Y-116108948D01*
X158561390Y-116618256D01*
X158426694Y-117225320D01*
X155205430Y-117225320D01*
X155205430Y-117213644D01*
X155088552Y-116626060D01*
X154755713Y-116127931D01*
X154257584Y-115795092D01*
X153670000Y-115678214D01*
X153082416Y-115795092D01*
X152584287Y-116127931D01*
X152418720Y-116375720D01*
X152231854Y-116108948D01*
X151804309Y-115880931D01*
X151580215Y-115959388D01*
X150679785Y-115959388D01*
X150455691Y-115880931D01*
X150028146Y-116108948D01*
X149671390Y-116618256D01*
X149536694Y-117225320D01*
X146315430Y-117225320D01*
X146315430Y-117213644D01*
X146198552Y-116626060D01*
X145865713Y-116127931D01*
X145367584Y-115795092D01*
X144780000Y-115678214D01*
X144192416Y-115795092D01*
X143694287Y-116127931D01*
X143528720Y-116375720D01*
X143341854Y-116108948D01*
X142914309Y-115880931D01*
X142690215Y-115959388D01*
X141789785Y-115959388D01*
X141565691Y-115880931D01*
X141138146Y-116108948D01*
X140781390Y-116618256D01*
X140646694Y-117225320D01*
X140462000Y-117225320D01*
X140462000Y-107564680D01*
X140646694Y-107564680D01*
X140781390Y-108171744D01*
X141138146Y-108681052D01*
X141565691Y-108909069D01*
X141789785Y-108830612D01*
X141789785Y-107315000D01*
X140819577Y-107315000D01*
X140646694Y-107564680D01*
X140462000Y-107564680D01*
X140462000Y-105795320D01*
X140646694Y-105795320D01*
X140819577Y-106045000D01*
X141789785Y-106045000D01*
X141789785Y-104529388D01*
X142690215Y-104529388D01*
X142690215Y-106045000D01*
X142895000Y-106045000D01*
X142895000Y-107315000D01*
X142690215Y-107315000D01*
X142690215Y-108830612D01*
X142914309Y-108909069D01*
X143341854Y-108681052D01*
X143528720Y-108414280D01*
X143694287Y-108662069D01*
X144192416Y-108994908D01*
X144780000Y-109111786D01*
X145367584Y-108994908D01*
X145865713Y-108662069D01*
X146198552Y-108163940D01*
X146315430Y-107576356D01*
X146315430Y-107564680D01*
X149536694Y-107564680D01*
X149671390Y-108171744D01*
X150028146Y-108681052D01*
X150455691Y-108909069D01*
X150679785Y-108830612D01*
X150679785Y-107315000D01*
X149709577Y-107315000D01*
X149536694Y-107564680D01*
X146315430Y-107564680D01*
X146315430Y-105795320D01*
X149536694Y-105795320D01*
X149709577Y-106045000D01*
X150679785Y-106045000D01*
X150679785Y-104529388D01*
X151580215Y-104529388D01*
X151580215Y-106045000D01*
X151785000Y-106045000D01*
X151785000Y-107315000D01*
X151580215Y-107315000D01*
X151580215Y-108830612D01*
X151804309Y-108909069D01*
X152231854Y-108681052D01*
X152418720Y-108414280D01*
X152584287Y-108662069D01*
X153082416Y-108994908D01*
X153670000Y-109111786D01*
X154257584Y-108994908D01*
X154755713Y-108662069D01*
X155088552Y-108163940D01*
X155205430Y-107576356D01*
X155205430Y-107564680D01*
X158426694Y-107564680D01*
X158561390Y-108171744D01*
X158918146Y-108681052D01*
X159345691Y-108909069D01*
X159569785Y-108830612D01*
X159569785Y-107315000D01*
X158599577Y-107315000D01*
X158426694Y-107564680D01*
X155205430Y-107564680D01*
X155205430Y-105795320D01*
X158426694Y-105795320D01*
X158599577Y-106045000D01*
X159569785Y-106045000D01*
X159569785Y-104529388D01*
X160470215Y-104529388D01*
X160470215Y-106045000D01*
X160675000Y-106045000D01*
X160675000Y-107315000D01*
X160470215Y-107315000D01*
X160470215Y-108830612D01*
X160694309Y-108909069D01*
X161121854Y-108681052D01*
X161308720Y-108414280D01*
X161474287Y-108662069D01*
X161972416Y-108994908D01*
X162560000Y-109111786D01*
X163147584Y-108994908D01*
X163645713Y-108662069D01*
X163978552Y-108163940D01*
X164095430Y-107576356D01*
X164095430Y-107564680D01*
X167316694Y-107564680D01*
X167451390Y-108171744D01*
X167808146Y-108681052D01*
X168235691Y-108909069D01*
X168459785Y-108830612D01*
X168459785Y-107315000D01*
X167489577Y-107315000D01*
X167316694Y-107564680D01*
X164095430Y-107564680D01*
X164095430Y-105795320D01*
X167316694Y-105795320D01*
X167489577Y-106045000D01*
X168459785Y-106045000D01*
X168459785Y-104529388D01*
X169360215Y-104529388D01*
X169360215Y-106045000D01*
X169565000Y-106045000D01*
X169565000Y-107315000D01*
X169360215Y-107315000D01*
X169360215Y-108830612D01*
X169584309Y-108909069D01*
X170011854Y-108681052D01*
X170198720Y-108414280D01*
X170364287Y-108662069D01*
X170862416Y-108994908D01*
X171450000Y-109111786D01*
X172037584Y-108994908D01*
X172535713Y-108662069D01*
X172868552Y-108163940D01*
X172985430Y-107576356D01*
X172985430Y-107564680D01*
X176206694Y-107564680D01*
X176341390Y-108171744D01*
X176698146Y-108681052D01*
X177125691Y-108909069D01*
X177349785Y-108830612D01*
X177349785Y-107315000D01*
X176379577Y-107315000D01*
X176206694Y-107564680D01*
X172985430Y-107564680D01*
X172985430Y-105795320D01*
X176206694Y-105795320D01*
X176379577Y-106045000D01*
X177349785Y-106045000D01*
X177349785Y-104529388D01*
X178250215Y-104529388D01*
X178250215Y-106045000D01*
X178455000Y-106045000D01*
X178455000Y-107315000D01*
X178250215Y-107315000D01*
X178250215Y-108830612D01*
X178474309Y-108909069D01*
X178901854Y-108681052D01*
X179088720Y-108414280D01*
X179254287Y-108662069D01*
X179752416Y-108994908D01*
X180340000Y-109111786D01*
X180927584Y-108994908D01*
X181425713Y-108662069D01*
X181758552Y-108163940D01*
X181875430Y-107576356D01*
X181875430Y-105783644D01*
X181758552Y-105196060D01*
X181425713Y-104697931D01*
X180927584Y-104365092D01*
X180340000Y-104248214D01*
X179752416Y-104365092D01*
X179254287Y-104697931D01*
X179088720Y-104945720D01*
X178901854Y-104678948D01*
X178474309Y-104450931D01*
X178250215Y-104529388D01*
X177349785Y-104529388D01*
X177125691Y-104450931D01*
X176698146Y-104678948D01*
X176341390Y-105188256D01*
X176206694Y-105795320D01*
X172985430Y-105795320D01*
X172985430Y-105783644D01*
X172868552Y-105196060D01*
X172535713Y-104697931D01*
X172037584Y-104365092D01*
X171450000Y-104248214D01*
X170862416Y-104365092D01*
X170364287Y-104697931D01*
X170198720Y-104945720D01*
X170011854Y-104678948D01*
X169584309Y-104450931D01*
X169360215Y-104529388D01*
X168459785Y-104529388D01*
X168235691Y-104450931D01*
X167808146Y-104678948D01*
X167451390Y-105188256D01*
X167316694Y-105795320D01*
X164095430Y-105795320D01*
X164095430Y-105783644D01*
X163978552Y-105196060D01*
X163645713Y-104697931D01*
X163147584Y-104365092D01*
X162560000Y-104248214D01*
X161972416Y-104365092D01*
X161474287Y-104697931D01*
X161308720Y-104945720D01*
X161121854Y-104678948D01*
X160694309Y-104450931D01*
X160470215Y-104529388D01*
X159569785Y-104529388D01*
X159345691Y-104450931D01*
X158918146Y-104678948D01*
X158561390Y-105188256D01*
X158426694Y-105795320D01*
X155205430Y-105795320D01*
X155205430Y-105783644D01*
X155088552Y-105196060D01*
X154755713Y-104697931D01*
X154257584Y-104365092D01*
X153670000Y-104248214D01*
X153082416Y-104365092D01*
X152584287Y-104697931D01*
X152418720Y-104945720D01*
X152231854Y-104678948D01*
X151804309Y-104450931D01*
X151580215Y-104529388D01*
X150679785Y-104529388D01*
X150455691Y-104450931D01*
X150028146Y-104678948D01*
X149671390Y-105188256D01*
X149536694Y-105795320D01*
X146315430Y-105795320D01*
X146315430Y-105783644D01*
X146198552Y-105196060D01*
X145865713Y-104697931D01*
X145367584Y-104365092D01*
X144780000Y-104248214D01*
X144192416Y-104365092D01*
X143694287Y-104697931D01*
X143528720Y-104945720D01*
X143341854Y-104678948D01*
X142914309Y-104450931D01*
X142690215Y-104529388D01*
X141789785Y-104529388D01*
X141565691Y-104450931D01*
X141138146Y-104678948D01*
X140781390Y-105188256D01*
X140646694Y-105795320D01*
X140462000Y-105795320D01*
X140462000Y-103632000D01*
X182118000Y-103632000D01*
X182118000Y-121158000D01*
M02*
