M48
;DRILL file {KiCad 4.0.7} date 02/11/18 16:50:41
;FORMAT={3:3/ absolute / metric / suppress leading zeros}
FMAT,2
METRIC,TZ
T1C0.800
T2C1.000
T3C1.100
T4C1.143
T5C1.199
T6C3.700
%
G90
G05
M71
T1
X153670Y-95250
X153670Y-100250
X175260Y-95250
X175260Y-100250
X181610Y-97790
X183610Y-97790
T2
X144780Y-91520
X144780Y-96520
T3
X160020Y-88900
X160020Y-100330
X170180Y-88900
X170180Y-100330
T4
X162560Y-95250
X165100Y-95250
X167640Y-95250
T5
X133350Y-106680
X135890Y-106680
X142240Y-106680
X142240Y-118110
X144780Y-106680
X144780Y-118110
X151130Y-106680
X151130Y-118110
X153670Y-106680
X153670Y-118110
X160020Y-106680
X160020Y-118110
X162560Y-106680
X162560Y-118110
X168910Y-106680
X168910Y-118110
X171450Y-106680
X171450Y-118110
X177800Y-106680
X177800Y-118110
X180340Y-106680
X180340Y-118110
T6
X134620Y-90170
X134620Y-119380
X187960Y-90170
X187960Y-119380
T0
M30
